SplineFontDB: 3.0
FontName: Untitled
FullName: Untitled 
FamilyName: Untitled
Weight: Normal
Copyright: Copyright 2011 Adobe Systems Incorporated. All rights reserved.
Version: 001.001
ItalicAngle: 0
UnderlinePosition: -50
UnderlineWidth: 50
Ascent: 750
Descent: 250
sfntRevision: 0x00010000
LayerCount: 2
Layer: 0 0 "Back"  1
Layer: 1 0 "Fore"  0
NeedsXUIDChange: 1
XUID: [1021 14 500265001 14779192]
FSType: 4
OS2Version: 3
OS2_WeightWidthSlopeOnly: 0
OS2_UseTypoMetrics: 1
CreationTime: 1313529237
ModificationTime: 1313941474
PfmFamily: 81
TTFWeight: 400
TTFWidth: 5
LineGap: 9
VLineGap: 0
Panose: 0 0 0 0 0 0 0 0 0 0
OS2TypoAscent: 0
OS2TypoAOffset: 1
OS2TypoDescent: 0
OS2TypoDOffset: 1
OS2TypoLinegap: 0
OS2WinAscent: -12
OS2WinAOffset: 1
OS2WinDescent: -259
OS2WinDOffset: 1
HheadAscent: -262
HheadAOffset: 1
HheadDescent: 9
HheadDOffset: 1
OS2SubXSize: 650
OS2SubYSize: 600
OS2SubXOff: 0
OS2SubYOff: 75
OS2SupXSize: 650
OS2SupYSize: 600
OS2SupXOff: 0
OS2SupYOff: 350
OS2StrikeYSize: 50
OS2StrikeYPos: 300
OS2Vendor: 'pyrs'
OS2CodePages: 20000000.00000000
OS2UnicodeRanges: 00000001.00000000.00000000.00000000
DEI: 91125
LangName: 1033 "" "" "Regular" "1.000;pyrs;Untitled" "Untitled" "Version 1.000;PS 001.001;hotconv 1.0.56" "" "Please refer to the Copyright section for the font trademark attribution notices." 
Encoding: ISO8859-1
UnicodeInterp: none
NameList: Adobe Glyph List
DisplaySize: -48
AntiAlias: 1
FitToEm: 1
WidthSeparation: 80
WinInfo: 0 22 12
BeginPrivate: 0
EndPrivate
BeginChars: 266 92

StartChar: exclam
Encoding: 33 33 2
Width: 300
Flags: HW
LayerCount: 2
Fore
SplineSet
73.1435546875 473.978515625 m 0
 73.1435546875 636.258388807 102.506621656 771.530273438 240.034179688 771.530273438 c 0
 244.145507812 771.530273438 248.127929688 770.797851562 248.244140625 770.771484375 c 0
 248.819335938 753.573242188 249.098632812 737.91796875 249.098632812 718.963867188 c 0
 249.098632812 542.76953125 215.143554688 294.4140625 97.8359375 255.161132812 c 1
 90.7861328125 256.42578125 86.228515625 259.059570312 82.966796875 261.16015625 c 1
 79.0107421875 330.567382812 73.1435546875 400.999023438 73.1435546875 473.978515625 c 0
103.694335938 31 m 0
 81.0126953125 31 66.5048828125 40.869140625 60.029296875 61.408203125 c 0
 56.1201171875 74.1640625 54.4501953125 85.7890625 54.4501953125 96.5048828125 c 0
 54.4501953125 153.01953125 103.3125 190.049804688 157.913085938 190.049804688 c 0
 158.353515625 190.049804688 158.51155599 190.049804688 158.96484375 190.044921875 c 0
 171.38671875 190.044921875 181.776367188 186.95703125 185.391601562 185.47265625 c 1
 189.840820312 169.91796875 191.15234375 158.96875 191.15234375 145.385742188 c 0
 191.15234375 82.1064453125 150.083007812 32.1015625 103.694335938 31 c 0
EndSplineSet
EndChar

StartChar: dollar
Encoding: 36 36 3
Width: 510
Flags: HW
LayerCount: 2
Back
SplineSet
596.28125 604.146484375 m 4
 594.822265625 561.55078125 556.962890625 495 519.565429688 495 c 4
 504.74609375 495 499.23828125 516 477.565429688 516 c 4
 454.340820312 516 428.918945312 438.379882812 426.103515625 416.325195312 c 5
 426.103515625 416 l 6
 426.103515625 413.556640625 425.1328125 404.719726562 425.1328125 402 c 6
 425.1328125 400.397460938 l 5
 460.096679688 349.936523438 498.2890625 295.817382812 498.2890625 228.982421875 c 4
 498.2890625 48.806640625 356.529296875 2.05859375 233.427734375 -41 c 4
 187.844726562 -56.693359375 203.133789062 -125.166992188 164.045898438 -131.559570312 c 5
 169.122070312 -101.62109375 182.880859375 -78.0302734375 182.880859375 -47.9052734375 c 4
 182.880859375 -36.1572265625 174.384765625 -33 161.221679688 -33 c 4
 114.615234375 -33 118.73828125 -130 84.5654296875 -130 c 4
 78.59765625 -130 77.8935546875 -132.174804688 79.513671875 -117.54296875 c 4
 83.51953125 -84.3818359375 106.013671875 -55.044921875 106.013671875 -17.271484375 c 4
 106.013671875 31.4814453125 30 24.5400390625 30 69.849609375 c 4
 30 115.446289062 107.541992188 176.997070312 143.565429688 179 c 4
 156.241210938 179 162.681640625 171 177.715820312 171 c 4
 206.395507812 171 233.53125 257.857421875 233.53125 285.078125 c 4
 233.53125 343.814453125 137.953125 383.634765625 137.953125 478.00390625 c 4
 137.953125 657.154296875 294.76171875 705.150390625 419.051757812 722.006835938 c 4
 440.795898438 725.552734375 449.685546875 743 463.943359375 743 c 4
 476.52734375 743 474.846679688 714 500.565429688 714 c 4
 527.522460938 714 534.3203125 744 552.565429688 744 c 4
 561.75390625 744 564.540039062 739.208984375 564.540039062 732.247070312 c 4
 564.540039062 721.521484375 557.9296875 705.641601562 557.9296875 694.1796875 c 4
 557.9296875 652.83203125 596.78515625 640.729492188 596.28125 604.146484375 c 4
285.323242188 102.573242188 m 4
 285.323242188 89.8505859375 296.841796875 88.9697265625 302.380859375 88.9697265625 c 4
 303.365234375 88.9697265625 304.203125 89 304.8203125 89 c 4
 305.01171875 89 306.26953125 88.861328125 308.087890625 88.861328125 c 4
 313.76953125 88.861328125 326.12890625 90.1494140625 326.12890625 101.370117188 c 6
 326.12890625 156 l 5
 297.12890625 156 285.323242188 125.416015625 285.323242188 102.573242188 c 4
276.682617188 251 m 4
 269.895507812 251 265.528320312 246.786132812 262.692382812 241.33984375 c 4
 252.65234375 221.793945312 224.118164062 159.239257812 218.646484375 122 c 5
 229.139648438 122 l 5
 269.809570312 117.385742188 274.858398438 193.2890625 293.072265625 216.666992188 c 4
 294.181640625 219.583984375 293.655273438 223.404296875 293.655273438 227.076171875 c 4
 293.655273438 238.705078125 290.81640625 251 276.682617188 251 c 4
375.788085938 491.384765625 m 5
 375.788085938 463 l 5
 411.905273438 463 452.395507812 554.538085938 452.395507812 580.815429688 c 4
 452.395507812 591.16015625 447.188476562 610 435.805664062 610 c 4
 427.631835938 610 424.73046875 604.62890625 420.823242188 597.88671875 c 6
 375.788085938 491.384765625 l 5
370.798828125 637 m 4
 336.548828125 637 330.875976562 586.780273438 328.293945312 555.203125 c 4
 328.293945312 545.655273438 330.85546875 537 340.720703125 537 c 4
 361.94921875 537 383.340820312 587.000976562 383.340820312 616.290039062 c 4
 383.340820312 628.421875 379.670898438 637 370.798828125 637 c 4
EndSplineSet
Fore
SplineSet
136.059570312 159 m 0
 157.747070312 159 281.403320312 69 314.517578125 69 c 0
 314.823242188 69 315.53515625 68.9990234375 315.802734375 68.9990234375 c 0
 315.824783838 68.9984431885 319.121488159 68.817281065 322.513684864 68.817281065 c 0
 334.54730748 68.817281065 367.36493057 70.779181258 367.36493057 100.389126103 c 0
 367.36493057 276.52453762 80.677440174 403.351261593 55.2412109375 484.018554688 c 0
 46.2568359375 512.514648438 42.349609375 537.173828125 42.349609375 558.305664062 c 0
 42.349609375 669.606445312 155.415039062 705.912109375 303.412109375 705.912109375 c 0
 364.3359375 705.912109375 414.90234375 674.801757812 438.85546875 598.837890625 c 0
 441.076171875 591.791992188 442.30859375 583.095703125 442.30859375 574.088867188 c 0
 442.30859375 536.7421875 423.1484375 515 415.84765625 515 c 0
 370.822265625 515 271.25390625 657 225.818359375 657 c 0
 185.470703125 657 175.147460938 623.965820312 175.147460938 602.46484375 c 0
 175.147460938 583.840820312 180.192382812 564.56640625 185.63671875 549.1875 c 0
 210.75 478.254882812 432.478515625 308.263671875 459.318359375 223.149414062 c 0
 470.087890625 188.883789062 474.947265625 158.458984375 474.947265625 132.015625 c 0
 474.947265625 31.1123046875 405.927734375 -21.2587890625 285.517578125 -21.2587890625 c 0
 215.661132812 -21.2587890625 84.39453125 49.193359375 75.9833984375 75.8642578125 c 0
 75.1025390625 78.6572265625 74.6474609375 81.6806640625 74.6474609375 85.0888671875 c 0
 74.6474609375 117.333984375 118.896484375 159 136.059570312 159 c 0
EndSplineSet
EndChar

StartChar: ampersand
Encoding: 38 38 4
Width: 719
Flags: HW
LayerCount: 2
Fore
SplineSet
220.055664062 4.6689453125 m 0
 212.360423845 4.6689453125 203.908038223 5.15932979517 195.537109375 6 c 2
 194.157226562 6 l 2
 137.532226562 6 79.166015625 59.373046875 60.7138671875 117.896484375 c 0
 56.275390625 131.97265625 54.4501953125 144.454101562 54.4501953125 155.90234375 c 0
 54.4501953125 239.631835938 177.849609375 287.540039062 177.849609375 400.151367188 c 0
 177.849609375 443.341796875 157.604492188 478.209960938 149.254882812 504.689453125 c 0
 139.345703125 536.116210938 134.6640625 567.8984375 134.6640625 598.431640625 c 0
 134.6640625 715.701171875 205.482421875 808 320.8125 808 c 0
 409.54296875 808 478.797851562 773.963867188 504.806640625 703.630859375 c 0
 510.984375 686.442382812 513.647460938 670.470703125 513.647460938 655.357421875 c 0
 513.647460938 560.219726562 403.669921875 492.309570312 337.819335938 429.887695312 c 2
 328.858398438 421.392578125 l 1
 332.799804688 410.73828125 l 2
 333.125976562 408.765625 333.834960938 400.858398438 336.9140625 392.52734375 c 0
 357.798828125 336.055664062 452.696289062 235 508.092773438 235 c 2
 541.50390625 235 l 1
 571.250976562 176.4140625 661.552734375 132.766601562 673.127929688 123.702148438 c 1
 675.376953125 115.485351562 675.47265625 113.297851562 675.47265625 107.358398438 c 0
 675.47265625 62.9453125 617.672851562 21 582.043945312 21 c 0
 543.576171875 21 489.325195312 77 423.060546875 77 c 2
 418.909179688 77 l 1
 344.391818829 53.7786580891 302.275775128 4.6689453125 220.055664062 4.6689453125 c 0
206.540039062 280.97265625 m 2
 184.986328125 263.8984375 177.545898438 238.583984375 177.545898438 214.977539062 c 0
 177.545898438 145.561523438 237.174804688 95 307.891601562 95 c 0
 328.100585938 95 360.388671875 105.420898438 360.388671875 134.712890625 c 0
 360.388671875 139.326171875 359.465820312 143.90234375 357.8203125 148.354492188 c 0
 350.829101562 167.25390625 297.440429688 240.110351562 243.5 276.057617188 c 1
 233.7109375 302.49609375 l 1
 206.540039062 280.97265625 l 2
363.645507812 629.462890625 m 0
 363.645507812 669.216092956 358.308865143 710.061105877 350.4453125 731.38671875 c 0
 344.932617188 746.296875 330.060546875 765 300.07421875 765 c 0
 233.162109375 765 219.865234375 704.727539062 219.865234375 661.625976562 c 0
 219.865234375 622.452148438 229.302734375 581.208007812 239.306640625 554.15234375 c 0
 244.921875 538.969726562 258.560546875 512 293.124023438 512 c 0
 358.11328125 512 363.645507812 586.05859375 363.645507812 629.462890625 c 0
EndSplineSet
EndChar

StartChar: quoteright
Encoding: 257 8217 5
Width: 234
Flags: HW
LayerCount: 2
Fore
SplineSet
185.540039062 716.3671875 m 0
 185.540039062 658.5078125 155.813476562 612.374023438 126.868164062 606.395507812 c 1
 125.190429688 608.86328125 123.774414062 612.232421875 123.774414062 618.711914062 c 0
 123.774414062 625.452148438 130.579101562 639.68359375 130.579101562 660.674804688 c 0
 130.579101562 726.0234375 58.916015625 758.383789062 55.318359375 768.799804688 c 0
 54.3330078125 772.283203125 54.455078125 771.856445312 54.455078125 774.640625 c 0
 54.455078125 793.53515625 95.5947265625 821 119.9921875 821 c 0
 150.159179688 821 185.540039062 771.983398438 185.540039062 716.3671875 c 0
EndSplineSet
EndChar

StartChar: parenleft
Encoding: 40 40 6
Width: 408
Flags: HW
LayerCount: 2
Fore
SplineSet
183.849609375 426.202148438 m 0
 183.849609375 367.409179688 197.803710938 292.084960938 218.013671875 233.2734375 c 1
 235.375976562 130.392578125 334.3828125 85.8134765625 364.963867188 48.3427734375 c 1
 364.963867188 48.3427734375 365.282226562 48.2998046875 365.282226562 48.2333984375 c 0
 365.282226562 36.056640625 333.33984375 21 300.868164062 21 c 0
 199.876953125 23.0009765625 119.01953125 113.767578125 85.240234375 223.607421875 c 0
 65.76171875 285.383789062 56.8701171875 344.837890625 56.8701171875 401.0625 c 0
 56.8701171875 580.608398438 145.287109375 726.32421875 273.068359375 812.40234375 c 1
 239.165039062 684.936523438 183.849609375 573.06640625 183.849609375 426.202148438 c 0
EndSplineSet
EndChar

StartChar: plus
Encoding: 43 43 7
Width: 756
Flags: HW
LayerCount: 2
Fore
SplineSet
357.033203125 211.713867188 m 0
 357.033203125 230.831054688 358.802734375 250.9140625 358.802734375 272.815429688 c 0
 358.802734375 274.6328125 358.811523438 276.733398438 358.811523438 279.029296875 c 0
 358.811523438 281.133793334 358.841793176 284.533384162 358.841793176 287.380915034 c 0
 358.841793176 307.225400704 357.930910541 360 307.9765625 360 c 0
 288.418945312 360 263.536132812 358 236.291992188 358 c 0
 147.609375 358 77.3369140625 374.788085938 60.1240234375 429.375976562 c 0
 56.9404296875 439.78125 55.6591796875 448.603515625 55.6591796875 455.9140625 c 0
 55.6591796875 488.3515625 81.8095703125 504.016601562 122.2421875 504.016601562 c 0
 122.98828125 504.016601562 123.295898438 504.014648438 124.307617188 504 c 0
 164.411132812 504 219.51953125 487 279.3046875 487 c 0
 328.021484375 487 342.249023438 522.79296875 342.249023438 553.209960938 c 0
 342.249023438 613.165039062 304.840820312 702.4609375 304.840820312 749.880859375 c 0
 304.840820312 774.733398438 308.700195312 775 319.51953125 775 c 0
 358.29296875 775 382.393554688 743.553710938 397.270507812 695.07421875 c 0
 407.769139832 659.798001731 437.464480928 529.062932988 446.510742188 492.262695312 c 1
 478.557617188 465 l 1
 611.120117188 465 l 2
 665.8203125 465 711.8359375 454.911132812 711.8359375 423.55859375 c 0
 711.8359375 364.99609375 523.150390625 430.47265625 475.5390625 357.168945312 c 0
 466.510742188 341.671875 465.499023438 322.620117188 465.499023438 302.581054688 c 0
 465.499023438 264.3203125 471.455078125 216.0234375 471.455078125 174.233398438 c 0
 471.455078125 114.348632812 460.83203125 88 432.264648438 88 c 0
 406.514648438 88 381.0625 106.561523438 373.16015625 132.315429688 c 2
 359.724609375 176.094726562 l 1
 356.876953125 193.700195312 357.033203125 198.141601562 357.033203125 211.713867188 c 0
EndSplineSet
EndChar

StartChar: zero
Encoding: 48 48 8
Width: 586
Flags: HW
LayerCount: 2
Fore
SplineSet
336.681640625 730.325195312 m 1
 338.650010657 734.955495917 340.508611654 741.337707452 340.508611654 750.06797021 c 0
 340.508611654 753.530440035 340.216261363 757.362248658 339.522460938 761.600585938 c 2
 332.321289062 783 l 1
 316.030273438 783 l 2
 293.465820312 783 271.266601562 771.530273438 260.836914062 754.114257812 c 0
 212.36328125 676.923828125 177.159179688 586.0234375 177.159179688 483.743164062 c 0
 177.159179688 434.970703125 185.1328125 383.658203125 203.162109375 330.114257812 c 0
 241.228515625 217.100585938 276.936523438 155.0703125 328.59765625 155.0703125 c 0
 417.703125 155.0703125 444.26171875 347.731445312 444.26171875 465.27734375 c 0
 444.26171875 510.02734375 439.833984375 550.670898438 429.14453125 580.6328125 c 0
 407.978515625 642.87109375 354.76953125 681.610351562 336.681640625 730.325195312 c 1
547.955078125 493.709960938 m 0
 547.955078125 284.293945312 444.997070312 62 286.541015625 62 c 0
 182.384765625 62 101.921875 152.583984375 69.287109375 256.084960938 c 0
 52.8095703125 308.33984375 44.7705078125 365.083984375 44.7705078125 421.625976562 c 0
 44.7705078125 624.501953125 145.967773438 810 313.290039062 810 c 0
 470.5234375 810 547.955078125 671.278320312 547.955078125 493.709960938 c 0
EndSplineSet
EndChar

StartChar: one
Encoding: 49 49 9
Width: 314
Flags: HW
LayerCount: 2
Fore
SplineSet
51.2626953125 622.052734375 m 1
 47.7900390625 626.102539062 42.349609375 636.188476562 42.349609375 650.276367188 c 0
 42.349609375 732.223632812 208.440429688 830 259.71875 830 c 0
 261.874023438 830 269.270507812 822.4453125 274.93359375 797.888671875 c 1
 275.88671875 774.725585938 276.10546875 761.453125 276.10546875 742.708007812 c 0
 276.10546875 586.133789062 240.241210938 475.697265625 233.326171875 313.729492188 c 0
 228.17578125 183.478515625 230.415039062 48 124.29296875 48 c 0
 99.4130859375 48 68.15625 71.1728515625 59.9580078125 104.788085938 c 0
 53.9345703125 125.6796875 51.3955078125 147.399414062 51.3955078125 170.956054688 c 0
 51.3955078125 284.334960938 128.907226562 429.23828125 128.907226562 558.462890625 c 0
 128.907226562 576.059570312 127.967773438 596.287109375 122.375976562 614.018554688 c 2
 117.962890625 628 l 1
 103.301757812 628 l 2
 82.3916015625 628 61.7275390625 622.673828125 51.2626953125 622.052734375 c 1
EndSplineSet
EndChar

StartChar: two
Encoding: 50 50 10
Width: 497
Flags: HW
LayerCount: 2
Fore
SplineSet
407.358398438 614.455078125 m 0
 407.358398438 481.791789281 304.273134575 357.038073391 245.20703125 259.7109375 c 1
 250.567382812 243.01171875 l 1
 257.585968005 216.863008196 290.356959528 213.386793857 311.468394293 213.386793857 c 0
 319.114444994 213.386793857 325.231096389 213.842773438 328.041015625 213.842773438 c 0
 334.71875 213.842773438 340.390625 214 341.020507812 214 c 0
 384.528320312 214 425.947265625 226.299804688 459.75390625 229.326171875 c 1
 461.680664062 220.840820312 462.548828125 213.514648438 462.548828125 206.741210938 c 0
 462.548828125 125.8203125 343.462890625 70.994140625 271.538085938 70.994140625 c 0
 271.009765625 70.994140625 270.836077009 70.994140625 270.250976562 71 c 0
 200.469726562 71 113.42578125 94.47265625 94.7138671875 128.583984375 c 1
 133.754882812 264.233398438 265.056640625 367.552734375 265.056640625 544.609375 c 0
 265.056640625 583.690429688 257.14453125 629.720703125 242.53515625 672.825195312 c 0
 232.994140625 702.619140625 212.870117188 745 164.934570312 745 c 0
 127.275390625 744.215820312 116.377929688 710.908203125 116.377929688 683.752929688 c 0
 116.377929688 626.348632812 149.499023438 538.602539062 149.499023438 501.966796875 c 0
 149.499023438 500.135742188 149.337890625 498.288085938 149.225585938 497.091796875 c 1
 93.8009648538 508.972222075 43.5595703125 591.989149293 43.5595703125 667.700195312 c 0
 43.5595703125 762.057617188 123.46484375 819 209.049804688 819 c 0
 290.540039062 819 370.799804688 769.22265625 395.7421875 690.115234375 c 0
 403.83203125 664.461914062 407.358398438 639.303710938 407.358398438 614.455078125 c 0
EndSplineSet
EndChar

StartChar: three
Encoding: 51 51 11
Width: 565
Flags: HW
LayerCount: 2
Fore
SplineSet
158.3828125 576.174804688 m 1
 130.984403128 589.212296539 100.223632812 641.193955594 100.223632812 688.948242188 c 0
 100.223632812 776.055664062 206.697265625 826 292.977539062 826 c 0
 370.196289062 826 433.20703125 782.802734375 455.1796875 713.119140625 c 0
 459.436523438 699.618164062 461.154296875 687.59765625 461.154296875 676.668945312 c 0
 461.154296875 606.552734375 382.965820312 580.963867188 382.965820312 532.27734375 c 0
 382.965820312 483.202148438 503.0546875 461.536132812 524.14453125 394.647460938 c 0
 528.454101562 380.977539062 530.479492188 366.913085938 530.479492188 352.43359375 c 0
 530.479492188 212.32421875 337.044921875 48 230.666992188 48 c 0
 151.377929688 48 72.9453125 98.6259765625 49.595703125 172.67578125 c 0
 44.6083984375 188.48828125 42.349609375 204.071289062 42.349609375 219.251953125 c 0
 42.349609375 305.932617188 117.16796875 378.000976562 186.383789062 378.000976562 c 0
 188.028320312 378.000976562 190.885742188 377.95703125 190.998046875 377.955078125 c 0
 192.145507812 373.015625 192.146484375 371.630859375 192.146484375 367.122070312 c 0
 192.146484375 336.768554688 161.103515625 286.686523438 161.103515625 222.751953125 c 0
 161.103515625 190.483398438 166.907226562 120 233.5 120 c 0
 325.862304688 120 378.017578125 243.020507812 378.017578125 327.317382812 c 0
 378.017578125 345.662109375 375.665039062 363.477539062 370.174804688 379.831054688 c 0
 343.4765625 459.37109375 257.46484375 481.134765625 245.290039062 487.395507812 c 1
 243.119140625 494.96484375 243.327148438 495.237304688 243.327148438 500.193359375 c 0
 243.327148438 537.001953125 322.938476562 581.19140625 322.938476562 665.576171875 c 0
 322.938476562 689.497070312 315.4609375 753 261.458984375 753 c 0
 213.234375 753 171.44921875 607.938476562 158.3828125 576.174804688 c 1
EndSplineSet
EndChar

StartChar: four
Encoding: 52 52 12
Width: 485
Flags: HW
LayerCount: 2
Fore
SplineSet
238.462890625 784.961914062 m 0
 238.462890625 712.284739071 142.768809171 591.345655413 126.125976562 490.84375 c 1
 131.686523438 473.1953125 l 1
 144.905849608 467.298672736 155.753813666 457.084686963 178.26953125 456.874023438 c 0
 181.680664062 456.719726562 185.807617188 456.62109375 189.359375 456.62109375 c 0
 336.14453125 456.62109375 267.091796875 605.147460938 364.108398438 605.147460938 c 0
 366.587890625 605.147460938 368.1328125 605.123046875 371.399414062 605 c 0
 389.775390625 605 407.346679688 600.243164062 412.497070312 597.959960938 c 1
 414.283203125 591.24609375 414.3125 589.284179688 414.3125 583.697265625 c 0
 414.3125 567.354492188 406.1328125 545.583984375 406.1328125 518.650390625 c 0
 406.1328125 509.27734375 407.33203125 499.237304688 410.603515625 488.868164062 c 0
 417.095703125 468.271484375 436.03125 461.016601562 446.1171875 458.255859375 c 1
 423.66015625 390.510742188 363.873046875 292.254882812 363.873046875 179.071289062 c 0
 363.873046875 162.431640625 365.91796875 142.387695312 368.3828125 127.673828125 c 1
 360.482421875 97.3740234375 303.255859375 66 275.330078125 66 c 0
 239.587547016 66 231.071289062 88.3237124757 231.071289062 122.44921875 c 0
 231.071289062 167.16796875 256.533203125 216.420898438 256.533203125 273.374023438 c 0
 256.533203125 300.907226562 249.412109375 323.915039062 239.287109375 342.6328125 c 2
 234.147460938 352.1328125 l 1
 222.920898438 352.1328125 l 2
 212.30078125 352.1328125 187.72265625 351 161.5546875 351 c 0
 146.227539062 351 129.435546875 350.123046875 113.544921875 350.123046875 c 0
 72.490234375 350.123046875 50.44140625 357.75 42.470703125 374.51953125 c 1
 64.3193359375 555.595703125 62.0703125 784.640625 214.059570312 812.997070312 c 1
 214.059570312 812.997070312 216.26869803 813.299360193 219.295857403 813.299360193 c 0
 225.200783868 813.299360193 234.218347684 812.149137255 236.0234375 805.361328125 c 0
 237.647460938 799.255859375 238.462890625 792.5 238.462890625 784.961914062 c 0
EndSplineSet
EndChar

StartChar: five
Encoding: 53 53 13
Width: 505
Flags: HW
LayerCount: 2
Fore
SplineSet
221.015625 62 m 0
 120.448600007 62 42.349609375 156.087799987 42.349609375 272.736328125 c 0
 42.349609375 366.2421875 97.162109375 438 175.145507812 438 c 0
 178.446289062 438 185.2890625 435.954101562 188.064453125 434.884765625 c 1
 189.931640625 427.093609309 189.905273438 425.05859375 189.905273438 417.9609375 c 0
 189.905273438 371.7734375 148.920898438 298.666015625 148.920898438 217.345703125 c 0
 148.920898438 215.562908762 148.894594707 213.271669854 148.894594707 210.581006906 c 0
 148.894594707 184.114172795 151.439682365 119 206.599609375 119 c 0
 301.38671875 119 338.7265625 251.333007812 338.7265625 341.654296875 c 0
 338.7265625 368.645507812 335.522460938 394.516601562 328.282226562 416.977539062 c 0
 306.301757812 485.177734375 265.958984375 512 187.975585938 512 c 0
 149.5703125 512 126.868164062 503 103.955078125 503 c 0
 69.8349609375 503 67.6005859375 531.416992188 67.6005859375 601.583007812 c 0
 67.6005859375 706.104492188 94.9384765625 812.620117188 159.61328125 812.620117188 c 0
 164.157232942 812.620117188 169.29734553 812.070992879 173.953125 811.333007812 c 2
 175.741210938 811.333007812 l 2
 197.547851562 811.333007812 217.912109375 809.357421875 237.540039062 809.357421875 c 0
 246.2265625 809.357421875 257.110351562 809.384765625 263.296875 809.389648438 c 0
 274.848632812 808.209960938 280.06640625 808.2421875 289.439453125 808.2421875 c 0
 299.358398438 808.2421875 309.600585938 808.491210938 319.715820312 808.491210938 c 0
 346.357421875 808.491210938 370.087890625 804.41796875 383.2734375 796.595703125 c 1
 375.20467942 719.107734039 296.053348557 684.996256733 201.072265625 680.799804688 c 1
 168.437472594 672.777268737 168.241210938 639.178519646 168.241210938 627.362304688 c 0
 168.241210938 615.8828125 172.551757812 585 205.075195312 585 c 0
 249.154296875 585 285.26953125 601 316.869140625 601 c 0
 412.267578125 601 469.662109375 533.03515625 469.662109375 416.779296875 c 0
 469.662109375 249.396484375 338.755859375 62 221.015625 62 c 0
EndSplineSet
EndChar

StartChar: six
Encoding: 54 54 14
Width: 575
Flags: HW
LayerCount: 2
Fore
SplineSet
153.653320312 395.796875 m 0
 153.653320312 367.083007812 158.890625 337.48828125 167.995117188 311.455078125 c 0
 195.892578125 228.266601562 276.879882812 143 360.075195312 143 c 2
 366.006835938 143 l 1
 371.127929688 145.721679688 l 2
 412.616210938 167.76171875 421.09375 212.94140625 421.09375 254.713867188 c 0
 421.09375 301.758384364 410.208028062 353.011189848 404.376953125 392.829101562 c 1
 382.407176722 458.412348748 320.300270634 519 245.341796875 519 c 0
 174.1484375 519 153.653320312 450.087890625 153.653320312 395.796875 c 0
276.14453125 624.697265625 m 0
 276.14453125 618.013671875 277.76171875 611.1328125 281.4375 604.725585938 c 2
 287.590820312 594 l 1
 300.877929688 594 l 2
 332.579101562 594 364.892578125 600 388.955078125 600 c 0
 484.05078125 600 539.721679688 489.501953125 539.721679688 369.49609375 c 0
 539.721679688 205.411132812 435.166015625 61 294.592773438 61 c 0
 184.080078125 61 88.9951171875 102.435546875 58.98828125 197.604492188 c 0
 49.2919921875 228.35546875 44.7705078125 264.360351562 44.7705078125 303.333984375 c 0
 44.7705078125 486.700195312 146.21484375 729.803710938 226.412109375 808.358398438 c 0
 229.475585938 811.401367188 257.328125 817 286.943359375 817 c 0
 295.556640625 817 306.137695312 817.458007812 317.5078125 817.458007812 c 0
 350.0078125 817.458007812 372.72265625 810.54296875 378.55078125 803.987304688 c 1
 370.956054688 738.813476562 276.14453125 683.650390625 276.14453125 624.697265625 c 0
EndSplineSet
EndChar

StartChar: seven
Encoding: 55 55 15
Width: 457
Flags: HW
LayerCount: 2
Fore
SplineSet
194.235351562 57.669921875 m 0
 188.286872255 57.669921875 179.862266749 58.6200458859 171.768554688 60 c 1
 169.912109375 60 l 2
 136.61328125 60 119.586914062 67.9052734375 119.586914062 88.0224609375 c 0
 119.586914062 127.162109375 185.314453125 213.928710938 185.314453125 280.23046875 c 0
 185.314453125 341.59765625 127.590820312 352.119140625 122.360351562 356.728515625 c 1
 114.235351562 382.8203125 111.68359375 399.31640625 111.68359375 412.610351562 c 0
 111.68359375 442.287295444 124.949342943 448.459443092 142.702117737 448.459443092 c 0
 155.345626509 448.459443092 170.265077793 445.328760436 184.289185037 445.328760436 c 0
 204.462205079 445.328760436 222.78262649 451.806603748 229.811523438 483.3984375 c 2
 275.350585938 688.115234375 l 1
 271.612674414 702.457836145 262.257048796 725.0390625 240.263671875 725.0390625 c 0
 168.357421875 725.0390625 118.22265625 670 63.8779296875 670 c 0
 56.7646484375 670.08984375 48.291015625 671.416992188 45.5537109375 671.950195312 c 1
 43.986328125 679.328125 43.5595703125 685.149414062 43.5595703125 694.490234375 c 0
 43.5595703125 750.624023438 71.7958984375 807 93.3291015625 807 c 0
 143.356445312 807 175.174804688 807.169921875 196.201171875 807.169921875 c 0
 204.12890625 807.169921875 212.840820312 807.247070312 222.0859375 807.247070312 c 0
 286.294921875 807.247070312 375.604492188 797.943359375 404.107421875 762.59375 c 1
 406.883789062 752.579101562 407.463867188 746.787109375 407.463867188 738.059570312 c 0
 407.463867188 680.890625 344.6484375 617.318359375 344.6484375 534.856445312 c 0
 344.6484375 521.26953125 346.608398438 507.228515625 351.107421875 492.959960938 c 0
 359.756835938 465.53125 383.845703125 458 400.48828125 458 c 0
 408.864257812 458 417.31640625 458.868164062 421.240234375 458.990234375 c 1
 421.985351562 453.29296875 422.061523438 451.563476562 422.061523438 448.041015625 c 0
 422.061523438 389.426757812 323.716796875 414.140625 300.754882812 321.110351562 c 1
 284.921875 244.646484375 288.602539062 57.669921875 194.235351562 57.669921875 c 0
EndSplineSet
EndChar

StartChar: eight
Encoding: 56 56 16
Width: 480
Flags: HW
LayerCount: 2
Fore
SplineSet
187.504882812 145.575195312 m 0
 194.287109375 124.07421875 210.747070312 98 247.313476562 98 c 0
 312.018554688 98 326.325195312 171.329101562 326.325195312 220.147460938 c 0
 326.325195312 245.405273438 322.708007812 270.358398438 316.235351562 290.870117188 c 0
 306.78515625 320.827148438 284.541015625 374 240.872070312 374 c 0
 180.538085938 374 177.955078125 288.150390625 177.955078125 241.686523438 c 0
 177.955078125 199.833984375 182.369140625 161.848632812 187.504882812 145.575195312 c 0
413.845703125 678.384765625 m 0
 413.845703125 588.997070312 328.791015625 523.534179688 328.791015625 481.022460938 c 0
 328.791015625 448.904296875 419.47265625 368.18359375 437.515625 310.956054688 c 0
 442.771484375 294.288085938 445.166992188 277.733398438 445.166992188 261.374023438 c 0
 445.166992188 149.33984375 329.470703125 48 243.640625 48 c 0
 146.59375 48 44.7705078125 103.123046875 44.7705078125 215.874023438 c 0
 44.7705078125 329.193359375 167.787109375 389.166992188 167.787109375 430.627929688 c 0
 167.787109375 463.651367188 74.6376953125 539.799804688 56.2119140625 598.239257812 c 0
 49.6591796875 619.022460938 46.7451171875 638.54296875 46.7451171875 656.6875 c 0
 46.7451171875 748.609375 122.477539062 811 202.1171875 811 c 0
 216.8203125 811 235.006835938 808.477539062 244.83984375 805.998046875 c 1
 204.24609375 773.602539062 183.411132812 729.021484375 183.411132812 673.515625 c 0
 183.411132812 650.467773438 187.287109375 625.920898438 195.384765625 600.255859375 c 0
 202.970703125 576.209960938 218.112304688 539 261.703125 539 c 0
 315.249023438 539 326.810546875 590.106445312 326.810546875 627.751953125 c 0
 326.810546875 666.266601562 317.01171875 708.8984375 307.65234375 738.556640625 c 0
 306.377929688 742.602539062 305.9765625 745.684570312 305.9765625 747.831054688 c 0
 305.9765625 757.005859375 322.376953125 764.532226562 352.040039062 765 c 0
 383.668945312 765 397.115234375 753.3984375 407.283203125 721.158203125 c 0
 411.883789062 706.568359375 413.845703125 692.354492188 413.845703125 678.384765625 c 0
EndSplineSet
EndChar

StartChar: nine
Encoding: 57 57 17
Width: 571
Flags: HW
LayerCount: 2
Fore
SplineSet
191.62890625 558.6484375 m 0
 208.025390625 509.73046875 250.896484375 441 317.73828125 441 c 0
 378.08984375 441 380.775390625 523.017578125 380.775390625 571.595703125 c 0
 380.775390625 625.0625 373.329101562 678.981445312 365.602539062 702.029296875 c 0
 354.952148438 733.797851562 329.288085938 786 277.40234375 786 c 0
 199.50390625 786 182.188476562 687.522460938 182.188476562 627.3359375 c 0
 182.188476562 601.830078125 185.2109375 577.791992188 191.62890625 558.6484375 c 0
180.973632812 375 m 0
 103.429884724 375 42.349609375 479.971242782 42.349609375 576.178710938 c 0
 42.349609375 716.924804688 173.788085938 813 298.275390625 813 c 0
 407.131835938 813 481.10546875 723.403320312 514.802734375 616.534179688 c 0
 527.947265625 574.845703125 534.043945312 531.954101562 534.043945312 489.265625 c 0
 534.043945312 265.762695312 364.8984375 57 174.61328125 57 c 0
 164.645507812 57 157.114257812 58.44140625 153.71875 59.4775390625 c 1
 186.956054688 99.373046875 344.7734375 238.110351562 344.7734375 369.59375 c 0
 344.7734375 378.055664062 344.114257812 386.540039062 342.708007812 395.001953125 c 2
 337.897460938 423.912109375 l 1
 310.0859375 409.33984375 l 2
 268.619140625 387.609375 226.015625 375 180.973632812 375 c 0
EndSplineSet
EndChar

StartChar: equal
Encoding: 61 61 18
Width: 702
Flags: HW
LayerCount: 2
Fore
SplineSet
143.2578125 466.931640625 m 0
 82.6083066358 466.931640625 54.4501953125 483.906686594 54.4501953125 534.669921875 c 0
 54.4501953125 577.001953125 101.673828125 589 171.1328125 589 c 2
 177.958476159 589.000015385 l 2
 325.25056405 589.000015385 336.367477162 588.933691699 449.298828125 580.091796875 c 0
 514.651056819 575.306662329 614.495117188 568.276675528 614.495117188 539.704101562 c 0
 614.495117188 490.887695312 223.680664062 467 150.048828125 467 c 0
 147.41015625 466.94921875 145.5625 466.931640625 143.2578125 466.931640625 c 0
244.599609375 228 m 0
 165.530699439 228 92.8271484375 235.582374811 92.8271484375 280.084960938 c 0
 92.8271484375 328.264648438 148.270507812 349.50390625 228.220703125 349.50390625 c 0
 229.228515625 349.50390625 229.717773438 349.50390625 230.96484375 349.49609375 c 0
 257.115234375 349.49609375 285.12109375 349 295.62890625 349 c 0
 334.3671875 349 362.022460938 349.349609375 384.750976562 349.349609375 c 0
 480.80859375 349.349609375 627.581054688 338.6875 657.829101562 292.166992188 c 1
 657.829101562 249.579101562 326.743164062 228 244.599609375 228 c 0
EndSplineSet
EndChar

StartChar: question
Encoding: 63 63 19
Width: 523
Flags: HW
LayerCount: 2
Fore
SplineSet
145.147460938 503.951171875 m 1
 97.6497131256 529.564014288 55.6591796875 603.656305912 55.6591796875 677.454101562 c 0
 55.6591796875 760.779296875 115.13671875 813 194.48828125 813 c 0
 305.59375 813 410.96484375 755.538085938 440.12109375 663.063476562 c 0
 446.309570312 643.436523438 448.788085938 625.640625 448.788085938 609.043945312 c 0
 448.788085938 527.461914062 380.115234375 471.680664062 380.115234375 399.975585938 c 0
 380.115234375 394.856445312 380.545898438 389.669921875 381.482421875 384.461914062 c 2
 384.44140625 368 l 1
 473.59375 368 l 1
 477.001953125 358.43359375 478.135742188 352.452148438 478.135742188 344.305664062 c 0
 478.135742188 283.208007812 354.09375 251 281.768554688 251 c 0
 229.8828125 251 184.794921875 259.700195312 173.600585938 275.838867188 c 1
 199.393554688 370.94921875 296.59375 461.796875 296.59375 591.40234375 c 0
 296.59375 636.38671875 282.338867188 755 196.979492188 755 c 2
 191.068359375 755 l 1
 142.975231088 731.312883078 129.061523438 684.721077896 129.061523438 635.970703125 c 0
 129.061523438 594.444335938 138.19921875 545.993164062 145.147460938 503.951171875 c 1
232.513671875 27 m 0
 212.025390625 27 196.802734375 37.0498046875 191.85546875 53.7822265625 c 0
 187.725585938 67.7470703125 185.94921875 80.4189453125 185.94921875 91.857421875 c 0
 185.94921875 150.139648438 233.955078125 186.73046875 289.283203125 187 c 0
 309.184570312 187 320.334960938 179.911132812 324.677734375 165.22265625 c 0
 329.891601562 147.935546875 332.291015625 132.334960938 332.291015625 118.545898438 c 0
 332.291015625 61.400390625 294.231445312 27.177734375 232.513671875 27 c 0
EndSplineSet
EndChar

StartChar: A
Encoding: 65 65 20
Width: 723
Flags: HW
LayerCount: 2
Fore
SplineSet
318.430664062 502.28515625 m 2
 294.568359375 522.8984375 l 1
 281.514648438 495.826171875 l 2
 257.801757812 446.654296875 221.7421875 351.77734375 221.7421875 295.89453125 c 0
 221.7421875 263.912109375 264.290039062 261 270.618164062 261 c 2
 426.59765625 261 l 1
 416.275390625 287.482421875 l 2
 392.418945312 348.692382812 361.831054688 464.795898438 318.430664062 502.28515625 c 2
437.684570312 198.180664062 m 2
 393.759765625 198.180664062 376.545898438 176 353.846679688 176 c 0
 316.270507812 176 278.091796875 179 237.2265625 179 c 0
 186.752929688 179 187.54296875 135.4609375 186.416992188 131.610351562 c 0
 164.08984375 54.6484375 147.314453125 24.9921875 72.0234375 24.9921875 c 0
 43.06640625 24.9921875 42.349609375 25.455078125 42.349609375 38.6513671875 c 0
 42.349609375 66.0625 99.443359375 105.287109375 99.443359375 152.192382812 c 0
 99.443359375 189.166992188 51.0947265625 202.029296875 44.6044921875 205.626953125 c 1
 43.48046875 210.08984375 43.34375 211.797851562 43.34375 214.990234375 c 0
 43.34375 241.81640625 82.2978515625 273.139648438 117.967773438 273.139648438 c 0
 119.413083213 273.139648438 121.755584738 272.961655545 124.599530996 272.961655545 c 0
 133.293927484 272.961655545 148.441967517 274.763589447 154.274414062 289.955078125 c 0
 196.795283355 404.946385031 216.159438165 526.073529622 260.01953125 638.717773438 c 1
 252.918036969 659.703374633 236.186608516 678.628354388 224.352539062 691.760742188 c 1
 240.0390625 694.000976562 257.571289062 695.083984375 277.0234375 695.083984375 c 0
 284.865234375 695.083984375 291.822265625 695 297.209960938 695 c 0
 440.534179688 695 459.895507812 484.787109375 551.233398438 295.610351562 c 1
 590.765625 210.099609375 670.143554688 119.725585938 687.524414062 63.5546875 c 0
 688.309570312 60.9208984375 688.685546875 58.0986328125 688.685546875 56.3505859375 c 0
 688.685546875 40.537109375 647.73828125 23.9072265625 603.396484375 23.9072265625 c 0
 538.8046875 23.9072265625 516.341796875 122.166992188 455.6640625 190.428710938 c 2
 448.831054688 198.180664062 l 1
 437.684570312 198.180664062 l 2
EndSplineSet
EndChar

StartChar: B
Encoding: 66 66 21
Width: 552
Flags: W
HStem: -11 67<163.072 333.389> 394 3<206.731 216.301> 663 49<202.01 305.29>
VStem: 55.5215 122.021<194.11 393.63> 344.794 3.13028<413.716 554.089> 401.796 111.302<127.589 294.782>
LayerCount: 2
Fore
SplineSet
228.182617188 -11 m 0
 178.686299028 -11 115.149915203 12.3779193027 113.368164062 31.8583984375 c 0
 113.607421875 34.6474609375 130.236328125 51.353515625 130.236328125 78.91015625 c 0
 130.236328125 83.5810546875 129.528320312 88.3427734375 128.1171875 93.0751953125 c 2
 123.985351562 106.927734375 l 1
 110 107.647460938 l 2
 72.0673828125 109.598632812 67.6826171875 110.2265625 60.5927734375 130.888671875 c 1
 56.5439453125 164.681640625 55.521484375 187.278320312 55.521484375 216.197265625 c 0
 55.521484375 341.813476562 86.6767578125 457.821289062 95.9287109375 578.826171875 c 2
 97.63671875 601.172851562 l 1
 75.9912109375 601.172851562 l 2
 62.9541015625 601.172851562 49.6025390625 596.071289062 42.1748046875 592.991210938 c 1
 40.5078125 599.569335938 39.9296875 604.03515625 39.9296875 609.499023438 c 0
 39.9296875 673.81640625 165.475585938 712 255.93359375 712 c 0
 317.466796875 712 422.35546875 687.374023438 442.986328125 618.1875 c 0
 448.017578125 601.317382812 450.086914062 586.223632812 450.086914062 572.58203125 c 0
 450.086914062 490.593050151 347.924223579 449.554080182 347.924223579 413.715509754 c 0
 347.924223579 411.980163857 348.163755321 410.257010871 348.666015625 408.541992188 c 0
 357.017578125 376.299804688 473.942382812 350.4140625 503.500976562 284.471679688 c 1
 509.98828125 262.717773438 513.09765625 241.022460938 513.09765625 219.806640625 c 0
 513.09765625 99.7685546875 412.541015625 -11 228.182617188 -11 c 0
177.786132812 394 m 1
 177.541992188 373.5234375 l 2
 176.649414062 282.284179688 160.564453125 189.130859375 131.885742188 117.415039062 c 1
 125.485351562 102.155273438 l 1
 138.4921875 92.4794921875 l 1
 170.84765625 66.4404296875 224.28125 56 266.29296875 56 c 0
 347.935546875 56 401.795898438 131.8125 401.795898438 211.015625 c 0
 401.795898438 229.462890625 398.853515625 248.458984375 392.564453125 267.3203125 c 0
 357.673021895 368.172269178 277.394828696 370.49936797 213.284179688 394 c 1
 177.786132812 394 l 1
179.831054688 424.848632812 m 1
 186.421698829 403.79362152 204.734271252 397 216.493164062 397 c 0
 293.01171875 397 344.793945312 486.92578125 344.793945312 554.088867188 c 0
 344.793945312 612.650390625 306.94140625 663 245.612304688 663 c 0
 195.291015625 663 195.599609375 626.591796875 194.59765625 603.735351562 c 0
 190.418304991 545.598763633 181.923597622 486.605025958 179.831054688 424.848632812 c 1
EndSplineSet
EndChar

StartChar: C
Encoding: 67 67 22
Width: 591
Flags: HW
LayerCount: 2
Back
SplineSet
205.578125 -8.2431640625 m 4
 103.750976562 5.849609375 36.65625 102.078125 52.9619140625 221.500976562 c 4
 82.623046875 437.064453125 353.388671875 712 545.009765625 712 c 4
 552.880859375 712 560.388671875 711.490234375 567.5078125 710.489257812 c 4
 629.223632812 701.810546875 663.434570312 656.58203125 652.059570312 578.702148438 c 4
 631.274414062 432.216796875 475.327148438 244 373.430664062 244 c 4
 359.567382812 244 353.393554688 247.372070312 355.86328125 264.291015625 c 5
 358.33984375 282.953125 397.3125 320.084960938 411.734375 346.545898438 c 4
 450.956054688 418.080078125 491.998046875 527.401367188 502.81640625 608.248046875 c 5
 504.696289062 619.8359375 504.10546875 631 489.24609375 631 c 4
 469.232421875 631 448.389648438 605.651367188 437.244140625 594.950195312 c 5
 336.120117188 492.112304688 263.68359375 348.620117188 244.032226562 204.538085938 c 4
 242.001953125 188.580078125 239.555664062 172.280273438 239.498046875 157.48046875 c 4
 239.388671875 129.627929688 249.197265625 106 285.838867188 106 c 4
 398.385742188 106 548.141601562 250 587.009765625 250 c 4
 593.184570312 250 598.452148438 247.068359375 597.06640625 238.754882812 c 5
 592.349609375 204.791015625 546.66796875 131.890625 518.216796875 107.814453125 c 5
 462.9375 58.849609375 299.38671875 -10 231.337890625 -10 c 4
 222.515625 -10 213.920898438 -9.40234375 205.578125 -8.2431640625 c 4
EndSplineSet
Fore
SplineSet
283.885742188 -10 m 0
 148.378273476 -10 43.5595703125 127.893026363 43.5595703125 291.963867188 c 0
 43.5595703125 507.852539062 210.759765625 712 376.572265625 712 c 0
 434.89453125 712 478.264648438 680.983398438 497.078125 621.313476562 c 0
 504.962890625 596.305664062 508.57421875 570.03515625 508.57421875 543.545898438 c 0
 508.57421875 407.704101562 416.846679688 285.28515625 351.711914062 284.008789062 c 1
 373.995117188 351.100585938 401.752929688 437.237304688 401.752929688 531.06640625 c 0
 401.752929688 567.958984375 397.296875 605.108398438 385.661132812 642.081054688 c 0
 381.1015625 655.500976562 368.249023438 671 344.005859375 671 c 0
 252.163085938 671 198.993164062 420.67578125 198.993164062 263.587890625 c 0
 198.993164062 192.286132812 207.953125 66 303.203125 66 c 0
 414.250976562 66 511.2109375 174.979492188 550.37109375 203.4765625 c 1
 552.817382812 194.651367188 553.56640625 188.806640625 553.56640625 180.359375 c 0
 553.56640625 87.75 398.252929688 -10 283.885742188 -10 c 0
EndSplineSet
EndChar

StartChar: D
Encoding: 68 68 23
Width: 697
Flags: HW
LayerCount: 2
Fore
SplineSet
266.649414062 243.169921875 m 0
 266.649414062 185.455289856 259.25159074 137.492139543 241.045898438 99.5732421875 c 1
 243.483398438 92.5859375 l 2
 250.203424097 73.3225179592 267.493802276 70.1412943092 279.173756944 70.1412943092 c 0
 284.934027926 70.1412943092 289.329718409 70.9150390625 290.419921875 70.9150390625 c 0
 457.798828125 70.9150390625 544.444335938 175.7265625 544.444335938 307.563476562 c 0
 544.444335938 347.782226562 536.48828125 390.568359375 521.26171875 434.21484375 c 0
 496.4140625 505.431640625 408.919921875 629.291015625 340.59375 629.291015625 c 2
 331.682617188 629.291015625 l 1
 325.166015625 623.91796875 l 2
 269.467773438 577.978515625 260.579101562 502.684570312 260.579101562 425.7265625 c 0
 260.579101562 365.615234375 266.649414062 301.62109375 266.649414062 243.169921875 c 0
111.361328125 88.37890625 m 1
 132.040727559 261.198612829 121.855892167 445.212760824 176.828125 581.48046875 c 1
 166.532226562 611 l 1
 151.213867188 611 l 2
 107.2578125 611 68.5869140625 587.122070312 43.94921875 581.541015625 c 1
 41.0986328125 590.939453125 39.9296875 597.463867188 39.9296875 604.216796875 c 0
 39.9296875 671.70703125 188.987304688 695 317.73828125 695 c 0
 484.185546875 695 593.6171875 636.307617188 635.869140625 502.302734375 c 0
 651.000976562 454.310546875 657.953125 408.829101562 657.953125 366.555664062 c 0
 657.953125 174.821289062 511.958007812 44 297.267578125 44 c 0
 220.094726562 44 126.4921875 60.2255859375 111.361328125 88.37890625 c 1
EndSplineSet
EndChar

StartChar: E
Encoding: 69 69 24
Width: 604
Flags: HW
LayerCount: 2
Fore
SplineSet
562.880859375 187.456054688 m 1
 566.55078125 174.555664062 567.333984375 166.1015625 567.333984375 155.959960938 c 0
 567.333984375 56.3515625 409.296875 3.5703125 298.065429688 -11.9912109375 c 1
 157.091796875 -10.103515625 43.5595703125 105.315429688 43.5595703125 272.412109375 c 0
 43.5595703125 485.07421875 218.094726562 713 370.112304688 713 c 0
 440.418945312 713 511.024414062 659.615234375 511.024414062 576.370117188 c 0
 511.024414062 498.541992188 437.194335938 439.922851562 373.228515625 429.87109375 c 1
 394.555664062 475.548828125 421.921875 529.932617188 421.921875 594.939453125 c 0
 421.921875 630.848632812 414.099609375 659.861328125 387.612304688 682.212890625 c 2
 380.521484375 688.1953125 l 1
 370.874023438 687.528320312 l 2
 265.396484375 680.01171875 194.669921875 521.379882812 194.669921875 414.048828125 c 0
 194.669921875 393.883789062 197.09765625 374.499023438 202.782226562 356.772460938 c 2
 207.518554688 342 l 1
 503.356445312 342 l 2
 509.014648438 342 511.252929688 339.328125 511.775390625 338.557617188 c 0
 510.395507812 318.026367188 459.317382812 253 426.186523438 253 c 2
 243.708984375 253 l 2
 219.608398438 253 215.57421875 230.364257812 215.57421875 222.947265625 c 0
 215.57421875 206.653320312 223.53515625 188.291015625 224.287109375 185.77734375 c 0
 239.1171875 136.286132812 274.80078125 67 337.901367188 67 c 0
 445.692382812 67 507.901367188 173.4375 562.880859375 187.456054688 c 1
EndSplineSet
EndChar

StartChar: F
Encoding: 70 70 25
Width: 426
Flags: HW
LayerCount: 2
Fore
SplineSet
82.2578125 59.7353515625 m 1
 83.8950595947 234.446254862 119.627929195 379.436502829 138.350585938 549.333007812 c 1
 137.107421875 553.45703125 l 2
 123.76953125 597.6953125 47.2763671875 590.138671875 39.9267578125 597.145507812 c 1
 40.30859375 636.685546875 71.3974609375 696.005859375 120.815429688 696.005859375 c 0
 121.176757812 696.005859375 121.272460938 696.005859375 121.790039062 696 c 0
 162.311523438 696 207.8125 686.866210938 255.3359375 686.866210938 c 2
 279.013671875 686.866210938 l 2
 328.307617188 686.866210938 352.135742188 678.815429688 352.135742188 637.232421875 c 0
 352.135742188 597.5546875 298.814453125 626.897460938 248.706054688 579.783203125 c 0
 226.040039062 557.955078125 224.200195312 523.65625 224.200195312 493.23046875 c 0
 224.200195312 467.028320312 226.42578125 439.430664062 226.42578125 415.081054688 c 0
 226.42578125 401.370577483 225.514042972 389.637242898 223.961914062 378.602539062 c 1
 226.791090198 368.340665961 225.456321225 339 254.145507812 339 c 0
 285.991210938 339 318.791015625 342 349.491210938 342 c 0
 386.773868476 342 388.799804688 340.576480261 388.799804688 318.806640625 c 0
 388.799804688 284.09765625 368.814453125 256.000976562 362.26171875 256.000976562 c 0
 351.448242188 256.000976562 325.955078125 257 299.831054688 257 c 0
 296.748046875 257 293.5625 257.006835938 290.3203125 257.006835938 c 0
 282.470228813 257.006835938 275.99049063 257.650713216 266.424383758 257.650713216 c 0
 242.314068574 257.650713216 207.870855177 254.017642235 206.477539062 227.698242188 c 0
 203.385742188 145.64453125 183.650390625 24 134.4765625 24 c 0
 112.235351562 24 90.107421875 41.4541015625 82.2578125 59.7353515625 c 1
EndSplineSet
EndChar

StartChar: G
Encoding: 71 71 26
Width: 561
Flags: HW
LayerCount: 2
Fore
SplineSet
474.116210938 644.353515625 m 0
 479.376953125 627.665039062 481.750976562 611.557617188 481.750976562 596.35546875 c 0
 481.750976562 529.670898438 436.807617188 483.208007812 387.05078125 477.563476562 c 1
 386.947265625 478.923828125 386.9609375 479.059570312 386.9609375 480.301757812 c 0
 386.9609375 490.703125 402.700195312 512.168945312 402.700195312 556.638671875 c 0
 402.700195312 558.122070312 405.350585938 672 348.06640625 672 c 0
 246.02734375 672 176.114257812 460.907226562 176.114257812 319.809570312 c 0
 176.114257812 287.33203125 179.7421875 256.4296875 188.40625 229.110351562 c 0
 199.787109375 193.233398438 227.185546875 138.895507812 286.255859375 138.895507812 c 2
 292.3828125 138.895507812 l 1
 297.609375 141.897460938 l 1
 411.138671875 208.86328125 368.915039062 368.848632812 517.754882812 368.848632812 c 0
 519.248046875 368.848632812 519.630859375 368.828125 519.630859375 368.828125 c 1
 509.736328125 141.39453125 528.8046875 -152 322.770507812 -152 c 0
 271.149414062 -152 191.912109375 -116.834960938 182.984375 -90.0537109375 c 0
 182.501953125 -88.6083984375 182.297851562 -87.3291015625 182.297851562 -85.748046875 c 0
 182.297851562 -67.4404296875 223.854492188 -37.041015625 239.623046875 -30.0439453125 c 1
 254.846679688 -45.76953125 300.098632812 -113 348.836914062 -113 c 2
 354.223632812 -113 l 1
 359.08203125 -110.6640625 l 2
 390.3671875 -94.8642578125 393.064453125 -11.15234375 393.064453125 41.0185546875 c 0
 393.064453125 69.9384765625 393.268554688 103.490234375 372.431640625 120.237304688 c 2
 366.319335938 125.141601562 l 1
 358.288085938 125.141601562 l 2
 268.897460938 125.141601562 247.231445312 38.9091796875 207.861328125 38.9091796875 c 0
 109.216796875 38.9091796875 43.5595703125 165.209960938 43.5595703125 301.487304688 c 0
 43.5595703125 516.079101562 204.997070312 712 362.958984375 712 c 0
 419.3671875 712 458.79296875 692.950195312 474.116210938 644.353515625 c 0
EndSplineSet
EndChar

StartChar: H
Encoding: 72 72 27
Width: 703
Flags: HW
LayerCount: 2
Fore
SplineSet
399.9609375 251.936523438 m 0
 347.662109375 251.936523438 290.051757812 255 235.407226562 255 c 2
 221.641601562 255 l 1
 215.279296875 243.71875 l 1
 163.58203125 139.875 224.067382812 -5 142.966796875 -5 c 0
 97.05859375 -5 64.9951171875 14.05859375 64.9951171875 65.7001953125 c 0
 64.9951171875 94.0283203125 76.7197265625 126.887695312 76.7197265625 164.434570312 c 0
 76.7197265625 178.098632812 74.923828125 192.483398438 69.8564453125 207.06640625 c 0
 57.6259765625 242.247070312 29.537109375 243.629882812 28.583984375 246.373046875 c 0
 24.99609375 256.698242188 23.7158203125 265.080078125 23.7158203125 272.359375 c 0
 23.7158203125 308.756835938 78.013671875 336.497070312 78.013671875 404.377929688 c 0
 78.013671875 428.349609375 76.521484375 461.557617188 76.521484375 497.927734375 c 0
 76.521484375 607.8515625 93.0302734375 708 151.708007812 708 c 0
 183.30078125 708 202.818359375 697.19140625 216.026367188 663.051757812 c 0
 224.469726562 641.229492188 227.491210938 622.0390625 227.491210938 603.7890625 c 0
 227.491210938 549.890625 196.358398438 500.58203125 196.358398438 434.04296875 c 0
 196.358398438 412.37109375 200.099609375 389.184570312 209.720703125 364.315429688 c 0
 213.698242188 354.037109375 224.283203125 340 244.301757812 340 c 0
 278.387695312 340 326.7265625 328.354492188 370.3828125 328.354492188 c 0
 469.809570312 329.009765625 472.399414062 429.146484375 472.399414062 503.966796875 c 0
 472.399414062 519.303710938 472.232421875 534.74609375 472.232421875 549.869140625 c 0
 472.232421875 641.965820312 479.624023438 697 530.186523438 697 c 0
 557.465820312 697 580.793945312 682.522460938 590.4765625 654.639648438 c 0
 596.569335938 637.091796875 598.889648438 620.655273438 598.889648438 604.3125 c 0
 598.889648438 547.987304688 566.501953125 491.018554688 566.501953125 422.895507812 c 0
 566.501953125 404.46484375 569.194335938 385.276367188 575.995117188 365.696289062 c 0
 595.510742188 309.469726562 644.274414062 344.428710938 644.274414062 318.1875 c 0
 644.274414062 283.015625 605.133789062 237.338867188 583.758789062 233.16015625 c 2
 570.052734375 230.481445312 l 1
 567.7421875 216.22265625 l 2
 550.205078125 108.004882812 564.63671875 -7 470.834960938 -7 c 0
 439.14453125 -7 426.633789062 21.046875 426.633789062 77.677734375 c 0
 426.633789062 124.998046875 436.828125 177.225585938 436.828125 206.798828125 c 0
 436.828125 212.16796875 436.333984375 217.42578125 435.21484375 222.4609375 c 0
 435.161132812 222.73046875 429.845703125 251.936523438 399.9609375 251.936523438 c 0
EndSplineSet
EndChar

StartChar: I
Encoding: 73 73 28
Width: 469
Flags: W
HStem: -10 21G<204.981 280.938> 594.469 54.5312<164.692 292.527>
VStem: 295.09 138.321<351.589 592.473>
LayerCount: 2
Fore
SplineSet
279.546875 649 m 2
 314.138671875 649 411.05078125 628.977539062 432.098632812 618.747070312 c 1
 433.125 597.873046875 433.411132812 584.046875 433.411132812 565.920898438 c 0
 433.411132812 395.126953125 392.181640625 254.119140625 351.731445312 105.958984375 c 0
 331.677734375 32.5048828125 310.33203125 -10 251.543945312 -10 c 0
 158.418945312 -10 61.3603515625 52.12109375 61.3603515625 160.774414062 c 0
 61.3603515625 191.059570312 69.4130859375 211.938476562 74.1884765625 219.025390625 c 1
 125.2734375 188.893554688 150.481445312 86.966796875 215.982421875 46.140625 c 2
 239.166015625 31.9404296875 l 1
 247.13671875 57.1865234375 l 2
 281.264648438 165.272460938 295.08984375 340.284179688 295.08984375 487.713867188 c 0
 295.08984375 518.234375 294.478515625 547.555664062 293.29296875 574.8359375 c 2
 292.52734375 592.47265625 l 1
 274.205078125 593.931640625 l 2
 269.619140625 594.296875 265.095703125 594.46875 260.639648438 594.46875 c 0
 174.875 594.46875 116.876953125 538.51953125 56.9833984375 537.997070312 c 0
 53.5869140625 538.8984375 39.9296875 553.520507812 39.9296875 574.1015625 c 0
 39.9296875 613.129882812 90.0322265625 649 148.092773438 649 c 2
 279.546875 649 l 2
EndSplineSet
EndChar

StartChar: J
Encoding: 74 74 29
Width: 377
Flags: HW
LayerCount: 2
Fore
SplineSet
211.809570312 618.579101562 m 2
 209.053710938 636.0078125 l 1
 192.075195312 636.0078125 l 2
 139.78515625 636.0078125 104.080078125 599.9609375 71.33203125 599.9609375 c 0
 53.828125 599.9609375 47.1220703125 604.623046875 44.6171875 612.680664062 c 0
 41.3115234375 623.3203125 39.9296875 632.438476562 39.9296875 640.096679688 c 0
 39.9296875 680.750976562 84.9521484375 704.079101562 175.177734375 704.079101562 c 0
 187.071289062 704.079101562 199.978515625 704 213.9296875 704 c 0
 265.29296875 704 328.119140625 688.600585938 338.02734375 673.236328125 c 1
 339.391601562 642.15625 339.834960938 619.797851562 339.834960938 592.055664062 c 0
 339.834960938 435.606445312 319.776367188 294.984375 293.983398438 150.671875 c 0
 278.984375 66.7392578125 249.647460938 -50 193.223632812 -50 c 0
 165.098632812 -50 118.361328125 12.9189453125 100.486328125 69.6064453125 c 0
 92.5634765625 94.736328125 87.982421875 122.723632812 87.982421875 148.03515625 c 0
 87.982421875 200.31640625 105.33984375 227.346679688 132.477539062 230.58984375 c 1
 144.174804688 193.494140625 145.234375 162.1171875 145.234375 128.428710938 c 0
 145.234375 121.447265625 145.1875 114.379882812 145.1875 107.182617188 c 0
 145.1875 78.3502624209 146.095578705 46.82029932 153.986328125 11.6630859375 c 0
 156.727606855 2.95611250118 164.565061522 -15 185.575195312 -15 c 2
 201.231445312 -15 l 1
 204.989257812 0.80859375 l 2
 226.637695312 91.85546875 236.142578125 198.473632812 236.142578125 307.936523438 c 0
 236.142578125 412.6640625 227.400390625 519.999023438 211.809570312 618.579101562 c 2
EndSplineSet
EndChar

StartChar: K
Encoding: 75 75 30
Width: 656
Flags: HW
LayerCount: 2
Fore
SplineSet
527.171875 -13 m 0
 477.092773438 -13 419.342773438 14.3857421875 369.962890625 60.5927734375 c 0
 315.55078125 110.771484375 250.065429688 340.383789062 205.794921875 340.383789062 c 2
 192.697265625 340.383789062 l 1
 186.270507812 329.984375 l 1
 122.498046875 211.243164062 180.814453125 41.884765625 56.890625 21.4453125 c 1
 45.166015625 22.6640625 43.41796875 27.40234375 40.576171875 34.4267578125 c 1
 39.25390625 71.4140625 38.720703125 104.150390625 38.720703125 138.41015625 c 0
 38.720703125 291.174804688 50.50390625 431.092773438 63.91796875 579.274414062 c 0
 72.494140625 674.040039062 76.9609375 714 156.173828125 714 c 0
 180.02734375 714 191.35546875 709.541992188 196.094726562 697.801757812 c 0
 202.32421875 682.372070312 204.813476562 665.858398438 204.813476562 648.138671875 c 0
 204.813476562 596.786132812 181.955078125 536.796875 181.955078125 477.336914062 c 0
 181.955078125 469.926757812 182.337890625 462.49609375 183.221679688 455.076171875 c 2
 188.34765625 411.981445312 l 1
 221.88671875 443.411132812 l 2
 309.130859375 525.169921875 378.770507812 699.819335938 496.203125 699.819335938 c 0
 513.513671875 699.798828125 511.008789062 700.921875 514.278320312 691.90234375 c 0
 517.234375 683.509765625 518.44921875 675.9765625 518.44921875 668.763671875 c 0
 518.44921875 589.842773438 348.184570312 538.086914062 311.71484375 434.091796875 c 2
 309.376953125 427.421875 l 1
 312.618360738 418.918670204 317.113992351 409.075893531 319.858398438 401.880859375 c 0
 380.499023438 243.551757812 504.78515625 111.150390625 617.272460938 33.8740234375 c 1
 606.288085938 16.6728515625 550.194335938 -13 527.171875 -13 c 0
EndSplineSet
EndChar

StartChar: L
Encoding: 76 76 31
Width: 349
Flags: HW
LayerCount: 2
Fore
SplineSet
125.387695312 700.149414062 m 0
 132.899045945 700.149414062 142.151033031 698.879507157 150.829101562 697 c 1
 152.973632812 697 l 2
 158.257062435 697 162.597789075 697.066873977 166.203726395 697.066873977 c 0
 181.963041828 697.066873977 183.687720236 695.789566364 188.733398438 682.0703125 c 0
 200.13671875 651.05859375 204.618164062 621.82421875 204.618164062 593.208007812 c 0
 204.618164062 480.760742188 128.818359375 375.240234375 128.818359375 247.698242188 c 0
 128.818359375 215.954101562 133.890625 182.974609375 146.42578125 148.885742188 c 0
 154.033203125 128.193359375 172.959960938 117.55859375 188.805664062 117.55859375 c 0
 190.981445312 117.55859375 193.372070312 117.767578125 195.868164062 118.357421875 c 2
 300.73828125 143.098632812 l 1
 304.937900172 137.768608538 304.366210938 136.376768353 304.366210938 130.891601562 c 0
 304.366210938 71.0244140625 247.111328125 46 127.068359375 46 c 0
 87.158203125 46 54.5419921875 58.1318359375 44.357421875 77.0283203125 c 1
 44.6103515625 83.287109375 44.576171875 84.0693359375 44.576171875 88.84375 c 0
 44.576171875 160.321289062 24.341796875 307.852539062 24.341796875 442.225585938 c 0
 24.341796875 594.213867188 51.7646484375 700.149414062 125.387695312 700.149414062 c 0
EndSplineSet
EndChar

StartChar: M
Encoding: 77 77 32
Width: 1139
Flags: HW
LayerCount: 2
Fore
SplineSet
40.458984375 47.046875 m 1
 128.45911975 239.899849448 187.395800988 440.682731671 247.99609375 649.11328125 c 1
 241.506752159 666.859246861 230.223572533 680.355396442 219.452148438 689.600585938 c 1
 241.599609375 694.928710938 270.448242188 698 282.810546875 698 c 0
 364.452148438 698 411.08984375 628.90625 441.061523438 546.924804688 c 0
 456.223632812 505.44921875 476.244140625 442.686523438 496.041992188 388.54296875 c 0
 512.555664062 343.372070312 530.358398438 264 582.278320312 264 c 2
 598.6328125 264 l 1
 604.274414062 277.100585938 l 2
 658.405273438 402.786132812 672.19140625 555.251953125 735.251953125 664.833984375 c 0
 750.090820312 690.62109375 807.736328125 698 858.416992188 698 c 0
 864.648941916 698 868.522909278 698.238512663 871.040175489 698.238512663 c 0
 875.580942282 698.238512663 875.707180866 697.462423634 877.295898438 693.110351562 c 0
 917.939453125 581.942382812 927.268554688 437.919921875 974.2890625 309.303710938 c 1
 999.528320312 231.401367188 1038.15234375 158.473632812 1099.45117188 104.5 c 1
 1091.01855469 85.2255859375 1044.6953125 49 1030.07617188 49 c 0
 945.510742188 49 860.9609375 145.836914062 828.987304688 233.294921875 c 0
 813.267974246 276.2939344 802.676307821 323.405429099 789.922851562 371.759765625 c 1
 784.917663977 385.427777877 781.745120993 402.262762756 776.146484375 417.568359375 c 0
 771.268554688 430.934570312 756.06640625 442.053710938 754.401367188 443.408203125 c 2
 726.235351562 476.286132812 l 1
 598.557617188 86.1181640625 l 1
 579.702148438 53.0966796875 576.416992188 46.787109375 567.162109375 44.494140625 c 1
 477.32421875 85.1787109375 418.64453125 210.668945312 380.087890625 312.114257812 c 0
 368.479492188 343.865234375 362.08984375 375.650390625 349.418945312 410.318359375 c 0
 340.637695312 434.325195312 327.45703125 453.247070312 322.446289062 466.95703125 c 2
 309.245117188 503.073242188 l 1
 281.709960938 473.423828125 l 2
 181.603515625 365.631835938 227.059570312 47.7998046875 45.779296875 46 c 0
 44.541015625 46 41.765625 46.638671875 40.458984375 47.046875 c 1
EndSplineSet
EndChar

StartChar: N
Encoding: 78 78 33
Width: 705
Flags: HW
LayerCount: 2
Back
SplineSet
42.0244140625 -10 m 4
 30.4682662768 -10 23.4694906897 -4.62209512157 23.4694906897 6.86766471452 c 4
 23.4694906897 8.62557843539 23.6333213864 10.5265613893 23.9697265625 12.5732421875 c 4
 25.72265625 25.904296875 35.650390625 36.0673828125 44.2060546875 49.08203125 c 5
 102.49609375 140.809570312 146.438449296 235.163085938 193.654744907 330.506835938 c 5
 237.891749027 423.765625 286.046396599 514.958007812 330.37848449 608.416015625 c 4
 330.732887637 609.163085938 l 5
 330.837575829 609.98828125 l 4
 334.411185409 638.238994219 301.232490264 645.125358513 301.232490264 658.401074671 c 4
 301.232490264 686.717478076 411.224639772 708 438.079583754 708 c 4
 508.24180232 708 511.845381196 668.630859375 518.771129404 617.3203125 c 4
 518.8325977 616.869140625 l 5
 518.972822252 616.436523438 l 4
 544.923968636 536.297851562 530.008302339 399.564453125 577.415725934 316.490234375 c 4
 578.640289651 314.345703125 l 5
 581.059643379 314.0390625 l 4
 591.181743 312.751953125 595.626669183 318.272460938 599.529906004 324.2265625 c 4
 599.761372557 324.579101562 l 5
 599.930410373 324.965820312 l 4
 661.076958654 464.600585938 704.99701687 702 843.024414062 702 c 4
 855.14436447 702 859.263632565 696.285859653 859.263632565 684.395277555 c 4
 859.263632565 680.493807303 858.820156254 675.927387467 858.0703125 670.6796875 c 5
 853.205078125 633.701171875 836.537109375 600.2109375 820.486328125 565.099609375 c 4
 758.547851562 431.232421875 697.222237818 310.166992188 635.227619135 171.088867188 c 5
 627.427868588 154.09375 574.236662479 8 517.742495882 8 c 4
 472.086918734 8 422.716351423 177.151367188 412.35414127 218.2421875 c 5
 401.702838035 274.364257812 393.559249205 309.840820312 386.912989657 341.64453125 c 5
 385.9496662 360.229492188 379.425382803 450 364.317628079 450 c 4
 343.453943664 450 267.179471375 238.801757812 248.711129634 196.5703125 c 4
 206.224051078 100.034179688 150.087168953 -10 42.0244140625 -10 c 4
EndSplineSet
Fore
SplineSet
619.22265625 702.041992188 m 1
 626.294837797 683.294831602 629.609375 663.330040323 629.609375 645.311523438 c 0
 629.609375 625.649414062 626.538085938 605.518554688 624.842773438 583.090820312 c 0
 590.278320312 125.915039062 574.32421875 28 546.897460938 28 c 0
 458.766601562 28 247.4453125 470.165039062 200.030273438 470.165039062 c 0
 74.3544921875 470.165039062 200.65625 -3.0546875 42.9775390625 -10.0048828125 c 0
 40.7041015625 -9.9619140625 39.8388671875 -9.2705078125 39.6953125 -9.16796875 c 0
 75.4612924709 206.223147513 110.548510651 410.347093331 123.598632812 637.732421875 c 1
 114.492544789 663.952335916 94.961400973 676.848336051 82.7861328125 682.595703125 c 1
 104.395507812 693.533203125 155.6875 708.000976562 176.23828125 708.000976562 c 0
 337.356445312 708.000976562 413.38671875 294.0390625 492.744140625 294.0390625 c 0
 526.117903915 294.0390625 530.599192157 330.411323309 530.599192157 362.1625084 c 0
 530.599192157 373.819968035 529.995117188 384.854509433 529.995117188 393.237304688 c 0
 529.995117188 409.7265625 529.78125 427.795898438 529.78125 446.71875 c 0
 529.78125 574.739257812 542.721679688 702 616.98046875 702 c 0
 618.559570312 702 619.22265625 702.041992188 619.22265625 702.041992188 c 1
EndSplineSet
EndChar

StartChar: O
Encoding: 79 79 34
Width: 633
Flags: W
HStem: -9.94824 49.9482<294.109 411.84> 692 20G<306.414 408.147>
VStem: 43.5596 125.815<230.962 437.426> 511.216 80.6553<172.667 356.289>
LayerCount: 2
Fore
SplineSet
525.125976562 636 m 1
 510.919921875 636 l 2
 510.034179688 636.077148438 499.49609375 637.213867188 489.567382812 632.685546875 c 2
 432.170898438 605.133789062 l 1
 497.20703125 595.484375 l 2
 499.426757812 595.168945312 501.569335938 594.717773438 503.671875 594.131835938 c 2
 542.2890625 581.538085938 l 1
 525.125976562 636 l 1
482.123046875 568.049804688 m 1
 488.423617676 562.834655696 495.927763507 559.309630474 503.387791899 559.309630474 c 0
 510.016597442 559.309630474 515.695877759 561.275858599 518.455078125 562.606445312 c 1
 537.875976562 547.376953125 551.9921875 518.598632812 562.915039062 483.955078125 c 0
 582.232421875 420.192382812 591.87109375 358.901367188 591.87109375 303.0703125 c 0
 591.87109375 139.965820312 511.328125 23.8798828125 338.661132812 -9.9482421875 c 1
 206.176757812 -6.353515625 99.9443359375 52.8291015625 62.646484375 177.90625 c 0
 49.5517578125 221.817382812 43.5595703125 265.172851562 43.5595703125 307.120117188 c 0
 43.5595703125 527.622070312 211.959960938 707.436523438 400.8671875 712 c 0
 415.427734375 712 424.103515625 709.42578125 426.127929688 708.625 c 1
 416.813301355 695.55611643 372.398657054 671.04341378 352.271484375 665.698242188 c 1
 238.568641468 616.786171361 169.375 516.149826988 169.375 377.28515625 c 0
 169.375 323.65625 180.600585938 260.727539062 201.056640625 198.916015625 c 0
 224.92578125 124.512695312 279.217773438 40 359.641601562 40 c 0
 459.697265625 40 511.215820312 149.49609375 511.215820312 248.548828125 c 0
 511.215820312 281.5234375 505.51171875 315.430664062 493.368164062 347.291992188 c 0
 471.173828125 407.282226562 416.581054688 456.646484375 404.174804688 492.940429688 c 0
 403.737304688 494.221679688 403.526367188 495.438476562 403.526367188 497.032226562 c 0
 403.526367188 517.629882812 453.075195312 556.67578125 482.123046875 568.049804688 c 1
EndSplineSet
EndChar

StartChar: P
Encoding: 80 80 35
Width: 531
Flags: HW
LayerCount: 2
Fore
SplineSet
95.74609375 562.122070312 m 1
 91.1597608726 577.494375858 80.4564614948 590.457501762 66.806640625 600 c 1
 59.9384765625 600 l 2
 43.53125 600 17.8955078125 586.478515625 6.5703125 581.280273438 c 1
 0.884765625 589.87109375 0.673828125 591.26953125 0.673828125 600.100585938 c 0
 0.673828125 631.470703125 108.806640625 653 164.426757812 653 c 0
 286.64453125 653 402.341796875 606.446289062 444.4453125 491.948242188 c 0
 455.473632812 461.953125 460.442382812 432.134765625 460.442382812 403.458007812 c 0
 460.442382812 284.946289062 375.963867188 189.168945312 278.318359375 184.984375 c 1
 253.5078125 185.047851562 252.762695312 187.56640625 252.762695312 193.62109375 c 0
 252.762695312 197.439453125 265.748046875 200.87109375 287.865234375 223.486328125 c 0
 325.120117188 260.319335938 350.708007812 300.549804688 350.708007812 355.798828125 c 0
 350.708007812 387.415039062 342.62890625 422.810546875 326.509765625 465.846679688 c 0
 313.818359375 498.657226562 283.614257812 564 231.870117188 564 c 2
 217.021484375 564 l 1
 211.611328125 551.296875 l 1
 176.401367188 465.231445312 193.225585938 378.317382812 184.564453125 271.614257812 c 0
 183.228515625 255.061523438 182.961914062 237.76953125 182.961914062 220.196289062 c 0
 182.961914062 201.848632812 183.256835938 183.180664062 183.256835938 164.817382812 c 0
 183.256835938 63.6953125 175.803710938 -10 85.1650390625 -10 c 0
 77.1455078125 -10 71.9169921875 -4.283203125 67.2373046875 6.8603515625 c 1
 64.818359375 40.7158203125 63.98046875 68.8984375 63.98046875 99.755859375 c 0
 63.98046875 258.758825871 90.668416932 404.079379353 95.74609375 562.122070312 c 1
EndSplineSet
EndChar

StartChar: Q
Encoding: 81 81 36
Width: 726
Flags: HW
LayerCount: 2
Fore
SplineSet
621.28515625 375.423828125 m 0
 621.28515625 291.938476268 586.627878374 225.799198276 569.471679688 139.184570312 c 1
 570.91015625 134.163085938 l 2
 582.9609375 95.1318359375 670.956054688 76.845703125 690.063476562 70.857421875 c 1
 691.702148438 63.1796875 691.625 61.5458984375 691.625 54.169921875 c 0
 691.625 18.8671875 674.231445312 -8 650.788085938 -8 c 0
 612.8359375 -8 571.99609375 60 514.912109375 60 c 0
 434.734375 60 388.63671875 -10.03515625 330.2734375 -10.03515625 c 0
 200.388671875 -10.03515625 102.26171875 65.8330078125 65.2080078125 190.091796875 c 0
 50.4794921875 239.487304688 43.5595703125 288.049804688 43.5595703125 334.443359375 c 0
 43.5595703125 544.879882812 183.452148438 711 417.631835938 711 c 0
 455.8828125 711 467.408203125 706.875 467.408203125 697.9609375 c 0
 467.408203125 679.333984375 395.103515625 663.509765625 352.682617188 645.265625 c 1
 245.173828125 595.711914062 180.215820312 490.202148438 180.215820312 364.62890625 c 0
 180.215820312 231.388671875 250.579101562 69.45703125 398.161132812 69.45703125 c 0
 400.69140625 69.45703125 403.334960938 69.5361328125 405.672851562 69.6171875 c 0
 406.108741879 69.6171875 406.641162908 69.6151112341 407.260258922 69.6151112341 c 0
 420.034169648 69.6151112341 469.708007812 70.4990347797 469.708007812 108.743164062 c 0
 469.708007812 113.198242188 468.934570312 117.206054688 467.296875 121.923828125 c 0
 442.559570312 185.295898438 358.9375 217.8203125 326.227539062 237.52734375 c 0
 326.262695312 238.526367188 326.288085938 239.015625 326.288085938 240.015625 c 0
 326.288085938 242.502929688 329.82421875 248.047851562 366.473632812 248.047851562 c 0
 414.920898438 248.047851562 457.866210938 216.454101562 504.995117188 189.560546875 c 2
 529.995117188 175.295898438 l 1
 539.037109375 200.313476562 l 2
 545.944335938 219.430664062 549.318359375 238.657226562 549.318359375 258.713867188 c 0
 549.318359375 289.0859375 541.799804688 320.926757812 528.692382812 358.721679688 c 0
 506.473632812 422.796875 442.591796875 473.546875 430.462890625 508.518554688 c 0
 428.838867188 513.206054688 428.1640625 517.466796875 428.1640625 521.552734375 c 0
 428.1640625 553.005859375 478.415039062 583.680664062 514.741210938 584.34375 c 0
 558.21875 584.34375 585.795898438 540.668945312 604.177734375 481.547851562 c 0
 616.59765625 441.6015625 621.28515625 407.071289062 621.28515625 375.423828125 c 0
EndSplineSet
EndChar

StartChar: R
Encoding: 82 82 37
Width: 630
Flags: HW
LayerCount: 2
Fore
SplineSet
3.8701171875 637.583984375 m 0
 0.7021484375 646.19921875 -0.4619140625 653.133789062 -0.4619140625 658.514648438 c 0
 -0.4619140625 697.947265625 85.353515625 706.571289062 161.502929688 706.571289062 c 0
 163.470703125 706.571289062 165.40625 706.5703125 167.302734375 706.5703125 c 0
 308.659179688 706.5703125 437.559570312 632.122070312 475.397460938 516.623046875 c 0
 484.96484375 489.111328125 488.768554688 466.131835938 488.768554688 446.434570312 c 0
 488.768554688 369.473632812 432.583007812 333.280273438 384.995117188 280.413085938 c 2
 376.69140625 271.189453125 l 1
 380.6015625 258.887695312 l 2
 411.541992188 161.536132812 559.969726562 157.49609375 575.709960938 112.234375 c 0
 579.794921875 100.489257812 581.739257812 88.150390625 581.739257812 75.9228515625 c 0
 581.739257812 25.607421875 550.484375 -15 512.392578125 -15 c 0
 415.815429688 -15 273.999023438 210.44140625 249.196289062 275.291992188 c 0
 248.489257812 277.209960938 248.229492188 279.080078125 248.229492188 279.874023438 c 0
 248.229492188 293.837890625 299.1640625 291.932617188 331.46875 341.603515625 c 0
 353.28125 375.13671875 368.565429688 414.1640625 368.565429688 459.609375 c 0
 368.565429688 537.994140625 318.974609375 658 224.345703125 658 c 2
 207.8515625 658 l 1
 202.817382812 644.108398438 l 2
 187.611328125 602.147460938 185.041015625 555.427734375 185.041015625 508.487304688 c 0
 185.041015625 477.603515625 186.234375 446.498046875 186.234375 416.528320312 c 0
 186.234375 381.384693051 184.362902057 347.954013807 177.935546875 318.454101562 c 0
 177.763649861 313.268541629 177.662109375 308.036328508 177.662109375 302.346679688 c 0
 177.662109375 284.453125 178.392578125 263.48828125 178.392578125 241.249023438 c 0
 178.392578125 144.825195312 166.491210938 50.693359375 81.6259765625 50 c 0
 68.30078125 50 57.8701171875 58.591796875 52.3232421875 71.0009765625 c 1
 47.275390625 112.916015625 45.6767578125 146.295898438 45.6767578125 183.569335938 c 0
 45.6767578125 328.578915281 82.6305861778 460.273319231 82.6305861778 604.581449852 c 0
 82.6305861778 610.466925246 81.1004014619 639 51.4267578125 639 c 0
 31.677734375 639 14.8095703125 633 11.705078125 633 c 0
 3.6181640625 633 5.970703125 631.875976562 3.8701171875 637.583984375 c 0
EndSplineSet
EndChar

StartChar: S
Encoding: 83 83 38
Width: 431
Flags: HW
LayerCount: 2
Fore
SplineSet
296.727539062 94.828125 m 0
 296.727539062 114.454101562 291.111328125 134.973632812 285.001953125 153.252929688 c 0
 242.39453125 300.705078125 91.1787109375 350.083007812 53.390625 477.451171875 c 0
 46.5458984375 500.521484375 43.537109375 521.828125 43.537109375 541.397460938 c 0
 43.537109375 647.559570312 134.3046875 712 213.34765625 712 c 0
 291.055664062 712 359.893554688 671.818359375 359.893554688 583.733398438 c 0
 359.893554688 541.598632812 336.939453125 510.096679688 306.900390625 487.01171875 c 1
 301.549804688 511.602539062 303.79296875 536.967773438 290.150390625 572.884765625 c 0
 278.826171875 605.008789062 256.961914062 674 208.5078125 674 c 0
 168.979492188 674 165.944335938 622.092773438 165.944335938 596.965820312 c 0
 165.944335938 575.51953125 168.828125 552.959960938 173.993164062 534.051757812 c 0
 218.51953125 371.037109375 393.8125 351.577148438 393.8125 164.880859375 c 0
 393.8125 63.4267578125 332.455078125 -10 251.896484375 -10 c 0
 181.065429688 -9.5703125 68.7080078125 49.31640625 44.1083984375 127.333984375 c 0
 42.865234375 131.275390625 42.349609375 134.8828125 42.349609375 138.442382812 c 0
 42.349609375 166.59375 83.623046875 197 111.41796875 197 c 0
 145.407226562 197 149.015625 35 243.958007812 35 c 0
 282.698242188 35 296.727539062 68.5771484375 296.727539062 94.828125 c 0
EndSplineSet
EndChar

StartChar: T
Encoding: 84 84 39
Width: 426
Flags: HW
LayerCount: 2
Fore
SplineSet
295.896484375 534.197265625 m 1
 303.708984375 514.435546875 l 2
 307.90234375 503.833007812 309.25390625 478.7734375 309.25390625 457.05859375 c 0
 309.25390625 454.095703125 309.247070312 451.171875 309.247070312 448.315429688 c 0
 309.247070312 365.66015625 295.547851562 285.456054688 295.547851562 198.921875 c 0
 295.547851562 178.705078125 296.53125 158.525390625 296.53125 139.891601562 c 0
 296.53125 46.3623046875 282.82421875 -12 207.950195312 -12 c 0
 195.229492188 -12 173.069335938 2.7041015625 169.008789062 16.306640625 c 0
 160.052734375 46.18359375 156.3046875 73.7470703125 156.3046875 99.95703125 c 0
 156.3046875 213.569335938 229.002929688 307.853515625 229.002929688 430.823242188 c 0
 229.002929688 456.342773438 225.647460938 482.797851562 217.508789062 510.721679688 c 0
 215.505859375 517.44140625 207.481445312 533 188.66796875 533 c 0
 156.342773438 533 127.072265625 525 98.43359375 525 c 0
 57.970703125 525 41.140625 532.595703125 41.140625 567.645507812 c 0
 41.140625 609.872070312 85.3349609375 649.293945312 141.654296875 650.978515625 c 1
 173.318398449 644.965428395 199.863959013 644.852366436 229.107905544 644.852366436 c 2
 232.548828125 644.852539062 l 2
 238.0234375 644.852539062 243.470703125 644.874023438 248.86328125 644.874023438 c 0
 310.26171875 644.874023438 363.0859375 638.868164062 387.920898438 609.350585938 c 1
 391.873046875 595.71875 392.341796875 591.076171875 392.341796875 583.833984375 c 0
 392.341796875 557.237304688 369.767578125 558.34765625 316.092773438 540.80078125 c 2
 295.896484375 534.197265625 l 1
EndSplineSet
EndChar

StartChar: U
Encoding: 85 85 40
Width: 638
Flags: HW
LayerCount: 2
Fore
SplineSet
190.314453125 695 m 0
 221.332536789 695 222.484964761 676.066994824 222.484964761 650.638255763 c 0
 222.484964761 648.597050888 222.477539063 646.513990586 222.477539062 644.395507812 c 0
 222.477539062 542.6171875 172.000976562 450.627929688 172.000976562 335.140625 c 0
 172.000976562 300.881835938 176.59375 265.2265625 188.791992188 226.294921875 c 0
 192.2109375 216.3515625 201.189453125 198 224.431640625 198 c 2
 228.673828125 198 l 1
 232.619140625 199.385742188 l 2
 393.774414062 255.9765625 355.806640625 569.362304688 477.427734375 599.958007812 c 1
 495.985351562 599.266601562 497.228515625 597.659179688 501.1640625 585.173828125 c 0
 539.322265625 464.154296875 515.786132812 347.326171875 563.383789062 196.370117188 c 0
 575.805664062 156.973632812 592.934570312 121.172851562 603.413085938 87.9423828125 c 0
 604.787109375 83.5859375 605.256835938 80.115234375 605.256835938 77.3486328125 c 0
 605.256835938 60.0185546875 573.100585938 46 537.69140625 46 c 0
 502.216796875 46 452.962890625 103.952148438 432.41796875 163.666992188 c 0
 424.085737549 187.89478512 418.858364702 214.488019121 410.428710938 238.889648438 c 0
 403.079101562 260.225585938 379.202148438 261 375.676757812 261 c 2
 361.875 261 l 1
 355.68359375 249.981445312 l 2
 304.569335938 159.03125 271.82421875 48.990234375 171.612304688 48.990234375 c 0
 171.12890625 48.990234375 170.934570312 48.9912109375 170.234375 49 c 0
 121.299804688 49 82.4296875 88.7841796875 65.359375 142.91796875 c 0
 50.5302734375 189.951171875 44.7705078125 239.5546875 44.7705078125 289.885742188 c 0
 44.7705078125 401.737304688 73.5244140625 516.759765625 90.7412109375 611.98046875 c 0
 106.092773438 693.612304688 99.728515625 695 190.314453125 695 c 0
EndSplineSet
EndChar

StartChar: V
Encoding: 86 86 41
Width: 530
Flags: HW
LayerCount: 2
Fore
SplineSet
479.12109375 640.196289062 m 1
 491.363652512 613.319524129 493.9765625 573.151690931 493.9765625 533.631835938 c 0
 493.9765625 356.044921875 405.154296875 102.262695312 335.616210938 16.8505859375 c 0
 323.203125 1.43359375 272.948242188 -9 239.322265625 -9 c 0
 196.107421875 -9 123.206054688 214.896484375 87.5302734375 328.030273438 c 0
 61.9423828125 409.177734375 41.140625 486.34765625 41.140625 543.645507812 c 0
 41.140625 612.702148438 64.82421875 652 155.555664062 652 c 0
 166.680664062 652 172.12890625 647.4921875 173.813476562 641.28515625 c 0
 222.823242188 492.028320312 194.80859375 359.213867188 250.213867188 190.498046875 c 0
 258.72265625 164.579101562 273.674804688 123 312.75 123 c 2
 322.236328125 123 l 1
 328.643554688 129.461914062 l 2
 383.21484375 183.84765625 384.158203125 275.465820312 384.158203125 362.700195312 c 0
 384.158203125 377.447265625 384.075195312 392.200195312 384.075195312 406.795898438 c 0
 384.075195312 533.158203125 393.618164062 623.883789062 479.12109375 640.196289062 c 1
EndSplineSet
EndChar

StartChar: W
Encoding: 87 87 42
Width: 790
Flags: HW
LayerCount: 2
Fore
SplineSet
479.538085938 738.24609375 m 0
 311.798828125 738.24609375 305.4453125 370.474609375 276.634765625 258.7265625 c 1
 232.716796875 397.278320312 259.362304688 555.803710938 236.017578125 696.09375 c 1
 233.62333122 720.761748419 217.071192609 742.225179624 194.364257812 743.874023438 c 0
 184.455078125 745.182617188 173.684570312 745.948242188 164.223632812 745.948242188 c 0
 63.17578125 745.948242188 29.0400390625 666.03125 29.0400390625 570.077148438 c 0
 29.0400390625 430.065429688 103.192382812 228.307617188 128.520507812 93.0205078125 c 0
 128.728701595 91.5635407513 128.746145724 90.1832771692 129.088867188 89.0380859375 c 0
 142.567382812 41.720703125 165.514648438 -41 218.314453125 -41 c 0
 334.250976562 -41 368.803710938 155.153320312 395.489257812 236.0859375 c 1
 402.254882812 205.751953125 408.919921875 174.790039062 418.821289062 140.237304688 c 0
 443.717773438 51.8662109375 496.046875 -51 592.296875 -51 c 0
 774.3125 -51 833.6015625 260.412109375 833.6015625 421.537109375 c 0
 833.6015625 434.181640625 833.2109375 446.6640625 832.4921875 457.559570312 c 0
 831.185546875 480.404296875 819.69921875 598.510742188 797.48828125 671.096679688 c 1
 789.77734375 700.28125 778.59375 745.219726562 746.140625 745.219726562 c 2
 742.90625 745.219726562 l 1
 740.513671875 743.903320312 l 1
 673.83203125 723.921875 660.859375 650.736328125 660.859375 575.30859375 c 0
 660.859375 475.346679688 688.9921875 346.87109375 688.9921875 253.497070312 c 0
 688.9921875 184.19921875 676.0546875 144.0625 648.479492188 127.674804688 c 1
 631.60546875 142.474609375 598.470703125 188.995117188 593.58203125 204.204101562 c 0
 569.409179688 272.7265625 563.3828125 331.866210938 563.3828125 387.577148438 c 0
 563.3828125 442.5546875 569.8125 494.133789062 569.8125 547.111328125 c 0
 569.8125 592.584960938 565.115234375 639.491210938 550.641601562 688.479492188 c 1
 541.12306112 730.420412062 515.775025209 738.24609375 479.538085938 738.24609375 c 0
EndSplineSet
EndChar

StartChar: X
Encoding: 88 88 43
Width: 612
Flags: HW
LayerCount: 2
Fore
SplineSet
348.44921875 209.184570312 m 2
 342.077148438 219.745117188 l 1
 303.62109375 219.745117188 l 1
 296.94921875 211.67578125 l 2
 226.612304688 126.600585938 180.88671875 36.185546875 103.53515625 -6.912109375 c 1
 97.4296875 2.4248046875 91.7998046875 22.4736328125 91.7998046875 41.6796875 c 0
 91.7998046875 145.948242188 273.946289062 170.9921875 273.946289062 298.587890625 c 0
 273.946289062 312.127405531 270.754293938 327.176124071 266.1328125 341.15234375 c 1
 190.852508897 439.864265031 47.930526094 605.531157537 39.9296875 696.295898438 c 1
 55.6767578125 702.770507812 95.01171875 711 108.2578125 711 c 0
 215.65625 711 284.513671875 449.243164062 356.208984375 449.243164062 c 2
 362.78515625 449.243164062 l 1
 368.298828125 452.48828125 l 2
 448.28125 499.541015625 437.21484375 674.368164062 521.247070312 674.368164062 c 0
 523.29296875 674.368164062 526.189453125 674.1640625 527.919921875 673.98828125 c 1
 517.48828125 555.620117188 417.340820312 479.66015625 393.0703125 355.41015625 c 2
 392.110351562 350.491210938 l 1
 393.653320312 345.703125 l 2
 426.150390625 244.858398438 556.560546875 194.26953125 576.153320312 140.4453125 c 1
 566.528320312 128.4140625 512.66015625 98.3671875 496.581054688 98.3671875 c 0
 445.5546875 98.3671875 387.747070312 144.051757812 348.44921875 209.184570312 c 2
EndSplineSet
EndChar

StartChar: Y
Encoding: 89 89 44
Width: 592
Flags: HW
LayerCount: 2
Fore
SplineSet
143.01171875 -171 m 0
 117.77072582 -171 107.525390625 -163.992056106 107.525390625 -148.731445312 c 0
 107.525390625 -96.6884765625 121.58203125 -56 161.587890625 -56 c 0
 183.698242188 -56 305.815429688 -46.8671875 305.815429688 15.08203125 c 0
 305.815429688 19.2353515625 305.1328125 23.3525390625 303.856445312 27.326171875 c 0
 257.41796875 171.944335938 113.953125 324.93359375 67.0966796875 481.07421875 c 0
 51.119140625 534.52734375 41.140625 582.169921875 41.140625 618.930664062 c 0
 41.140625 679.83984375 61.89453125 711.658203125 141.428710938 712.001953125 c 1
 141.428710938 712.001953125 147.043945312 710.60546875 153.1015625 690.212890625 c 0
 189.178710938 578.671875 209.431640625 475.334960938 260.579101562 322.610351562 c 0
 280.921875 261.8671875 300.7734375 170.692382812 350.143554688 170.692382812 c 2
 353.55859375 170.692382812 l 1
 529.396687031 221.069707013 367.442255646 664.833064553 556.65625 684.8671875 c 1
 531.370117188 477.625976562 470.333007812 297.974609375 406.611328125 115.841796875 c 1
 359.26953125 -14.2001953125 306.211914062 -171 143.01171875 -171 c 0
EndSplineSet
EndChar

StartChar: Z
Encoding: 90 90 45
Width: 559
Flags: HW
LayerCount: 2
Fore
SplineSet
300.489257812 -12.1962890625 m 0
 287.46295673 -12.1962890625 274.553749003 -11.3996808814 262.19140625 -10 c 1
 260.83984375 -10 l 2
 174.390625 -10 61.19921875 18.4580078125 46.517578125 58.818359375 c 0
 45.958984375 62.55078125 46.3291015625 59.517578125 46.3291015625 63.6376953125 c 0
 46.3291015625 150.133789062 294.296875 410.701171875 313.3515625 539.309570312 c 2
 316.713867188 562 l 1
 291.69921875 562 l 2
 211.3984375 562 145.978515625 527 87.69140625 527 c 0
 57.6533203125 527 52.58984375 530.452148438 47.41015625 546.876953125 c 0
 42.98046875 560.92578125 41.140625 572.692382812 41.140625 582.279296875 c 0
 41.140625 638.51953125 114.68359375 651.903320312 228.776367188 651.903320312 c 0
 262.506835938 651.903320312 297.068359375 651 329.546875 651 c 0
 351.190429688 651 381.662109375 653.33984375 407.153320312 653.33984375 c 0
 442.21875 653.33984375 464.602539062 646.333984375 472.288085938 638.385742188 c 1
 408.666015625 477.782226562 291.481445312 343.23828125 261.8515625 156.366210938 c 2
 258.194335938 133 l 1
 283.399414062 133 l 2
 369.913085938 133 443.751953125 163 511.032226562 163 c 0
 519.278320312 163 520.79296875 161.528320312 520.79296875 161.528320312 c 1
 522.720703125 148.796875 522.62890625 147.631835938 522.62890625 138.78125 c 0
 522.62890625 43.7431640625 415.065429688 -12.1962890625 300.489257812 -12.1962890625 c 0
EndSplineSet
EndChar

StartChar: bracketleft
Encoding: 91 91 46
Width: 412
Flags: HW
LayerCount: 2
Fore
SplineSet
273.116210938 124 m 2
 336.477682978 124 367.470703125 111.794110437 367.470703125 61.18359375 c 0
 367.470703125 22.6171875 319.299804688 17 242.193359375 17 c 2
 238.55859375 17 l 2
 173.4765625 17 120.052734375 28.669921875 108.396484375 65.6416015625 c 0
 79.9765625 155.771484375 74.6728515625 233.771484375 74.6728515625 313.173828125 c 0
 74.6728515625 360.111328125 76.572265625 407.504882812 76.572265625 457.6953125 c 0
 76.572265625 522.209960938 73.3876953125 591.341796875 58.744140625 669.588867188 c 0
 57.12109375 678.26171875 55.6591796875 695.01171875 55.6591796875 713.44921875 c 0
 55.6591796875 772.341796875 72.7314453125 812 81.224609375 812 c 2
 269.637695312 812 l 2
 306.022460938 812 340.510742188 787.484375 351.063476562 754.015625 c 0
 351.545898438 752.485351562 352.5703125 745.694335938 352.5703125 739.181640625 c 0
 352.5703125 729.69140625 350.119140625 718.752929688 349.032226562 715 c 1
 202.02734375 715 l 1
 200.892578125 696.205078125 l 2
 199.220703125 668.51171875 198.645507812 634.279296875 198.645507812 596.149414062 c 0
 198.645507812 501.294921875 202.248046875 382.284179688 202.248046875 285.01953125 c 0
 202.248046875 232.023425929 201.081774995 187.694954163 198.000976562 153.814453125 c 1
 201.473632812 142.798828125 l 1
 222.923828125 124 l 1
 273.116210938 124 l 2
EndSplineSet
EndChar

StartChar: quoteleft
Encoding: 258 8216 47
Width: 232
Flags: HW
LayerCount: 2
Fore
SplineSet
111.536132812 812 m 0
 120.284016707 812 117.466796875 809.897694964 117.466796875 798.680664062 c 0
 117.466796875 790.482421875 116.470703125 779.612304688 116.470703125 768.15234375 c 0
 116.470703125 699.603515625 180.060546875 670.118164062 184.940429688 654.642578125 c 0
 185.4453125 652.973632812 185.784179688 650.678710938 185.784179688 648.787109375 c 0
 185.784179688 628.16015625 148.791015625 598 127.625 598 c 0
 105.8984375 598 73.66796875 631.607421875 62.224609375 667.904296875 c 0
 58.71484375 679.03515625 56.8701171875 692.392578125 56.8701171875 706.352539062 c 0
 56.8701171875 764.967773438 87.1904296875 812 111.536132812 812 c 0
EndSplineSet
EndChar

StartChar: a
Encoding: 97 97 48
Width: 535
Flags: W
HStem: -10 107<129.854 272.356> 487 28<232.191 313.382>
VStem: 44.7705 112.27<135.183 294.568> 312.217 95.4131<350.89 467.824> 312.217 85.8486<331.743 422.342>
LayerCount: 2
Fore
SplineSet
157.040039062 256.720703125 m 0xf0
 157.040039062 176.86371997 162.740820656 113.716015349 235.6328125 97 c 1
 309.079941104 97 346.270156933 226.587618646 360.8984375 256.038085938 c 1
 368.615234375 322.202148438 l 1
 337.439453125 302.236328125 l 2
 325.32421875 294.475585938 312.190429688 288.305664062 300.416015625 287.09765625 c 1
 300.409179688 288.299804688 300.415039062 288.4453125 300.415039062 289.540039062 c 0
 300.415039062 313.09765625 312.216796875 343.434570312 312.216796875 383.142578125 c 0
 312.216796875 406.54296875 306.25 487 254.294921875 487 c 0
 173.205078125 487 157.040039062 340.561523438 157.040039062 256.720703125 c 0xf0
284.3515625 515 m 0
 341.500987797 514.584026951 399.189600945 485.850988342 407.629882812 422.893554688 c 1xf0
 407.629882812 411.208984375 398.065429688 394.615234375 398.065429688 368.833984375 c 0xe8
 398.065429688 359.272460938 400.283203125 351.208984375 401.826171875 345.9140625 c 2
 406.157226562 331.067382812 l 1
 440.068359375 331.067382812 l 1
 464.449126828 253.932958031 457.124140646 124.897818105 499.53125 41.287109375 c 1
 481.6015625 11.75390625 455.65625 -7 432.54296875 -7 c 0
 387.120117188 -7 375.290039062 64.720703125 360.322265625 133.703125 c 2
 352.877929688 168.014648438 l 1
 330.275390625 143.263671875 l 1
 268.982421875 84.3642578125 231.323242188 -10 161.486328125 -10 c 0
 98.22265625 -10 44.7705078125 77.5283203125 44.7705078125 177.923828125 c 0
 44.7705078125 345.626953125 181.854492188 515 284.3515625 515 c 0
EndSplineSet
EndChar

StartChar: b
Encoding: 98 98 49
Width: 433
Flags: W
HStem: -10 55<225.502 290.196> 495 20G<303.533 344.859>
VStem: 43.5596 104.522<162.093 494.626> 256.238 137.586<249.024 437.206> 265.764 59.7949<612.171 746.033>
LayerCount: 2
Fore
SplineSet
290.421875 240.583007812 m 2xe8
 289.576938167 240.537066136 288.754322374 240.514408112 287.953430116 240.514408112 c 0
 248.315425532 240.514408112 261.88897002 296.014975673 256.23828125 331.170898438 c 1
 256.23828125 431.821289062 292.083984375 515 314.981445312 515 c 0
 374.736212176 515 393.82421875 345.020236173 393.82421875 279.020507812 c 0xf0
 393.82421875 116.692382812 326.15234375 -10 225.069335938 -10 c 0
 94.570997508 -10 43.5595703125 182.126409224 43.5595703125 323.11328125 c 0
 43.5595703125 478.072265625 96.3135758198 624.888794213 167.120117188 740.155273438 c 0
 184.930298775 769.14859646 208.094924545 787 237.1796875 787 c 0
 277.1640625 787 325.55859375 740.525390625 325.55859375 675.189453125 c 0
 325.55859375 610.640625 271.462890625 561.625976562 231.587890625 553.09375 c 1
 230.939453125 557.095703125 230.711914062 559.978515625 230.711914062 563.826171875 c 0
 230.711914062 596.856445312 265.763671875 641.056640625 265.763671875 696.077148438 c 0
 265.763671875 724.584960938 257.03515625 744.41796875 243.525390625 761.572265625 c 2
 225.212890625 784.544921875 l 1
 210.868164062 758.7265625 l 1
 171.274414062 683.163085938 148.08203125 545.322265625 148.08203125 405.788085938 c 0
 148.08203125 263.438681334 148.330256682 97.1962310459 257.580078125 45 c 1
 308.731445312 45 316.25 112.515625 316.25 152.813476562 c 0
 316.25 179.13671875 313.153320312 204.848632812 310.12109375 223.104492188 c 2
 307.215820312 240.583007812 l 1
 290.421875 240.583007812 l 2xe8
EndSplineSet
EndChar

StartChar: c
Encoding: 99 99 50
Width: 344
Flags: W
HStem: -10 78.9941<137.418 238.742> 493.831 20G<165.426 230.904>
VStem: 44.7705 93.6624<132.521 334.658> 236.86 43.248<369.826 469.907>
LayerCount: 2
Fore
SplineSet
138.447309204 323.894773321 m 0
 138.447309204 317.562743056 138.432860238 311.04939375 138.432860238 304.399891459 c 0
 138.432860238 211.30085693 141.265222728 91.512395925 226.241210938 68.994140625 c 1
 268.786132812 68.994140625 293.767578125 116.8515625 308.107421875 138.05078125 c 1
 308.80078125 132.993164062 308.938476562 129.931640625 308.938476562 125.122070312 c 0
 308.938476562 53.96875 231.383789062 -10 179.470703125 -10 c 0
 95.3657873074 -10 44.7705078125 113.70192958 44.7705078125 215.58203125 c 0
 44.7705078125 351.279296875 119.21484375 463.05078125 211.63671875 513.831054688 c 1
 250.170898438 510.896484375 280.108398438 481.852539062 280.108398438 434.122070312 c 0
 280.108398438 387.051757812 248.965820312 349.67578125 224.591796875 342.956054688 c 1
 224.471679688 345.301757812 224.46484375 345.838867188 224.46484375 347.828125 c 0
 224.46484375 359.700195312 236.860351562 379.258789062 236.860351562 411.834960938 c 0
 236.860351562 421.740234375 236.75 475 197.086914062 475 c 2
 187.50390625 475 l 1
 156.278668699 438.069547722 138.447309204 383.036227361 138.447309204 323.894773321 c 0
EndSplineSet
EndChar

StartChar: d
Encoding: 100 100 51
Width: 532
Flags: HW
HStem: -10.001 125.001<123.348 259.132> 484 31.0059<190.866 239.006>
VStem: 44.7705 99.54<174.914 326.444> 319.647 122.341<501.911 763.837> 338.552 97.1067<174.692 286.512>
LayerCount: 2
Fore
SplineSet
144.310546875 305.875 m 1
 154.075316966 229.70423448 147.282604076 133.600856459 229.291015625 115 c 1xe8
 288.973824756 115 338.551507172 183.675983124 338.551507172 243.87683084 c 0
 338.551507172 258.678537084 332.414229956 270.025274275 323.643554688 279.2578125 c 2
 316.645507812 286.626953125 l 1
 305.986328125 286.626953125 l 2
 301.327148438 286.626953125 294.8984375 285.1875 293.032226562 284.643554688 c 1
 288.421916208 349.288115523 278.75342582 473.741284516 202.26953125 484 c 1
 190.866210938 484 l 1
 185.587890625 475.452148438 l 2
 160.552734375 434.487304688 144.310546875 372.923828125 144.310546875 305.875 c 1
138.947265625 -10.0009765625 m 0
 81.2624667426 -9.16917238188 44.7705078125 109.177208085 44.7705078125 189.8203125 c 0
 44.7705078125 357.83984375 142.327148438 511.911132812 217.561523438 515.005859375 c 0
 228.072265625 515.005859375 239.682617188 508.7734375 263.323242188 494.625 c 2
 281.225585938 483.91015625 l 1
 294.986328125 498.41015625 l 2
 316.491097659 522.42382735 319.647284171 565.486871398 319.647284171 610.655023342 c 0xf0
 319.647284171 629.422189121 319.102411034 648.552773455 319.102411034 666.831369041 c 0
 319.102411034 726.051822121 324.821846972 776.329101562 373.321289062 776.329101562 c 0
 379.556255832 776.329101562 389.246463601 774.473009618 397.594726562 772 c 1
 400.477539062 772 l 2
 405.16015625 772 417.033203125 770.115234375 420.734375 769.330078125 c 1
 438.205078125 710.439453125 441.98828125 661.350585938 441.98828125 606.763671875 c 0xf0
 441.98828125 539.68359375 435.658203125 471.305664062 435.658203125 397.258789062 c 0xe8
 435.658203125 288.614627456 456.603317382 124.630395329 498.077148438 44.478515625 c 1
 498.077148438 33.365234375 456.801757812 -6 413.622070312 -6 c 1
 367.018156565 1.98196654456 381.824315106 106.139148635 339.115234375 141.986328125 c 1
 322.958984375 151.474609375 l 1
 310.999023438 137.317382812 l 2
 263.49609375 81.0888671875 200.025390625 -10.0009765625 138.947265625 -10.0009765625 c 0
EndSplineSet
EndChar

StartChar: e
Encoding: 101 101 52
Width: 407
Flags: HW
HStem: -10 69<154.906 255.812> 148.378 11.7997<172.8 214.041> 481 34<187.749 277.183>
VStem: 44.7705 106.027<176.271 342.286> 265.326 80.1494<250.968 454.251>
LayerCount: 2
Back
SplineSet
222.669500127 270.797851562 m 5
 212.139939127 243.455078125 205.427309374 212.002929688 201.614070443 183.764648438 c 4
 200.970684451 179.677734375 198.295601802 163 211.956246426 163 c 4
 217.165180653 163 219.084261683 166.469726562 222.860577459 170.46484375 c 4
 282.399166436 233.453125 319.558630589 326.478515625 331.96875 421.29296875 c 4
 332.794921875 427.07421875 333.913085938 441 321.60325035 441 c 4
 290.801030574 441 229.686745916 291.21484375 222.669500127 270.797851562 c 5
127.41796875 -8.90234375 m 4
 66.9072265625 -0.5244140625 30.2080078125 54.27734375 40.9697265625 131.98828125 c 4
 62.76171875 288.509765625 217.631335496 515 380.018554688 515 c 4
 383.603515625 515 387.049804688 514.755859375 390.359375 514.287109375 c 4
 434.938476562 507.807617188 458.286132812 457.8671875 450.065429688 398.901367188 c 4
 436.250976562 295.772460938 319.271553052 129.740234375 233.696600652 129.740234375 c 4
 227.399356404 129.740234375 220.782726857 135.888671875 210.065780841 135.888671875 c 4
 203.974383188 135.888671875 202.711611254 128.673828125 202.606380259 128.005859375 c 5
 198.712833464 101.27734375 227.225817571 99 236.53229903 99 c 4
 296.72258171 99 342.577148438 173 385.018554688 173 c 4
 397.479492188 173 408.51953125 163.418945312 406.080078125 148.782226562 c 5
 403.560546875 131.985351562 378.520507812 114.435546875 364.814453125 102.838867188 c 5
 298.879817097 46.9736328125 220.198417914 -10 144.018554688 -10 c 4
 138.291992188 -10 132.75390625 -9.626953125 127.41796875 -8.90234375 c 4
EndSplineSet
Fore
SplineSet
150.797851562 261.819335938 m 0
 150.797851562 233.735013181 152.652879748 160.177650733 190.33455176 160.177650733 c 0
 261.680431148 160.177650733 265.326171875 267.301848624 265.326171875 334.706054688 c 1
 253.508556288 412.091176312 279.070202761 455.662691488 216.837890625 481 c 1
 154.643164387 464.146524544 150.715792392 334.061287108 150.715792392 279.95047783 c 0
 150.715792392 272.128860368 150.797851562 265.894665381 150.797851562 261.819335938 c 0
182.499023438 -10 m 0
 94.6009678396 -10 44.7705078125 100.608785528 44.7705078125 207.165039062 c 0
 44.7705078125 366.717773438 133.510742188 515 250.88671875 515 c 0
 303.478515625 515 345.475585938 437.715820312 345.475585938 350.99609375 c 0
 345.475585938 233.806640625 268.600585938 148.377929688 193.221679688 148.377929688 c 2
 170.934570312 148.377929688 l 1
 172.14453125 124.38671875 l 2
 173.591796875 95.708984375 192.759765625 59 238.93359375 59 c 0
 314.16015625 59 347.65234375 138 364.935546875 138 c 0
 365.782226562 138 369.022460938 136.514648438 370.313476562 135.537109375 c 1
 339.087890625 61.470703125 256.07421875 -10 182.499023438 -10 c 0
EndSplineSet
EndChar

StartChar: f
Encoding: 102 102 53
Width: 264
Flags: HW
LayerCount: 2
Fore
SplineSet
202.250976562 199.469726562 m 0
 203.742673727 199.538906903 205.143599049 199.57282892 206.459473283 199.57282892 c 0
 232.618563741 199.57282892 225.165496897 186.166860897 229.044921875 169.853515625 c 1
 229.044921875 137.87109375 199.358398438 117.55859375 158.831054688 117.55859375 c 2
 142.221679688 117.55859375 l 1
 139.171875 100.165039062 l 2
 137.735351562 91.974609375 137.209960938 83.4765625 137.209960938 74.73828125 c 0
 137.209960938 23.3232421875 154.59765625 -44.052734375 154.59765625 -94.0634765625 c 0
 154.59765625 -131.928710938 145.287109375 -147.422851562 118.973632812 -152.986328125 c 1
 84.8701171875 -152.232421875 83.9270530927 -149.482789914 77.958984375 -125.862304688 c 0
 49.1324083429 -11.7721784675 47.139085385 65.2863729859 47.139085385 179.604656763 c 0
 47.139085385 197.951991758 47.1904296875 217.259068354 47.1904296875 237.833007812 c 0
 47.1904296875 426.315429688 75.43359375 630 141.805664062 630 c 0
 154.857421875 630 168.216796875 582.493164062 168.216796875 531.6015625 c 0
 168.216796875 531.343574133 167.9582044 530.946742797 167.95703125 530.587890625 c 1
 164.723693273 540.845247924 155.216403532 560.110577335 136.533489996 560.110577335 c 0
 105.627595034 560.110577335 105.850585938 506.662235844 105.850585938 473.064453125 c 1
 122.799252973 370.061573535 93.9414050476 230.772295547 155.916015625 197.438476562 c 1
 171.697265625 197.438476562 188.35546875 199.469726562 202.250976562 199.469726562 c 0
EndSplineSet
EndChar

StartChar: g
Encoding: 103 103 54
Width: 531
Flags: HW
LayerCount: 2
Fore
SplineSet
171.130859375 251.091796875 m 0
 171.130859375 244.206088577 171.04070611 237.07139495 171.04070611 229.892333605 c 0
 171.04070611 185.783601442 174.443967307 140 223.0703125 140 c 0
 257.822575776 140 360.117848699 253.046658231 354.168945312 286.333007812 c 1
 348.573242188 307 l 1
 315.6875 307 l 1
 325.0078125 334.584960938 338.327148438 365.93359375 338.327148438 402.236328125 c 0
 338.327148438 434.647460938 326.657226562 458.787109375 307.524414062 478.421875 c 2
 294.109375 492.190429688 l 1
 278.322265625 480.787109375 l 2
 209.770507812 431.265625 171.130859375 346.439453125 171.130859375 251.091796875 c 0
280.599609375 -143.830078125 m 1
 285.434195574 -170.688605063 286.542609193 -190.359604463 322.250976562 -196 c 1
 335.341796875 -196 l 1
 341.41796875 -185.126953125 l 1
 366.90625 -136.779296875 380.678710938 -61.248046875 380.678710938 13.3603515625 c 0
 380.678710938 66.1240234375 373.426757812 118.75390625 356.990234375 160.774414062 c 1
 343.02734375 194.098632812 l 1
 320.301757812 166.791015625 l 1
 271.870117188 111.009765625 186.927734375 12.7626953125 135.560546875 12.7626953125 c 0
 79.458984375 12.7626953125 44.7705078125 95.20703125 44.7705078125 184.110351562 c 0
 44.7705078125 365.103515625 193.110351562 517 325.1171875 517 c 0
 384.976493567 517 427.739257812 487.149992067 427.739257812 417.463867188 c 0
 427.739257812 380.468611095 418.908369198 357.222173977 418.479492188 342.396484375 c 1
 477.909000291 291.169801706 493.573242188 195.486851682 493.573242188 111.779296875 c 0
 493.573242188 -61.6884765625 416.094726562 -191.736328125 271.99609375 -230.94140625 c 1
 230.6015625 -228.696289062 190.0546875 -188.25 190.0546875 -133.493164062 c 0
 190.0546875 -72.7724609375 241.829101562 -18.73046875 281.4609375 2.75 c 1
 276.927734375 -23.7099609375 274.706054688 -46.951171875 274.706054688 -74.265625 c 0
 274.706054688 -100.320192641 276.662877721 -120.759984025 280.599609375 -143.830078125 c 1
 290.12375373 -136.819331165 297.447848764 -130.924711597 297.447848764 -119.551834755 c 0
 297.447848764 -116.015911163 296.739871938 -111.950436933 295.169921875 -107.157226562 c 2
 290.51953125 -93 l 1
 285.023306547 -93 279.600817796 -93 274.047851562 -93 c 0
 262.560439503 -93.6577659257 242.629384571 -99.0185778925 242.629384571 -117.319399103 c 0
 242.629384571 -119.623141018 243.020348147 -122.12161953 243.904296875 -124.82421875 c 2
 250.022460938 -143.510742188 l 1
 265.151367188 -143.979492188 l 1
 265.151367188 -143.979492188 274.382924745 -144.293989966 280.264648438 -142.228515625 c 1
 280.510742188 -143.895507812 l 1
 280.599609375 -143.830078125 l 1
EndSplineSet
EndChar

StartChar: h
Encoding: 104 104 55
Width: 492
Flags: HW
LayerCount: 2
Fore
SplineSet
255.372070312 723.168945312 m 2
 241.8203125 751.920898438 l 1
 300.411132812 749.220703125 346.5078125 683.6953125 346.5078125 601.251953125 c 0
 346.5078125 534.309570312 307.37109375 486.630859375 254.822265625 451.661132812 c 1
 254.19140625 457.216796875 254.180664062 459.075195312 254.180664062 464.112304688 c 0
 254.180664062 507.588867188 278.1640625 568.586914062 278.1640625 630.735351562 c 0
 278.1640625 666.82421875 267.075195312 698.334960938 255.372070312 723.168945312 c 2
103.910624966 51.9102413653 m 1
 57.0419959188 74.1934448658 47.1130550367 173.357836212 45.9468826201 257.87479529 c 0
 45.9468826201 260.315224871 45.9578790762 262.745648585 45.9794921875 265.1640625 c 0
 45.9794921875 483.59765625 124.004882812 741.11328125 231.229492188 751.682617188 c 1
 217.079101562 723.641601562 l 2
 179.076171875 648.33203125 156.37890625 537.5234375 156.37890625 434.1953125 c 0
 156.37890625 381.258789062 162.583984375 330.1640625 176.186523438 286.466796875 c 2
 180.572265625 272 l 1
 196.463867188 272 l 2
 279.609375 272 296.126953125 435 364.870117188 435 c 1
 398.007106067 409.621620061 401.929775878 374.087069549 401.929775878 332.180942609 c 0
 401.929775878 319.181877394 401.552333247 305.569733669 401.552333247 291.457471023 c 0
 401.552333247 218.521172678 440.833230672 133.318805438 458.330078125 86.689453125 c 1
 453.702148438 77.33984375 403.272460938 49 382.380859375 49 c 0
 363.4375 49 327.935798003 83.1399916055 321.625 117.90625 c 2
 303.52734375 217.606445312 l 1
 297.606353678 236.165000759 281.674017794 238.975647031 273.55220664 238.975647031 c 1
 195.847304462 192.24477478 179.665765284 51.9102413653 103.910624966 51.9102413653 c 1
EndSplineSet
EndChar

StartChar: i
Encoding: 105 105 56
Width: 207
Flags: W
HStem: 470 20G<83.6089 129.217>
VStem: 45.9795 119.34<107.791 439.022> 81.9082 72.5508<580.435 714.688>
LayerCount: 2
Fore
SplineSet
118.791015625 721 m 0xa0
 120.022243176 721.168084595 121.211606013 721.249695687 122.360504092 721.249695687 c 0
 148.909008809 721.249695687 153.850533824 677.671794206 154.458984375 650.512695312 c 0
 154.458984375 601.137695312 136.196289062 572 113.048828125 572 c 0
 94.796875 572 81.908203125 599.109375 81.908203125 644.2421875 c 0
 81.908203125 694.004882812 99.634765625 721 118.791015625 721 c 0xa0
95.052734375 490 m 1
 163.381669891 464.662899293 165.319506835 360.882209753 165.319506835 251.483223577 c 0
 165.319506835 244.904894051 165.3125 238.306249876 165.3125 231.703125 c 0
 165.3125 113.598632812 139.606445312 39 122.869140625 39 c 1
 70.6309711606 52.0811934015 45.9794921875 154.236088394 45.9794921875 253.244140625 c 0xc0
 45.9794921875 372.909179688 72.1650390625 490 95.052734375 490 c 1
EndSplineSet
EndChar

StartChar: j
Encoding: 106 106 57
Width: 208
Flags: HW
LayerCount: 2
Fore
SplineSet
82.3955078125 720 m 0
 83.9900615663 720.298207114 85.5118528693 720.441755996 86.9641782652 720.441755996 c 0
 114.857362762 720.441755996 117.126953125 667.49148979 117.126953125 640.293945312 c 0
 117.126953125 595.041015625 103.606445312 572 81.1103515625 572 c 0
 65.267578125 572 49.49609375 600.64453125 49.49609375 641.477539062 c 0
 49.49609375 692.860351562 67.67578125 720 82.3955078125 720 c 0
42.349609375 56.1826171875 m 0
 42.9591711493 67.5926351641 42.5950954583 82.1056592822 46.212890625 86.708984375 c 1
 66.059603574 86.708984375 69.2957670167 105.133371732 69.2957670167 117.217026494 c 0
 69.2957670167 162.271042707 59.6328125 241.63076403 59.6328125 331.514648438 c 0
 59.6328125 438.374023438 78.5048828125 501 100.448242188 501 c 1
 159.494713148 481.106748239 165.194335938 354.081695512 165.194335938 282.833984375 c 0
 165.194335938 138.055378709 130.50305335 -24.2344732832 93.494140625 -144.876953125 c 1
 62.975961376 -110.483611539 42.349609375 -15.5484896428 42.349609375 56.1826171875 c 0
EndSplineSet
EndChar

StartChar: k
Encoding: 107 107 58
Width: 503
Flags: HW
LayerCount: 2
Fore
SplineSet
231.950195312 723.801757812 m 2
 215.748046875 750.930664062 l 2
 216.674804688 750.970703125 217.756835938 751 218.5390625 751 c 0
 280.278320312 751 328.140625 691.129882812 328.140625 606.319335938 c 0
 328.140625 532.419921875 290.100585938 475.0546875 246.854492188 465.305664062 c 1
 253.401367188 510.806640625 263.219726562 552.564453125 263.219726562 602.131835938 c 0
 263.219726562 647.668945312 251.671875 690.778320312 231.950195312 723.801757812 c 2
331.684570312 401.322265625 m 0
 333.798331549 401.801446108 335.853363468 402.031537341 337.849868253 402.031537341 c 0
 372.96979966 402.031537341 389.979505393 330.833720279 389.979505393 291.847051367 c 0
 389.979505393 217.168647321 349.16502033 160.063200719 325.502929688 88.17578125 c 1
 347.937682717 12.9284242709 429.931502557 -51.9385829256 468.162109375 -94.84375 c 1
 459.918945312 -118.734375 421.25 -163.70703125 412.317382812 -163.70703125 c 0
 353.085298625 -162.433695792 269.482398224 -38.3582400719 251.65234375 67.400390625 c 1
 251.65234375 106.524414062 323.331054688 109.263671875 323.331054688 189.782226562 c 0
 323.331054688 210.297851562 317.530273438 270.2109375 268.6171875 270.2109375 c 2
 265.889648438 270.2109375 l 1
 158.343168085 246.518136439 170.342468991 63.3065468931 134.587890625 38.0244140625 c 1
 74.2914108753 44.4700874659 44.7672084352 159.521817787 44.7672084352 251.258957847 c 0
 44.7672084352 418.770357653 99.9379468221 705.427340263 208.451171875 750.072265625 c 1
 194.235351562 722.6796875 l 1
 155.74609375 646.109375 146.829101562 555.001953125 146.829101562 459.717773438 c 1
 149.313644359 448.887504634 150.14581841 436.694956617 150.14581841 423.832536058 c 0
 150.14581841 397.731970629 146.719177542 368.873072824 146.719177542 343.041368973 c 0
 146.719177542 308.033065012 153.012857089 278.58478015 182.659179688 269.09765625 c 1
 191.337890625 269.09765625 l 1
 248.677006997 318.99544186 275.294380169 401.33043411 330.726664191 401.33043411 c 0
 331.045012096 401.33043411 331.364310377 401.327718528 331.684570312 401.322265625 c 0
EndSplineSet
EndChar

StartChar: l
Encoding: 108 108 59
Width: 385
Flags: HW
LayerCount: 2
Fore
SplineSet
43.4157770258 250.303064994 m 0
 43.4157770258 420.035882765 128.895850848 712.576562464 230.6953125 751 c 1
 298.513671875 751 338.416015625 631.670898438 338.416015625 532.868164062 c 0
 338.416015625 432.376953125 297.802734375 349.666015625 234.08203125 301.059570312 c 1
 234.51953125 377.092773438 264.505859375 472.159179688 264.505859375 572.720703125 c 0
 264.505859375 610.2421875 262.858398438 658.807617188 238.1171875 688.73828125 c 1
 218.477539062 714.37890625 l 1
 206.111328125 683.892578125 l 2
 173.6015625 603.733398438 152.590820312 484.654296875 152.590820312 368.333007812 c 0
 152.590820312 353.118334324 152.34483144 336.976504147 152.34483144 320.55269424 c 0
 152.34483144 241.832354876 157.996042894 156.633970116 223.471679688 136 c 1
 295.963867188 137.052734375 322.747070312 212.213867188 342.458984375 247.672851562 c 1
 346.125 231.530273438 347.139648438 220.608398438 347.139648438 206.328125 c 0
 347.139648438 120.565429688 287.536132812 48 198.634765625 48 c 0
 109.487328558 48 43.4157770258 146.248691964 43.4157770258 250.303064994 c 0
EndSplineSet
EndChar

StartChar: m
Encoding: 109 109 60
Width: 763
Flags: W
HStem: 46.0312 220.969<85.1665 206.565> 479.271 20G<70.0107 118.549 315.949 361.174 553.158 608.637>
LayerCount: 2
Fore
SplineSet
33.9208765244 189.277750934 m 1
 46.1034632882 271.928663205 37.2491413804 477.001767603 102.772183372 499.271070974 c 1
 134.326282806 499.271070974 150.30859375 452.709183226 150.30859375 421.143554688 c 0
 150.30859375 388.262695312 137.271484375 354.416015625 137.271484375 313.754882812 c 0
 137.271484375 312.94233652 137.120130228 310.013363009 137.120130228 307.299560423 c 0
 137.120130228 296.878308685 139.328918256 267 174.229492188 267 c 0
 238.901367188 267 284.896484375 502 347.000976562 502 c 0
 375.346679688 502 413.645507812 452.889648438 413.645507812 396.706054688 c 0
 413.645507812 365.313476562 404.443359375 333.7578125 404.443359375 299.373046875 c 0
 404.443359375 288.099609375 405.540039062 276.482421875 408.611328125 264.646484375 c 2
 411.346679688 254.1015625 l 1
 422.858398438 250.301757812 l 2
 427.370117188 248.8125 432.267578125 247.918945312 437.368164062 247.918945312 c 2
 445.65625 247.918945312 l 1
 534.858984479 304.381112382 507.884910015 474.447932975 598.431640625 500.896484375 c 1
 618.841796875 498.825195312 633.37566929 484.34309171 643.369140625 453.284179688 c 0
 680.274925293 338.583943828 651.179910018 180.808611728 724.525390625 56.390625 c 1
 724.525390625 46.677734375 706.648111834 34 687.69140625 34 c 0
 608.705671444 34 556.331644297 169.902586323 556.331644297 273.524157437 c 0
 556.331644297 279.780902935 556.522591193 285.91995728 556.91015625 291.904296875 c 1
 550.532407455 307.394129973 536.495978142 315.794921875 522.302734375 315.794921875 c 2
 508.072265625 315.794921875 l 1
 501.80078125 304.586914062 l 2
 437.46875 189.626953125 395.307617188 43 356.630859375 43 c 0
 324.811523438 43 291.712890625 91.1337890625 291.712890625 147.063476562 c 0
 291.712890625 167.544921875 295.2265625 188.266601562 295.2265625 211.93359375 c 0
 295.2265625 225.588867188 294.346679688 240.309570312 289.779296875 255.8515625 c 2
 271.22265625 319 l 5
 237.865234375 271.349609375 l 1
 232.044921875 258.923828125 l 2
 204.108398438 199.270507812 141.163085938 46.03125 102.248046875 46.03125 c 0
 68.0849853696 46.430822753 33.9208765244 134.09691479 33.9208765244 189.277750934 c 1
EndSplineSet
EndChar

StartChar: n
Encoding: 110 110 61
Width: 481
Flags: HW
LayerCount: 2
Fore
SplineSet
110.244140625 517 m 0
 184.524899735 517 119.384138027 317.518153689 191.91796875 283.788085938 c 1
 203.258789062 283.788085938 l 1
 209.420898438 293.306640625 l 2
 250.666992188 357.014648438 285.598632812 454.37890625 330.280273438 454.37890625 c 0
 356.49609375 454.37890625 368.407226562 441.8984375 378.670898438 406.75390625 c 0
 409.467480664 295.134271732 393.559686321 153.098765226 448.580078125 35.4853515625 c 1
 446.479492188 27.890625 408.743164062 2.9345703125 396.009765625 2.9345703125 c 0
 395.697638956 2.92643545843 395.385971149 2.92238368315 395.074766125 2.92238368315 c 0
 338.699517587 2.92238368315 297.510875265 135.884858206 294.817382812 215.721679688 c 1
 294.817382812 215.721679688 293.669921875 248.0234375 262.329101562 248.0234375 c 2
 252.756835938 248.0234375 l 1
 185.331257782 176.609158754 164.726390723 39.408660331 110.642578125 -9.3349609375 c 1
 52.8181914285 19.360461807 47.1904296875 99.0396618585 47.1904296875 207.749023438 c 0
 47.1904296875 366.638671875 83.0986328125 517 110.244140625 517 c 0
EndSplineSet
EndChar

StartChar: o
Encoding: 111 111 62
Width: 502
Flags: W
HStem: -11 21G<202.541 327.75> 514.097 0.90332<194.75 287.764>
VStem: 44.7705 108.385<152.87 349.235> 379.574 82.7119<102.201 275.781>
LayerCount: 2
Fore
SplineSet
266.125976562 -11 m 0
 138.955772986 -11 44.7705078125 88.9660148473 44.7705078125 238.46875 c 0
 44.7705078125 397.9375 159.9453125 512.483398438 274.0625 515 c 0
 277.467773438 515 283.940429688 514.518554688 287.954101562 514.096679688 c 1
 194.750125972 495.016703533 153.155273438 391.505348213 153.155273438 287.020507812 c 0
 153.155273438 184.700165208 185.727369122 63.6168059408 284.537109375 41.634765625 c 1
 352.521535351 47.03470762 379.57421875 107.680686293 379.57421875 169.393554688 c 0
 379.57421875 271.546875 321.372070312 352.54296875 274.040039062 400.407226562 c 1
 294.512695312 422.927734375 323.736328125 435.4921875 345.551757812 435.4921875 c 0
 416.374090978 435.4921875 462.286132812 304.686905785 462.286132812 212.57421875 c 0
 462.286132812 83.693359375 389.373046875 -11 266.125976562 -11 c 0
EndSplineSet
EndChar

StartChar: p
Encoding: 112 112 63
Width: 480
Flags: HW
LayerCount: 2
Fore
SplineSet
161.830078125 162.29296875 m 0
 161.830078125 105.75449837 199.327288094 49.8079216286 242.58890589 49.8079216286 c 0
 244.044359834 49.8079216286 245.500699984 50 246.973632812 50 c 2
 248.646484375 50 l 1
 320.415867446 61.293875602 337.865234375 131.6943787 337.865234375 192.265625 c 1
 324.528474352 279.326460992 336.553615068 347.253980706 274.479492188 379 c 1
 262.438476562 379 l 1
 256.512695312 368.87890625 l 2
 224.43359375 314.108398438 161.830078125 249.46875 161.830078125 162.29296875 c 0
120.75390625 -196.998046875 m 1
 50.5506464864 -156.665838171 47.1513468607 -47.7683205011 47.1513468607 83.4178476757 c 0
 47.1513468607 97.4843559977 47.1904296875 111.807124009 47.1904296875 126.329101562 c 0
 47.1904296875 320.42578125 84.513671875 494.854492188 126.180664062 506.934570312 c 1
 159.980673302 503.565102025 146.191904426 443.62419742 156.265625 385.663085938 c 1
 173.078125 331.24609375 l 1
 197.466796875 365.676757812 l 2
 241.860351562 428.3515625 244.069335938 514.697265625 294.993164062 515 c 0
 388.69921875 515 439.744140625 376.538085938 439.744140625 242.868164062 c 0
 439.744140625 100.26953125 380.471679688 -10 286.682617188 -10 c 0
 234.445364501 -10 228.51677416 41.803785124 181.755859375 58 c 1
 162.444335938 58 l 1
 160.813476562 39.8154296875 l 2
 156.962890625 -5.8388671875 135.010742188 -182.590820312 120.75390625 -196.998046875 c 1
EndSplineSet
EndChar

StartChar: q
Encoding: 113 113 64
Width: 478
Flags: HW
LayerCount: 2
Fore
SplineSet
168.094726562 209.723632812 m 0
 168.831596365 173.553195119 171.245007205 91.8904519948 212.682041519 91.8904519948 c 0
 213.553528239 91.8904519948 214.439306828 92 215.348632812 92 c 2
 225.25390625 92 l 1
 274.714868851 150.769309266 335.506220776 242.869352081 346.719726562 282.013671875 c 1
 342.91929046 304.066743691 323.287684349 315.389046322 310.880763654 315.389046322 c 0
 310.05733796 315.389046322 309.265735166 315.339174461 308.512695312 315.239257812 c 1
 311.668945312 334.8828125 328.095703125 371.8828125 328.095703125 409.909179688 c 0
 328.095703125 419.819335938 326.40625 429.48828125 323.576171875 437.771484375 c 2
 315.403320312 462.076171875 l 1
 292.577148438 449.271484375 l 2
 213.321289062 404.571289062 168.094726562 311.151367188 168.094726562 209.723632812 c 0
300.450195312 515 m 0
 371.669865055 515 418.84765625 495.797422449 418.84765625 428.69921875 c 0
 418.84765625 396.540936851 392.387967288 369.212306428 383.616210938 319.7890625 c 1
 388.828218137 291.774628471 424.57485315 270.767233453 431.809570312 266.192382812 c 1
 435.399414062 254.168945312 l 1
 435.107421875 245.803710938 435.018554688 237.962890625 435.018554688 228.67578125 c 0
 435.018554688 190.176757812 436.880859375 139.640625 436.880859375 85.9775390625 c 0
 436.880859375 -72.7138671875 416.486328125 -220.096679688 334.100585938 -220.096679688 c 0
 332.732421875 -220.096679688 331.923828125 -220.083007812 329.533203125 -220 c 0
 324.770507812 -220 309.163085938 -198.991210938 309.163085938 -163.350585938 c 0
 309.163085938 -117.15234375 332.059570312 -64.9951171875 332.059570312 -9.01953125 c 0
 332.059570312 13.6220703125 325.65234375 35.322265625 319.791992188 52.7646484375 c 2
 311.895507812 76.7099609375 l 1
 289.340820312 64.419921875 l 2
 235.1953125 34.9150390625 207.713867188 -10 158.338867188 -10 c 0
 79.6070120286 -10 44.7705078125 112.613539841 44.7705078125 202.71875 c 0
 44.7705078125 370.055664062 140.532226562 515 300.450195312 515 c 0
EndSplineSet
EndChar

StartChar: r
Encoding: 114 114 65
Width: 319
Flags: HW
HStem: 401.082 49.918<151.25 214.362> 472 20G<92.894 115.417 228.545 238.592>
VStem: 47.1904 99.3103<155.546 397.796> 253.933 26.6436<325.924 346.434>
LayerCount: 2
Fore
SplineSet
231.68359375 491.512695312 m 1
 256.404427416 480.34149422 280.576171875 442.218581201 280.576171875 390.295898438 c 0
 280.576171875 340.294921875 266.682617188 287.583007812 253.932617188 265.731445312 c 1
 251.970703125 300.469726562 246.310546875 401.08203125 181.9453125 401.08203125 c 0
 149.375405354 401.08203125 146.500713551 370.56963791 146.500713551 353.092551622 c 0
 146.500713551 349.346074667 146.6328125 346.198601178 146.6328125 344.079101562 c 0
 146.6328125 271.326171875 176.051757812 121.176757812 176.051757812 87.1572265625 c 0
 176.051757812 74.599609375 130.110351562 38 115.280273438 38 c 1
 47.6177477601 67.9202518404 47.1904296875 187.362677541 47.1904296875 296.186523438 c 0
 47.1904296875 413.653320312 74.2705078125 492 111.517578125 492 c 0
 119.315429688 492 125.041992188 451 164.552734375 451 c 0
 204.233398438 451 225.40625 483.6796875 231.68359375 491.512695312 c 1
EndSplineSet
EndChar

StartChar: s
Encoding: 115 115 66
Width: 388
Flags: W
HStem: -11 18<160.461 220.87> 493.584 21.416<167.682 222.663>
VStem: 42.3496 87.7256<291.523 413.578> 73.2275 58.1943<22.2853 87.3518> 255.871 59.6328<350.353 470.461> 263.497 88.6865<88.8403 173.268>
LayerCount: 2
Fore
SplineSet
269.365234375 331.559570312 m 0xe8
 256.678216816 331.96360117 256.101663236 344.537290583 256.101663236 356.834965225 c 0
 256.101663236 360.91383665 256.165090168 364.962343559 255.87109375 368.526367188 c 0
 255.87109375 373.666992188 255.97265625 379.084960938 255.97265625 384.793945312 c 0
 255.97265625 427.647488987 241.811390182 493.583984375 194.849609375 493.583984375 c 0
 138.787109375 493.583984375 130.075195312 401.682617188 130.075195312 366.400390625 c 0xe8
 130.075195312 179.458890076 352.18359375 310.668114944 352.18359375 160.8203125 c 0
 352.18359375 72.2841796875 252.307617188 -11 174.708984375 -11 c 0
 115.099609375 -11 73.2275390625 7.1201171875 73.2275390625 57.7177734375 c 0
 73.2275390625 94.8642578125 104.952148438 127.010742188 137.19921875 130.704101562 c 1
 135.639648438 120.640625 131.421875 104.783203125 131.421875 86.3759765625 c 0
 131.421875 70.2255859375 135.390625 7 191.1171875 7 c 0
 241.235351562 7 263.497070312 65.810546875 263.497070312 103.571289062 c 0xd4
 263.497070312 267.248990374 42.349609375 180.563269642 42.349609375 334.801757812 c 0
 42.349609375 434.456054688 137.765625 515 212.676757812 515 c 0
 266.021484375 515 315.50390625 475.947265625 315.50390625 418.875976562 c 0
 315.50390625 371.203125 286.28515625 331.559570312 269.365234375 331.559570312 c 0xe8
EndSplineSet
EndChar

StartChar: t
Encoding: 116 116 67
Width: 320
Flags: W
HStem: -10 65.7236<198.044 223.021> 679.975 20G<144.928 178.976 179.02 202.921>
VStem: 85.0703 83.9209<195.272 373.315> 101.324 76.8343<498.895 620.548>
LayerCount: 2
Fore
SplineSet
211.735351562 744 m 1xc0
 197.16015625 744 l 2
 196.927774414 744.010983611 196.28598726 744.053657751 195.340038738 744.053657751 c 0
 190.398629522 744.053657751 177.157361802 742.88917943 170.618164062 729.959960938 c 2
 156.80078125 702.63671875 l 1
 187.373046875 700.963867188 l 2
 189.280273438 700.859375 191.127929688 700.532226562 192.814453125 700.021484375 c 2
 229.052734375 689.083007812 l 1
 211.735351562 744 l 1xc0
194.203125 -10 m 0
 117.720753355 -10 74.01171875 101.915575936 74.01171875 192.698242188 c 0
 74.01171875 247.625976562 84.7216796875 300.682617188 85.0703125 360.209960938 c 2xe0
 85.146484375 373.315429688 l 1
 73.9267578125 379.116210938 l 2
 46.2078801191 393.450177613 39.9296875 400.33903361 39.9296875 430.458984375 c 0
 39.9296875 468.920898438 100.677734375 474.887695312 101.32421875 544.946289062 c 0
 102.110351562 624.891601562 117.181640625 690.232421875 172.673828125 699.974609375 c 1
 179.01953125 679.836914062 l 1
 200.689453125 692.693359375 l 1
 205.153320312 687.0078125 208.391601562 680.890625 208.391601562 666.250976562 c 0
 208.391601562 633.533203125 179.474609375 597.143554688 179.474609375 547.50390625 c 0
 178.576991926 542.743878493 178.158537689 538.406019829 178.158537689 534.443851128 c 0xd0
 178.158537689 479.82305541 257.682514272 496.599218365 257.682514272 463.004343234 c 0
 257.682514272 461.366005699 257.493384983 459.607872362 257.096679688 457.715820312 c 0
 261.318750146 405.099031697 167.467886633 414.302956768 167.467886633 356.747362347 c 0
 167.467886633 352.679002991 167.936809919 348.277081511 168.942440011 343.496186028 c 0
 168.942440011 339.944353505 168.991210938 336.560054056 168.991210938 333.461914062 c 0xe0
 168.19425253 230.896725907 198.044062896 61.9157570508 275.217773438 55.7236328125 c 1
 256.211914062 16.033203125 228.65625 -10 194.203125 -10 c 0
EndSplineSet
EndChar

StartChar: u
Encoding: 117 117 68
Width: 528
Flags: HW
LayerCount: 2
Fore
SplineSet
117.512695312 -12 m 1
 55.4616310137 19.3519785443 47.1904296875 155.282812532 47.1904296875 251.140625 c 0
 47.1904296875 384.053710938 82.162109375 492.622070312 146.439453125 514.90234375 c 1
 177.387695312 511.967773438 201.79296875 469.662109375 201.79296875 407.813476562 c 0
 201.79296875 337.695847994 168.06458374 261.952502186 168.06458374 179.375695927 c 0
 168.06458374 151.459746187 193.133769662 139.616210938 209 139.616210938 c 0
 327.256835938 139.616210938 357.263671875 378.165039062 405.372070312 378.165039062 c 0
 419.094726562 378.165039062 424.2890625 373.658203125 431.098632812 352.055664062 c 0
 465.985351562 241.418945312 494.735351562 113.4375 494.893554688 1.4423828125 c 1
 492.383789062 -2.3642578125 471.181640625 -10 442.760742188 -10 c 0
 439.315556389 -10.4252081938 435.989513368 -10.6316097959 432.778908918 -10.6316097959 c 0
 371.940119464 -10.6316097959 352.552658954 63.4824468631 349.412109375 127.303710938 c 1
 345.997674459 137.599144463 338.069866262 146.519522234 336.205078125 148.767578125 c 2
 322.424804688 165.370117188 l 1
 305.155273438 151.846679688 l 2
 236.477539062 98.0673828125 188.373046875 -12 117.512695312 -12 c 1
EndSplineSet
EndChar

StartChar: v
Encoding: 118 118 69
Width: 378
Flags: HW
LayerCount: 2
Fore
SplineSet
189.051757812 -9.5224609375 m 1
 126.067448101 29.9911964872 44.5872363952 310.279732561 42.349609375 429.077148438 c 0
 42.349609375 481.065429688 57.07421875 506.305664062 82.1982421875 514.947265625 c 1
 119.362304688 513.0078125 152.083984375 485.72265625 158.3828125 447.19140625 c 2
 191.756835938 242.596679688 l 2
 196.16154769 217.862632144 213.580575274 213.979339345 224.085560392 213.979339345 c 0
 228.894050099 213.979339345 232.25390625 214.79296875 232.25390625 214.79296875 c 1
 243.83984375 217.203125 l 1
 247.340820312 230.09765625 l 2
 267.801757812 307.703125 293.9296875 493.068359375 310.333007812 503.793945312 c 1
 321.154296875 502.672851562 339.577148438 451.322265625 339.577148438 397.620117188 c 0
 339.577148438 237.641601562 234.674804688 18.37890625 189.051757812 -9.5224609375 c 1
EndSplineSet
EndChar

StartChar: w
Encoding: 119 119 70
Width: 617
Flags: HW
LayerCount: 2
Fore
SplineSet
30.25 419.81640625 m 1
 47.7774588676 286.306428693 100.740443219 21.0862602918 219.715820312 -11.2265625 c 1
 305.165039062 -11.2265625 323.120117188 136.721679688 335.463867188 192.768554688 c 1
 368.017735923 82.8482989369 415.362138435 -40.9985498417 528.787109375 -69 c 1
 530.201171875 -69 l 2
 605.544921875 -69 618.478515625 40.974609375 627.82421875 92.5673828125 c 0
 641.646484375 164.205078125 657.09765625 241.2578125 657.09765625 323.005859375 c 0
 657.09765625 394.037378027 653.255696192 530.414752446 580.0625 542.834960938 c 1
 508.162109375 542.834960938 485.9921875 486.2734375 485.9921875 423.044921875 c 0
 485.9921875 353.571289062 513.169921875 261.561523438 517.556640625 194.110351562 c 1
 484.549265533 313.895180527 466.316110236 404.147616846 439.260742188 487.358398438 c 0
 426.315734687 527.171724571 405.401367188 552 361.518554688 552 c 0
 252.3515625 552 256.169921875 318.1875 245.341796875 247.653320312 c 1
 224.355264263 348.869605285 213.794345986 393.051606619 192.93359375 482.536132812 c 0
 185.760118177 513.307557332 165.028320312 539.862304688 129.219726562 539.862304688 c 0
 58.568359375 539.862304688 30.25 486.458984375 30.25 419.81640625 c 1
EndSplineSet
EndChar

StartChar: x
Encoding: 120 120 71
Width: 523
Flags: W
HStem: -9.63281 21G<411.217 445.175> 480.74 20G<58.3354 63.4751 83.1469 111.893 359.975 396.532>
LayerCount: 2
Fore
SplineSet
93.53125 70.16015625 m 0
 93.5654888251 134.793732545 200.88827988 162.674545091 200.52734375 269.806640625 c 1
 160.303109101 366.455576201 101.613244422 436.528190662 39.91796875 498.995117188 c 1
 46.515625 500.073242188 54.2890625 500.740234375 62.3818359375 500.740234375 c 0
 64.568359375 500.740234375 66.65234375 500.728515625 68.6064453125 500.728515625 c 2
 70.6279296875 500.728515625 l 2
 75.3798867075 501.698589691 80.6854924454 502.448242188 85.6083984375 502.448242188 c 0
 138.177734375 502.448242188 186.56640625 433.669921875 240.517578125 406.973632812 c 2
 255.517578125 399.373046875 l 1
 265.127929688 413.403320312 l 2
 295.356445312 457.541015625 335.720703125 515 384.228515625 515 c 0
 408.8359375 515 415.405273438 509.5078125 415.405273438 493.8359375 c 0
 415.405273438 449.748046875 314.075195312 375.674804688 314.075195312 299.4609375 c 1
 340.116950386 188.206942879 451.718298519 118.186046429 477.595703125 38.556640625 c 1
 472.247070312 -0.9521484375 456.318359375 -9.6328125 434.03125 -9.6328125 c 0
 388.40234375 -9.6328125 313.65234375 46.078125 285.9296875 112.690429688 c 2
 272.538085938 144.86328125 l 1
 249.6640625 118.302734375 l 2
 212.418945312 75.0537109375 171.54296875 -1.1708984375 144.409179688 -1.19921875 c 0
 118.591796875 -1.19921875 93.53125 26.2646484375 93.53125 70.16015625 c 0
EndSplineSet
EndChar

StartChar: y
Encoding: 121 121 72
Width: 434
Flags: HW
LayerCount: 2
Fore
SplineSet
349.276367188 450 m 1
 382.103897395 427.369168238 393.661718453 328.250520671 393.661718453 285.870623695 c 0
 393.661718453 133.757622645 302.661420069 31.6451300046 213.044921875 -65.9091796875 c 0
 182.088598315 -99.6074700287 149.319335938 -142 117.662109375 -142 c 0
 117.139882983 -142 116.638281507 -142.05531597 116.164926328 -142.05531597 c 0
 113.796874855 -142.05531597 112.135742187 -140.670925698 112.135742188 -124.05078125 c 0
 112.135742188 -78.224609375 171.369140625 -36.3154296875 195.189453125 -11.7666015625 c 2
 205.814453125 -0.81640625 l 1
 198.08984375 12.634765625 l 2
 135.814961312 123.012273318 42.349609375 225.597732149 42.349609375 382.99609375 c 0
 42.349609375 430.270507812 55.021484375 453.005859375 92.216796875 453.005859375 c 1
 154.539624776 402.884492168 158.83743248 244.990304437 196.18359375 145.780273438 c 0
 200.515236798 134.123975991 205.306640625 96 234.869140625 96 c 0
 299.844726562 96 301.276367188 174.598632812 301.276367188 230.19140625 c 0
 301.276367188 259.630859375 300.004882812 291.046875 300.004882812 320.815429688 c 0
 300.004882812 404.819335938 311.596679688 450 349.276367188 450 c 1
EndSplineSet
EndChar

StartChar: z
Encoding: 122 122 73
Width: 374
Flags: HW
LayerCount: 2
Fore
SplineSet
203.733398438 488.23046875 m 0
 206.374439224 488.23046875 208.949266286 488.231887667 211.459172713 488.231887667 c 0
 277.044856208 488.231887667 298.301757812 487.263030089 298.301757812 434.69140625 c 0
 298.301757812 351.779255267 216.858385534 258.856330473 197.735351562 169.27734375 c 1
 201.325490583 148.292336797 221.140868722 139.859187588 233.026574698 139.859187588 c 0
 234.207037864 139.859187588 235.309282409 139.942372527 236.309644354 140.104707405 c 0
 236.636565174 140.104707405 236.95320376 140.106795036 237.258789062 140.110351562 c 0
 275.063476562 140.110351562 312.2109375 158.7109375 333.330078125 164.833984375 c 1
 337.586914062 151.962890625 339.4296875 142.166992188 339.4296875 131.40625 c 0
 339.4296875 77.3955078125 285.057617188 40 231.26953125 40 c 0
 167.91015625 40 91.830078125 63.6533203125 74.7890625 95.61328125 c 1
 104.720885931 197.84305899 197.891252188 295.875088094 228.762695312 405.330078125 c 1
 220.043945312 433 l 1
 185.850585938 433 l 1
 145.548242141 417.203269963 98.9257706366 395 57.787109375 395 c 0
 50.865234375 395 41.140625 402.595703125 41.140625 427.295898438 c 0
 41.140625 464.163085938 68.6962890625 491 82.630859375 491 c 0
 120.885742188 491 140.872070312 488 176.274414062 488 c 0
 183.451171875 488 192.932617188 488.23046875 203.733398438 488.23046875 c 0
EndSplineSet
EndChar

StartChar: sterling
Encoding: 163 163 74
Width: 912
Flags: HW
LayerCount: 2
Fore
SplineSet
645.846679688 525 m 0
 637.348491825 525 638.215820312 524.64805413 638.215820312 534.008789062 c 0
 638.215820312 566.6875 718.813476562 632.55078125 718.813476562 733.313476562 c 0
 718.813476562 749.075195312 717.434570312 770.055664062 709.49609375 788.016601562 c 2
 702.693359375 803.405273438 l 1
 680.181640625 801.9140625 l 2
 578.170898438 795.159179688 459.8984375 620.479492188 459.8984375 527.5234375 c 0
 459.8984375 505.065429688 466.428710938 482.931640625 487.774414062 467.122070312 c 2
 496.041015625 461 l 1
 724.59375 461 l 1
 729.276367188 458.397460938 741.4921875 447.479492188 741.4921875 431.280273438 c 0
 741.4921875 388.620117188 687.00390625 344 654.626953125 344 c 2
 425.700195312 344 l 1
 418.884765625 340.959960938 l 2
 387.715820312 327.057617188 359.173828125 286.638671875 359.173828125 251.411132812 c 0
 359.173828125 243.336315383 361.617327872 234.856559539 364.795898438 227.655273438 c 1
 399.375583814 195.578285807 450.029205153 190.55078125 494.350585938 190.55078125 c 0
 512.75390625 190.55078125 530.58984375 191.193359375 546.67578125 191.193359375 c 0
 558.073842208 191.193359375 568.288156675 190.815028881 577.62109375 189.975585938 c 2
 579.380859375 189.975585938 l 2
 730.387695312 189.975585938 779.040039062 267.782226562 864.583984375 275.420898438 c 1
 866.725585938 267.2890625 867.5546875 261.0078125 867.5546875 253.215820312 c 1
 838.83984375 172.56640625 734.594726562 67.998046875 651.200195312 67.998046875 c 0
 628.426757812 67.998046875 601.987304688 69 591.71484375 69 c 0
 491.7421875 69 385.58203125 86 279.201171875 86 c 0
 193.034179688 86 160.009765625 31 120.787109375 31 c 0
 87.2255859375 31 54.4501953125 64.2216796875 54.4501953125 108.569335938 c 0
 54.4501953125 176.272460938 215.6015625 166.927734375 215.6015625 284.311523438 c 0
 215.6015625 297.32421875 212.8046875 311.28125 207.158203125 326.41015625 c 0
 195.67578125 357.178710938 165.663085938 375.872070312 164.29296875 378.713867188 c 0
 160.369140625 391.55078125 159.595703125 397.912109375 159.595703125 405.237304688 c 0
 159.595703125 452.338867188 227.373046875 434.306640625 246.166015625 492.134765625 c 1
 301.403320312 672.13671875 383.162109375 864 650.196289062 864 c 0
 758.412109375 864 834.805664062 806.831054688 834.805664062 712.322265625 c 0
 834.805664062 615.803710938 748.266601562 528.153320312 645.846679688 525 c 0
EndSplineSet
EndChar

StartChar: section
Encoding: 167 167 75
Width: 599
Flags: HW
LayerCount: 2
Fore
SplineSet
412.921875 299.520507812 m 0
 392.431640625 355.68359375 317.09765625 440 241.990234375 440 c 0
 199.251953125 440 193.591796875 401.555664062 193.591796875 384.114257812 c 0
 193.591796875 365.40625 197.936523438 347.6796875 201.407226562 338.169921875 c 0
 221.03515625 284.37109375 292.0625 202 365.16015625 202 c 0
 408.424804688 202 421.025390625 234.82421875 421.025390625 257.6015625 c 0
 421.025390625 272.4453125 417.416015625 287.196289062 412.921875 299.520507812 c 0
317.211914062 803 m 1
 253.769445463 800.298020928 213.46484375 734.025377028 213.46484375 682.208984375 c 0
 213.46484375 671.874023438 215.032226562 661.481445312 218.680664062 651.483398438 c 0
 258.978515625 541.034179688 500.720703125 501.924804688 541.966796875 371.109375 c 0
 550.362304688 344.482421875 554.008789062 320.01171875 554.008789062 297.369140625 c 0
 554.008789062 227.981445312 520.665039062 174.547851562 473.017578125 128.905273438 c 0
 467.425482934 122.933113367 465.537069019 116.57172506 465.537069019 110.688791992 c 0
 465.537069019 99.4755555288 472.397814975 90.0005819603 473.548828125 88.2724609375 c 0
 491.049902109 35.5991487155 517.35546875 4.85759125522 517.35546875 -55.8251953125 c 0
 517.35546875 -163.90625 417.088867188 -232.899414062 295.383789062 -234 c 0
 196.521484375 -234 101.467773438 -199.333007812 79.673828125 -130.213867188 c 0
 76.966796875 -121.627929688 75.8212890625 -113.76953125 75.8212890625 -106.444335938 c 0
 75.8212890625 -58.275390625 132.108398438 -21.6435546875 174.420898438 -20 c 0
 178.68359375 -20 183.682617188 -19.7578125 186.307617188 -19.7578125 c 1
 187.67578125 -27.205078125 188.859375 -31.2470703125 188.859375 -38.76171875 c 0
 188.859375 -52.890625 186.517578125 -68.6650390625 186.517578125 -87.4296875 c 0
 186.517578125 -114.393554688 191.8515625 -176 254.091796875 -176 c 0
 324.635742188 -176 355.2109375 -108.140625 355.2109375 -55.955078125 c 0
 355.2109375 -40.6484375 352.798828125 -25.26953125 347.509765625 -10.7705078125 c 0
 294.274414062 135.126953125 55.6591796875 163.067382812 55.6591796875 344.021484375 c 0
 55.6591796875 414.918603978 104.919286797 461.44560065 117.263671875 541.211914062 c 1
 98.7362179567 599.987332504 62.8212890625 628.094655916 62.8212890625 693.377929688 c 0
 62.8212890625 793.744140625 173.616210938 845.623046875 285.240234375 846 c 0
 381.428710938 846 454.893554688 815.686523438 477.962890625 742.524414062 c 0
 483.48046875 725.026367188 485.975585938 708.856445312 485.975585938 694.529296875 c 0
 485.975585938 645.623046875 459.510742188 616.904296875 412.950195312 616 c 0
 396.780273438 616 389.41015625 618.00390625 388.227539062 618.506835938 c 0
 384.317382812 629.626953125 383.233398438 639.677734375 383.233398438 650.796875 c 0
 383.233398438 663.8828125 385.041992188 678.458007812 385.041992188 695.350585938 c 0
 385.041992188 716.16015625 382.153320312 803 317.787109375 803 c 2
 317.211914062 803 l 1
EndSplineSet
EndChar

StartChar: fi
Encoding: 259 64257 76
Width: 427
Flags: HW
LayerCount: 2
Fore
SplineSet
273.165039062 664.951171875 m 0
 273.165039062 686.883801046 261.303073217 702.007045753 241.264648438 710 c 1
 237.708007812 710 l 2
 143.778320312 710 130.227539062 489.140625 130.227539062 382.607421875 c 0
 130.227539062 380.812264722 130.226945525 379.0350983 130.226945525 377.275777094 c 0
 130.226945525 340.866911136 132.674824738 315.786985127 140.217773438 291.782226562 c 2
 144.624023438 277.790039062 l 1
 153.974609375 277.790039062 l 1
 154.72265625 275.215820312 l 1
 169.45703125 274.380859375 l 2
 172.47918724 274.18801991 185.537242933 273.044921875 190.952148438 273.044921875 c 0
 323.376953125 273.044921875 258.720703125 498.548828125 325.65625 498.548828125 c 0
 336.711914062 498.548828125 350.279296875 483.732421875 360.731445312 448.208984375 c 0
 383.24609375 371.69140625 386.798828125 355.061523438 386.798828125 324.787109375 c 0
 386.798828125 303.193359375 384.603515625 273.135742188 384.603515625 214.606445312 c 0
 384.603515625 208.170898438 384.633789062 200.779296875 384.69140625 193.958007812 c 0
 384.07421875 144.231445312 373.6640625 24.927734375 364.448242188 6.5849609375 c 1
 328.904296875 8.462890625 292.875976562 32.755859375 286.872070312 68.3544921875 c 2
 260.594726562 216.868164062 l 1
 234.174804688 187.344726562 l 2
 214.829101562 165.727539062 196.232421875 150.975585938 177.416992188 148.690429688 c 2
 153.5859375 145.952148438 l 1
 160.002929688 122.409179688 l 1
 158.120117188 106.09375 157.940429688 97.2099609375 157.940429688 82.724609375 c 0
 157.940429688 27.29296875 166.844726562 -37.4453125 166.844726562 -92.2578125 c 0
 166.844726562 -154.086914062 153.26953125 -187.692382812 123.155273438 -197.955078125 c 1
 93.0224609375 -196.979492188 84.05078125 -188.198242188 74.6494140625 -158.383789062 c 0
 52.1455078125 -83.734375 47.1904296875 -15.72265625 47.1904296875 52.5439453125 c 0
 47.1904296875 105.0390625 50.189453125 157.643554688 50.189453125 212.81640625 c 0
 50.189453125 221.938476562 50.103515625 230.615234375 50.103515625 239.606445312 c 0
 50.103515625 450.211914062 78.9375 744 245.465820312 744 c 0
 296.705078125 744 322.05078125 732.813476562 336.137695312 688.140625 c 0
 340.805664062 673.338867188 343.176757812 657.631835938 343.176757812 643.23046875 c 0
 343.176757812 604.212890625 328.478515625 587 312.377929688 587 c 0
 293.380473021 587 279.123570831 596.941695682 271.73046875 619.86328125 c 0
 270.510000214 622.196392037 269.641601562 623.656075512 269.641601562 629.086914062 c 0
 269.641601562 637.013671875 273.165039062 650.529296875 273.165039062 664.951171875 c 0
EndSplineSet
EndChar

StartChar: fl
Encoding: 260 64258 77
Width: 673
Flags: HW
LayerCount: 2
Fore
SplineSet
453.588867188 174.036132812 m 1
 443.852539062 166.256835938 l 1
 445.899414062 154.373046875 l 2
 450.807617188 125.891601562 468.360351562 91 510.637695312 91 c 0
 582.177734375 91.892578125 613.096679688 186.712890625 629.151367188 205.881835938 c 1
 633.177734375 194.534179688 636.973632812 177.650390625 636.973632812 163.716796875 c 0
 636.973632812 69.38671875 538.3125 -9.193359375 448.15625 -9.193359375 c 0
 374.889648438 -9.193359375 352.95703125 138.950195312 252.817382812 138.950195312 c 0
 184.916992188 138.950195312 165.998046875 90.509765625 165.998046875 43.41796875 c 0
 165.998046875 -10.1240234375 183.467773438 -75.4814453125 183.467773438 -124.670898438 c 0
 183.467773438 -167.272460938 172.1953125 -185.763671875 140.2109375 -191.985351562 c 1
 98.9658203125 -190.859375 92.0966796875 -179.813476562 82.06640625 -148.000976562 c 0
 60.5263671875 -76.5546875 47.1904296875 57.55078125 47.1904296875 200.194335938 c 0
 47.1904296875 473.111328125 100.844726562 739.131835938 181.479492188 754.98046875 c 1
 204.866210938 754.379882812 208.6796875 752.74609375 216.232421875 730.956054688 c 0
 221.827148438 713.81640625 226.713867188 669.787109375 226.713867188 627.666992188 c 0
 226.713867188 601.559570312 223.901367188 574.578125 220.90625 557.4140625 c 1
 221.29296875 565.293945312 221.919921875 572.928710938 221.919921875 582.065429688 c 0
 221.919921875 596.360351562 218.745117188 612.0078125 213.740234375 624.87109375 c 0
 211.639899857 631.104344576 199.790542215 657.169910659 178.535598667 657.169910659 c 0
 170.763625805 657.169910659 162.838136904 654.081107175 158.366210938 646.375 c 0
 144.846679688 623.87890625 143.211914062 587.318359375 143.211914062 545.6796875 c 0
 143.211914062 452.088735931 156.827521904 327.386020645 159.795898438 277.654296875 c 0
 159.936910653 276.404415871 162.157701349 246 192.739257812 246 c 2
 294.595703125 246 l 1
 297.106445312 263.903320312 l 2
 320.68359375 432.084960938 390.88671875 727.009765625 527.469726562 755.961914062 c 1
 570.557617188 754.09765625 591.13671875 716.817382812 607.840820312 663.83984375 c 0
 623.610351562 613.826171875 630.42578125 568.109375 630.42578125 526.237304688 c 0
 630.42578125 365.797851562 548.469726562 252.473632812 453.588867188 174.036132812 c 1
470.122070312 284 m 1
 539.714665717 328.569367673 561.361328125 437.929808595 561.361328125 542.63671875 c 0
 561.361328125 584.645889878 557.411653295 625.714907551 550.182617188 661.58984375 c 0
 547.490132916 670.113290891 539.564443944 691 516.083984375 691 c 0
 440.7890625 691 425.022460938 428.184570312 425.022460938 346.357421875 c 0
 425.022460938 341.963867188 424.842773438 336.920898438 424.842773438 331.686523438 c 0
 424.842773438 321.793945312 424.143554688 284 462.853515625 284 c 2
 470.122070312 284 l 1
EndSplineSet
EndChar

StartChar: AE
Encoding: 198 198 78
Width: 1110
Flags: HW
LayerCount: 2
Fore
SplineSet
464.712890625 317 m 1
 480.689810079 325.400377554 494.23046875 336.579431888 494.23046875 354.255859375 c 0
 494.23046875 361.625976562 492.21484375 368.291992188 489.942382812 374.4765625 c 0
 485.56640625 386.395507812 479.189453125 398.87890625 473.274414062 414.984375 c 0
 457.143554688 458.930664062 427.086914062 569 367.528320312 569 c 2
 352.893554688 569 l 1
 346.434570312 557.827148438 l 2
 324.587890625 520.038085938 273.587890625 438.416992188 273.587890625 371.345703125 c 0
 273.587890625 363.448242188 270.778320312 317 316.306640625 317 c 2
 464.712890625 317 l 1
999.72265625 401.985351562 m 0
 1011.44928242 401.985351562 1007.85742188 400.339871733 1007.85742188 383.65234375 c 0
 1007.85742188 337.0859375 968.282226562 290 946.494140625 290 c 2
 735.090820312 290 l 2
 711.454101562 290 705.934570312 265.672851562 705.934570312 254.158203125 c 0
 705.934570312 239.415039062 710.282226562 225.001953125 712.455078125 216.926757812 c 0
 730.5234375 150.094726562 782.875 90 845.178710938 90 c 0
 951.159179688 90 1030.11328125 192.333007812 1059.5390625 193 c 1
 1063.45703125 191.313476562 1075.09570312 176.076171875 1075.09570312 153.6015625 c 0
 1075.09570312 55.2763671875 869.77734375 -29 782.954101562 -29 c 0
 676.2734375 -29 591.86328125 98.0224609375 534.33984375 212.703125 c 1
 528.604492188 223.206054688 l 1
 517.010742188 222.99609375 l 2
 480.17578125 222.375976562 452.251953125 199.719726562 435.923828125 199.719726562 c 0
 413.9609375 199.719726562 370.747070312 201.60546875 330.041015625 201.60546875 c 0
 141.436523438 197.190429688 205.669921875 -14.9287109375 105.912109375 -14.9287109375 c 0
 101.494143167 -14.9287109375 96.3511165956 -14.606468977 91.3212890625 -14.095703125 c 2
 90.30078125 -14.095703125 l 2
 88.345703125 -14.095703125 87.15625 -14.080078125 84.6142578125 -14 c 0
 67.255859375 -14 42.349609375 6.1396484375 42.349609375 30.9716796875 c 0
 42.349609375 68.708984375 90.41015625 121.676757812 90.41015625 166.90234375 c 0
 90.41015625 203.551398068 51.1538517843 235.30556284 48.8310546875 243.077148438 c 0
 46.439453125 251.0703125 45.5693359375 257.405273438 45.5693359375 262.172851562 c 0
 45.5693359375 305.939453125 111.750976562 276.6484375 160.396484375 330.586914062 c 0
 188.157226562 362.53125 287.411132812 680.384765625 287.411132812 753.798828125 c 0
 287.411132812 785.074931426 254.150279564 809.528163929 248.837890625 813.921875 c 1
 260.303710938 817.301757812 300.354492188 820.173828125 328.677734375 830 c 1
 333.504882812 830 l 2
 423.639648438 830 496.986328125 750.137695312 539.854492188 662.965820312 c 2
 545.248046875 652 l 1
 593.5703125 652 l 1
 599.325195312 661.021484375 l 2
 658.77734375 754.217773438 745.4140625 830 854.674804688 830 c 0
 925.208984375 830 971.774414062 802.319335938 992.366210938 737.008789062 c 0
 999.239257812 715.212890625 1002.39160156 693.62109375 1002.39160156 672.780273438 c 0
 1002.39160156 574.760742188 934.211914062 497.069335938 857.180664062 492.998046875 c 0
 853.809570312 493.094726562 841.446289062 500.418945312 839.298828125 502.567382812 c 1
 837.9609375 507.317382812 837.55078125 510.759765625 837.55078125 515.240234375 c 0
 837.55078125 556.625976562 906.58984375 622.306640625 906.58984375 706.760742188 c 0
 906.58984375 714.440429688 906.008789062 721.806640625 904.563476562 730.138671875 c 0
 899.2734375 756.91796875 875.770507812 764 862.794921875 764 c 0
 773.493164062 761.723632812 667.78515625 612.545898438 667.78515625 493.922851562 c 0
 667.78515625 466.6875 673.870117188 441.455078125 684.000976562 421.640625 c 2
 688.666015625 412.512695312 l 1
 750.04324193 403.186190283 824.243550617 400 892.4140625 400 c 0
 931.896484375 400 968.83984375 401.985351562 999.72265625 401.985351562 c 0
EndSplineSet
EndChar

StartChar: OE
Encoding: 261 338 79
Width: 1268
Flags: HW
LayerCount: 2
Fore
SplineSet
1019.765625 290 m 1
 1013.40638284 287.6739832 1005.89081245 286.5234375 987.66796875 286.5234375 c 0
 968.012695312 286.5234375 942.428710938 287.76953125 917.703125 287.76953125 c 0
 915.842009811 287.76953125 913.848513457 287.774930228 911.744846032 287.774930228 c 0
 878.330438248 287.774930228 817.120117188 286.412780186 817.120117188 240.416015625 c 0
 817.120117188 227.026367188 823.485351562 215.823242188 824.063476562 214.036132812 c 0
 848.145507812 139.580078125 921.872070312 106 980.30078125 106 c 0
 1110.74414062 106 1184.57128906 191.170898438 1226.90039062 204.990234375 c 1
 1230.63476562 194.053710938 1231.91113281 186.358398438 1231.91113281 174.850585938 c 0
 1231.91113281 65.146484375 1021.01269531 -23.681640625 901.529296875 -23.681640625 c 0
 816.374023438 -23.681640625 750.603515625 40.611328125 677.046875 84.3818359375 c 2
 662.203125 93.2158203125 l 1
 648.354492188 83.2802734375 l 2
 577.060546875 32.1220703125 485.032226562 -29 376.55859375 -29 c 0
 216.666992188 -29 108.655273438 97.5576171875 64.2001953125 245.354492188 c 0
 49.20703125 295.20703125 42.349609375 344.3125 42.349609375 391.615234375 c 0
 42.349609375 631.484375 220.692382812 823 442.868164062 823 c 2
 446.09765625 823 l 1
 455.525659224 825.238707105 465.886868325 826.837890625 475.297851562 826.837890625 c 0
 566.22265625 826.837890625 643.227539062 709.495117188 715.094726562 663.078125 c 2
 733.021484375 651.5 l 1
 747.428710938 666.201171875 l 2
 826.594726562 746.978515625 921.282226562 830 1047.43457031 830 c 0
 1130.95019531 830 1183.16894531 771.978515625 1183.16894531 681.8828125 c 0
 1183.16894531 581.350585938 1103.24902344 496.71484375 1005.9609375 492.98046875 c 0
 1002.93554688 493.095703125 999.956054688 493.80078125 998.1015625 494.311523438 c 1
 1015.64648438 520.512695312 1085.81933594 601.692382812 1085.81933594 690.928710938 c 0
 1085.81933594 706.73828125 1083.79785156 722.006835938 1078.46875 739.134765625 c 0
 1067.16015625 769.881835938 1035.578125 772 1014.89746094 772 c 0
 904.038085938 769.534179688 781.629882812 595.236328125 781.629882812 475.733398438 c 0
 781.629882812 463.124175824 782.432512756 448.954524676 786.391601562 437.591796875 c 0
 789.7265625 427.990234375 801.780273438 395 838.684570312 395 c 2
 1180.14746094 395 l 1
 1182.03320312 391.61328125 1182.2421875 390.954101562 1182.3515625 390.708007812 c 0
 1178.52636719 336.094726562 1142.24023438 290.663085938 1081.26367188 289 c 0
 1068.7109375 289 1053.65820312 290 1037.39648438 290 c 2
 1019.765625 290 l 1
347.317382812 718 m 1
 229.810291273 698.05171189 195.928710938 577.755529332 195.928710938 463.404296875 c 0
 195.928710938 392.637695312 208.876953125 319.50390625 229.399414062 259.434570312 c 0
 262.783203125 164.21484375 329.642578125 65 459.037109375 65 c 2
 460.931640625 65 l 1
 582.177124362 82.3026748877 615.485351562 210.1341916 615.485351562 324.62109375 c 0
 615.485351562 389.4765625 604.765625 454.23046875 587.401367188 505.359375 c 0
 552.403320312 605.184570312 476.895507812 718 349.6484375 718 c 2
 347.317382812 718 l 1
EndSplineSet
EndChar

StartChar: ae
Encoding: 230 230 80
Width: 823
Flags: HW
LayerCount: 2
Fore
SplineSet
668.463867188 652 m 0
 603.74609375 652 580.04296875 593.81640625 580.04296875 549.77734375 c 0
 580.04296875 540.625976562 580.954101562 531.44921875 582.794921875 522.485351562 c 2
 586.1875 505.948242188 l 1
 605.505859375 506 l 2
 647.084960938 506.112304688 724.528320312 525.828125 724.528320312 592.5 c 0
 724.528320312 601.340820312 723.034179688 610.5234375 720.064453125 619.94140625 c 0
 710.252697897 651.064113987 678.28396815 652.003882158 669.797150997 652.003882158 c 0
 669.251680704 652.003882158 668.803213593 652 668.463867188 652 c 0
349.838867188 668 m 1
 247.558601694 663.843734794 181.989257812 560.375887348 181.989257812 465.280273438 c 0
 181.989257812 420.778320312 197.8671875 338 272.533203125 338 c 0
 378.564453125 338 424.341796875 441.588867188 424.341796875 533.270507812 c 0
 424.341796875 563.268554688 419.791015625 593.361328125 410.103515625 622.310546875 c 0
 403.096679688 641.958984375 387.096679688 668 350.352539062 668 c 2
 349.838867188 668 l 1
445.943359375 317.135742188 m 2
 440.965820312 331.579101562 l 1
 387.154296875 331.579101562 l 1
 380.509765625 321.395507812 l 2
 329.112304688 242.583984375 266.36328125 177.297851562 178.493164062 177.297851562 c 0
 103.647460938 177.297851562 43.5595703125 262.198242188 43.5595703125 369.850585938 c 0
 43.5595703125 573.047851562 281.939453125 764 429.723632812 764 c 0
 439.84765625 764 468.963867188 694 536.970703125 694 c 0
 606.295898438 694 643.838867188 749 675.663085938 749 c 0
 737.16015625 749 788.202148438 683.638671875 788.202148438 600.79296875 c 0
 788.202148438 499.543945312 690.552734375 464.087890625 594.61328125 444.278320312 c 0
 569.744140625 439.3125 567.107421875 416.772460938 567.107421875 406.8125 c 0
 567.107421875 380.92578125 580.049804688 348.896484375 586.396484375 329.86328125 c 0
 605.66796875 272.317382812 643.567382812 265 675.938476562 265 c 0
 722.666015625 265 751.947265625 303.12890625 767.686523438 322.905273438 c 1
 768.877929688 314.87890625 769.024414062 310.860351562 769.024414062 303.76953125 c 0
 769.024414062 219.926757812 678.543945312 170.46484375 600.883789062 170 c 0
 502.6875 170 484.932617188 203.98046875 445.943359375 317.135742188 c 2
EndSplineSet
EndChar

StartChar: oe
Encoding: 262 339 81
Width: 899
Flags: HW
LayerCount: 2
Fore
SplineSet
606.229492188 394.17578125 m 1
 615.511095811 374.895260373 631.796592753 367 647.563476562 367 c 0
 726.66796875 367 747.728515625 511.846679688 747.728515625 589.877929688 c 0
 747.728515625 615.41015625 745.63671875 638.634765625 739.967773438 657.546875 c 0
 735.793945312 669.46484375 723.891601562 689 696.48046875 689 c 0
 604.809570312 689 589.012695312 545.161132812 589.012695312 477.619140625 c 0
 589.012695312 459.500351682 590.335443327 443.883576056 593.041015625 430.874023438 c 1
 606.229492188 394.17578125 l 1
628.21875 160 m 0
 585.875 160 545.140625 186.69921875 502.998046875 225.782226562 c 2
 486.938476562 240.674804688 l 1
 470.004882812 226.525390625 l 2
 411.2578125 177.444335938 377.69140625 153 297.697265625 153 c 0
 153.8671875 153 42.349609375 280.91015625 42.349609375 449.120117188 c 0
 42.349609375 622.1953125 177.602539062 758.081054688 319.56640625 763 c 0
 332.124023438 763 344.732421875 759.862304688 352.19921875 756.686523438 c 1
 295.413085938 701.305664062 177.412109375 609.176757812 177.412109375 479.111328125 c 0
 177.412109375 440.64453125 190.654296875 398.7265625 204.477539062 370.221679688 c 1
 228.346679688 303.686523438 285.919921875 241 360.466796875 241 c 0
 436.723632812 241 468.021484375 301.731445312 468.021484375 362.647460938 c 0
 468.021484375 387.979492188 463.233398438 414.944335938 454.134765625 441.713867188 c 0
 425.413085938 526.213867188 351.772460938 584.455078125 339.875 619.462890625 c 0
 338.96875 621.985351562 338.709960938 623.793945312 338.709960938 625.411132812 c 0
 338.709960938 641.755859375 397.494140625 661.725585938 434.006835938 663 c 0
 448.9609375 663 482.512695312 645 524.112304688 645 c 0
 592.075195312 645 638.026367188 740 717.768554688 740 c 0
 796.232421875 740 858.990234375 672.169921875 858.990234375 574.639648438 c 0
 858.990234375 456.42578125 754.486328125 389.821289062 675.088867188 312.678710938 c 1
 665.779296875 303.8828125 l 1
 669.692382812 292.245117188 l 2
 679.702148438 262.479492188 711.16015625 257 725.880859375 257 c 0
 795.080078125 257 824.646484375 319.336914062 846.169921875 320.00390625 c 0
 848.702148438 319.528320312 859.392578125 310.451171875 859.392578125 296.16796875 c 0
 859.392578125 233.395507812 681.140625 160 628.21875 160 c 0
EndSplineSet
EndChar

StartChar: onehalf
Encoding: 189 189 82
Width: 1017
Flags: HW
LayerCount: 2
Fore
SplineSet
932.366210938 295.340820312 m 0
 932.366210938 208.763671875 842.287109375 147.490234375 842.287109375 62.6689453125 c 0
 842.287109375 53.2763671875 844.215820312 44.38671875 846.99609375 36.978515625 c 2
 852.2421875 23 l 1
 866.928710938 23 l 2
 902.831054688 23 941.075195312 27.990234375 972.4140625 30.0791015625 c 1
 968.20703125 -25.96484375 934.288085938 -59.6591796875 880.762695312 -70.111328125 c 1
 862.265625 -69.83203125 857.123046875 -69 847.89453125 -69 c 0
 773.55078125 -69 706.038085938 -61.302734375 706.038085938 -20.8369140625 c 0
 706.038085938 34.8187187791 836.139805381 122.786755965 836.139805381 250.654696792 c 0
 836.139805381 264.666200402 834.792205183 278.011116844 831.6171875 292.0859375 c 1
 826.288085938 305.614257812 l 1
 825.626953125 311.625976562 826.044921875 317.79296875 822.2109375 327.524414062 c 0
 814.806316561 346.321241815 797.386954962 374.036132812 755.821289062 374.036132812 c 0
 718.85546875 374.036132812 706.5 348.711914062 706.5 329.612304688 c 0
 706.5 293.478515625 731.638671875 242.6875 731.638671875 220.735351562 c 2
 731.580078125 219.061523438 l 1
 696.852539062 227.764648438 667.94921875 277.7109375 667.94921875 326.268554688 c 0
 667.94921875 387.234375 720.7265625 424 793.732421875 424 c 0
 876.23828125 424 932.366210938 378.083984375 932.366210938 295.340820312 c 0
643.875 888 m 0
 669.966796875 888 692.903320312 868.078125 702.727539062 836.36328125 c 0
 702.901367188 835.76953125 703.54296875 831.94140625 703.54296875 827.875976562 c 0
 703.54296875 687.989257812 285.586914062 9 209.6875 9 c 0
 203.413085938 9 187.514648438 19.55859375 180.475585938 31.3974609375 c 1
 189.341796875 202.399414062 367.584960938 431.81640625 431.6875 585.42578125 c 0
 468.39453125 673.39453125 570.602539062 888 643.875 888 c 0
98.857421875 403 m 0
 77.150390625 403 72.9599609375 405.287109375 68.38671875 419.788085938 c 0
 63.74609375 434.504882812 61.857421875 448.397460938 61.857421875 462.126953125 c 0
 61.857421875 528.7578125 114.303710938 594.833007812 114.303710938 679.888671875 c 0
 114.303710938 697.272460938 111.836914062 715.35546875 105.971679688 733.954101562 c 0
 85.7744140625 798.01953125 54.4501953125 758.615234375 54.4501953125 787.44140625 c 0
 54.4501953125 827.984375 152.15234375 881 191.856445312 881 c 0
 196.329740819 881 199.124609305 881.136257942 200.913744944 881.136257942 c 0
 205.202114154 881.136257942 203.712444753 880.353442057 205.708007812 875.03515625 c 0
 212.18359375 857.752929688 214.713867188 840.8671875 214.713867188 823.767578125 c 0
 214.713867188 772.342773438 189.672851562 719.004882812 183.50390625 660.703125 c 0
 171.749023438 544.822265625 195.690429688 403 98.857421875 403 c 0
EndSplineSet
EndChar

StartChar: onequarter
Encoding: 188 188 83
Width: 989
Flags: HW
LayerCount: 2
Fore
SplineSet
54.4501953125 787.482421875 m 0
 54.4501953125 824.000976562 157.25390625 884.247070312 201.671875 886 c 0
 206.435546875 886 219.139648438 871.4140625 219.139648438 835.147460938 c 0
 219.139648438 786.895507812 199.106445312 728.42578125 194.391601562 690.02734375 c 0
 180.728515625 578.709960938 210.275390625 402 109.778320312 402 c 0
 83.9970703125 402 72.458984375 408.633789062 67.05078125 425.787109375 c 0
 62.8671875 439.056640625 61.142578125 451.729492188 61.142578125 464.397460938 c 0
 61.142578125 528.6328125 113.76171875 595.383789062 113.76171875 679.171875 c 0
 113.76171875 695.845703125 111.415039062 713.12890625 105.840820312 730.80859375 c 0
 86.666015625 791.618164062 54.4501953125 761.708984375 54.4501953125 787.482421875 c 0
185.590820312 37.7470703125 m 1
 218.8984375 239.049804688 558.451171875 894 653.268554688 894 c 0
 673.693359375 894 698.23046875 862.6796875 698.23046875 821.256835938 c 0
 698.23046875 668.280273438 414.669921875 241.583984375 341.552734375 135.20703125 c 0
 310.232421875 89.470703125 262.502929688 15 211.701171875 15 c 0
 195.268554688 15 189.717773438 21.53125 185.590820312 37.7470703125 c 1
825.884765625 -71 m 0
 822.564310851 -71 819.674257656 -71.0133529283 817.15162746 -71.0133529283 c 0
 799.726301218 -71.0133529283 799.832552391 -70.376218356 796.712890625 -60.2998046875 c 0
 791.185546875 -44.818359375 789.418945312 -31.4375 789.418945312 -17.7822265625 c 0
 789.418945312 5.1904296875 795.411132812 29.67578125 795.411132812 60.5078125 c 0
 795.411132812 73.728515625 794.201171875 88.0380859375 790.756835938 103.651367188 c 2
 787.149414062 120 l 1
 656.041992188 120 l 1
 650.158203125 123.704101562 650.202148438 123.760742188 648.46484375 124.967773438 c 1
 640.767578125 148.034179688 638.674804688 165.709960938 638.674804688 191.57421875 c 0
 638.674804688 303.856445312 693.365234375 423 771.709960938 423 c 0
 777.62109375 423 781.655273438 422.799804688 782.291992188 422.729492188 c 0
 784.876464885 415.946891252 786.697265625 408.251514035 786.697265625 401.40234375 c 0
 786.697265625 355.221679688 703.197265625 302.349609375 703.197265625 224.436523438 c 0
 703.197265625 218.266601562 703.814453125 211.965820312 705.135742188 205.573242188 c 2
 708.560546875 189 l 1
 790.265625 189 l 2
 841.42578125 189 840.689453125 283 907.58203125 283 c 0
 909.584960938 283 912.638671875 283.1328125 913.3828125 283.169921875 c 0
 917.244140625 263.649414062 920.021484375 238.265625 925.045898438 222.159179688 c 0
 932.461914062 198.639648438 938.685546875 195.189453125 945.560546875 182.995117188 c 1
 945.560546875 168.33203125 924.241210938 164.077148438 908.620117188 124.64453125 c 1
 893.3828125 89.53515625 892.873046875 52.2265625 892.873046875 21.3271484375 c 0
 892.873046875 17.7109375 892.8828125 14.1650390625 892.8828125 10.701171875 c 0
 892.8828125 5.90984730199 892.906105049 1.34416710911 892.906105049 -2.99973009711 c 0
 892.906105049 -49.9593871057 890.183981892 -71 825.884765625 -71 c 0
EndSplineSet
EndChar

StartChar: threequarters
Encoding: 190 190 84
Width: 1131
Flags: HW
LayerCount: 2
Fore
SplineSet
935.318359375 423.170898438 m 0
 939.548180461 423.122910192 938.943359375 411.793074006 938.943359375 409.756835938 c 0
 938.943359375 364.29296875 852.19921875 313.397460938 852.19921875 234 c 0
 852.19921875 224.247070312 854.056640625 214.35546875 857.196289062 205.990234375 c 2
 862.451171875 192 l 1
 879.9375 192 l 2
 1005.578125 192 981.994140625 283 1056.66894531 283 c 0
 1057.13769531 283 1062.10644531 282.944335938 1062.10644531 282.944335938 c 1
 1063.796875 273.299804688 1064.68359375 265.984375 1067.95898438 255.599609375 c 0
 1075.3359375 232.208007812 1086.63769531 208.71875 1086.63769531 190.569335938 c 0
 1086.63769531 169 1064.61035156 157.845703125 1054.11230469 112.708007812 c 0
 1029.82128906 3.4482421875 1055.80761719 -71 962.084960938 -71 c 0
 942.047851562 -71 931.528320312 -63.6181640625 931.528320312 -38.814453125 c 0
 931.528320312 -17.2041015625 946.780273438 11.498046875 946.780273438 45.166015625 c 0
 946.780273438 79.7068860512 928.221785963 100.396832833 906.572265625 120 c 1
 800.765625 120 l 1
 796.0703125 126.432617188 791.739257812 133.3515625 789.474609375 137.0625 c 1
 789.349609375 143.0390625 789.375 142.803710938 789.375 147.169921875 c 0
 789.375 252.202148438 821.787109375 423.186523438 915.362304688 423.186523438 c 0
 917.403341291 423.186523438 919.569227908 423.108808012 921.647460938 423 c 2
 922.39453125 423 l 2
 927.399414062 423 931.9296875 423.170898438 935.318359375 423.170898438 c 0
801.3359375 894 m 0
 817.825195312 894 838.192382812 872.030273438 847.961914062 840.579101562 c 0
 848.4609375 838.935546875 849.08984375 835.002929688 849.08984375 829.819335938 c 0
 849.08984375 680.615234375 432.715820312 13 366.22265625 13 c 0
 350.471679688 13 337.84375 21.5048828125 330.622070312 34.412109375 c 1
 374.158203125 252.702148438 536.73046875 485.841796875 634.719726562 691.536132812 c 0
 666.745117188 758.760742188 742.76953125 894 801.3359375 894 c 0
253.38671875 776.942382812 m 0
 253.38671875 806.996581357 230.937886587 822.71037811 208.936523438 836 c 1
 201.245117188 836 l 2
 136.446289062 836 139.661132812 747.782226562 137.565429688 728.186523438 c 1
 120.591796875 735.67578125 98.7861328125 770.697265625 98.7861328125 804.060546875 c 0
 98.7861328125 856.432617188 164.754882812 885.166992188 230.969726562 886 c 0
 297.376953125 886 364.349609375 846.901367188 364.349609375 782.916015625 c 0
 364.349609375 755.532226562 344.13671875 742.040039062 311.046875 707.70703125 c 2
 302.99609375 699.353515625 l 1
 309.6796875 681.596679688 l 1
 352.965320707 639.660855811 401.258124278 628.667825226 411.231445312 602.13671875 c 0
 415.91796875 589.666992188 418.077148438 577.133789062 418.077148438 564.528320312 c 0
 418.077148438 467.526367188 284.727539062 370 192.112304688 370 c 0
 120.000976562 370 54.4501953125 408.809570312 54.4501953125 483.956054688 c 0
 54.4501953125 540.91796875 99.666015625 583.611328125 147.564453125 585 c 0
 148.263671875 585 149.451171875 585.006835938 150.282226562 585.010742188 c 0
 150.303710938 584.010742188 150.299804688 584.698242188 150.299804688 583.698242188 c 0
 150.299804688 565.841796875 131.809570312 536.174804688 131.809570312 494.090820312 c 0
 131.809570312 476.290039062 135.275390625 413 185.579101562 413 c 2
 186.158203125 413 l 1
 263.483050938 416.145417538 293.71875 496.611914704 293.71875 551.588867188 c 0
 293.71875 566.963867188 291.491210938 581.993164062 286.346679688 595.676757812 c 0
 258.630859375 669.419921875 202.190429688 643.122070312 202.190429688 671.307617188 c 0
 202.190429688 688.391601562 253.38671875 730.198242188 253.38671875 776.942382812 c 0
EndSplineSet
EndChar

StartChar: multiply
Encoding: 215 215 85
Width: 693
Flags: HW
LayerCount: 2
Fore
SplineSet
659.814453125 121.762695312 m 0
 660.228515625 120.44921875 660.357421875 119.444335938 660.357421875 118.3828125 c 0
 660.357421875 113.9140625 656.005859375 110.001953125 654.515625 109.05859375 c 1
 611.88671875 113.901367188 455.08984375 300.83203125 366.3203125 300.83203125 c 0
 216.49609375 300.83203125 173.685546875 131 80.8408203125 131 c 0
 71.7958984375 131 59.5732421875 139.055664062 59.5732421875 157.256835938 c 0
 59.5732421875 220.565429688 279.221679688 280.727539062 279.221679688 356.247070312 c 0
 279.221679688 370.370117188 270.701171875 379.864257812 263.719726562 385.662109375 c 0
 196.080054398 444.832495391 128.997152568 504.71812146 60.7646484375 563.203125 c 0
 52.0224609375 570.670898438 39.9296875 621.842773438 39.9296875 647.252929688 c 0
 39.9296875 682.215820312 48.3251953125 696.006835938 84.9658203125 696.006835938 c 0
 160.94140625 696.006835938 251.455078125 552.865234375 345.990234375 491.84765625 c 2
 351.953125 488 l 1
 358.734375 488 l 2
 359.922851562 487.916015625 366.059570312 487.4765625 372.232421875 487.4765625 c 0
 373.352531557 487.4765625 375.11695261 487.406801555 377.32060889 487.406801555 c 0
 386.615619747 487.406801555 403.72527562 488.647952057 413.259765625 501.600585938 c 2
 530.912109375 650.6875 l 2
 540.37890625 662.997070312 558.400390625 673 573.35546875 673 c 0
 595.888671875 673 614.48046875 655.104492188 614.48046875 618.3984375 c 0
 614.48046875 532.221679688 457.604492188 455.534179688 457.604492188 376.889648438 c 0
 457.604492188 373.47227384 458.097454087 369.846477511 458.779296875 366.5625 c 2
 464.918945312 348.986328125 l 1
 531.543440877 278.145663129 638.089682334 190.663397008 659.814453125 121.762695312 c 0
EndSplineSet
EndChar

StartChar: f_f
Encoding: 263 64256 86
Width: 616
Flags: HW
LayerCount: 2
Fore
SplineSet
465.284179688 475.936523438 m 1
 481.222111986 478.176239808 500.553232259 481.479492188 527.352539062 481.479492188 c 0
 555.264648438 481.479492188 568.387695312 474.5859375 572.008789062 460.888671875 c 0
 577.918945312 440.540039062 580.153320312 424.459960938 580.153320312 410.895507812 c 0
 580.153320312 321.334960938 456.809570312 355.927734375 456.809570312 288.203125 c 0
 456.809570312 246.296875 457.522460938 150.638671875 457.522460938 71.7275390625 c 0
 457.522460938 -4.943359375 442.09765625 -37 427.08203125 -37 c 0
 401.71875 -37 376.7890625 -23.9619140625 369.689453125 3.0849609375 c 1
 334.4921875 106.782226562 337.573242188 195.48046875 318.80859375 299.23046875 c 2
 315.762695312 316 l 1
 226.1640625 316 l 2
 194.32365007 316 192.338628 284.907805462 192.338628 268.964453943 c 0
 192.338628 266.693374903 192.37890625 264.729682314 192.37890625 263.20703125 c 0
 192.37890625 217.15234375 205.677734375 139.879882812 205.677734375 75.078125 c 0
 205.677734375 2.056640625 189.493164062 -30 164.575195312 -30 c 0
 120.850585938 -30 100.798828125 -6.6318359375 85.6826171875 44.888671875 c 0
 62.2236328125 121.766601562 44.7705078125 285.3671875 44.7705078125 455.393554688 c 0
 44.7705078125 741.907226562 97.3427734375 1006.21777344 198.34765625 1007.00097656 c 0
 201.744140625 1006.11816406 214.250976562 993.245117188 223.53125 964.14453125 c 0
 233.0703125 935.862304688 240.233398438 882.116210938 240.233398438 834.3203125 c 0
 240.233398438 813.661132812 237.981445312 793.279296875 235.26953125 779.231445312 c 1
 228.797851562 799.392578125 224.02734375 819.375 221.54296875 828.905273438 c 1
 218.954101562 849 l 1
 163.74609375 849 l 1
 164.8984375 831.748046875 l 1
 160.072265625 824.6875 l 1
 163.189453125 814.8359375 l 2
 163.4375 812.793945312 163.98828125 805.301757812 163.98828125 796.149414062 c 0
 163.98828125 772.311523438 162.068359375 730.495117188 162.068359375 685.21875 c 0
 162.068359375 620.004882812 162.78125 543.2578125 196.537109375 495.896484375 c 2
 201.5 489 l 1
 278.760742188 489 l 2
 352.568359375 489 321.139648438 1001 453.31640625 1001 c 0
 469.184570312 1001 481.075195312 988.345703125 490.592773438 956.131835938 c 0
 499.018554688 927.557617188 507.768554688 868.690429688 507.768554688 819.836914062 c 0
 507.768554688 799.59375 504.952148438 780.251953125 502.245117188 769.736328125 c 1
 495.120117188 792.4765625 490.051757812 822.130859375 483.844726562 841.165039062 c 2
 442.264648438 971.384765625 l 1
 432.5234375 839.08203125 l 1
 426.688476562 795.098632812 423.099609375 749.071289062 423.099609375 701.655273438 c 0
 423.099609375 632.407694082 430.331414209 549.323173231 453.405273438 481.239257812 c 1
 465.284179688 475.936523438 l 1
EndSplineSet
EndChar

StartChar: f_f_i
Encoding: 264 64259 87
Width: 747
Flags: HW
LayerCount: 2
Fore
SplineSet
552.686523438 395.796875 m 2
 551.842773438 395.836914062 539.735351562 396.826171875 534.60546875 396.826171875 c 0
 449.009765625 396.826171875 430.439453125 327.1953125 430.439453125 262.008789062 c 0
 430.439453125 195.247070312 433.46484375 115.749023438 433.46484375 55.486328125 c 0
 433.46484375 -7.228515625 422.852539062 -33 388.440429688 -33 c 0
 340.6640625 -33 322.67578125 61.322265625 322.67578125 148.551757812 c 0
 322.67578125 161.155273438 322.833984375 173.845703125 322.833984375 186.75 c 1
 327.064504619 203.086348478 329.223683339 219.820471733 329.223683339 237.091749021 c 0
 329.223683339 260.566156256 325.235005625 285.03285482 317.037109375 310.841796875 c 0
 312.033203125 326.227539062 299.5703125 342.05859375 277.74609375 344.81640625 c 1
 265.20703125 347.831054688 257.734375 348.74609375 248.384765625 348.74609375 c 0
 190.615234375 348.74609375 177.73828125 298.564453125 177.73828125 256.196289062 c 0
 177.73828125 189.073242188 191.782226562 97.265625 191.782226562 33.7255859375 c 0
 191.782226562 -16.9404296875 182.768554688 -34 157.329101562 -34 c 0
 114.515625 -34 96.14453125 -11.7158203125 81.4677734375 36.6806640625 c 0
 61.546875 102.368164062 45.9794921875 261.458984375 45.9794921875 430.435546875 c 0
 45.9794921875 707.35546875 93.04296875 976.340820312 180.911132812 996.90625 c 1
 193.048828125 995.563476562 201.204101562 987.393554688 209.573242188 963.688476562 c 0
 219.060546875 935.313476562 228.739257812 877.619140625 228.739257812 829.717773438 c 0
 228.739257812 816.3125 227.43359375 801.948242188 225.956054688 792.28125 c 1
 220.671340668 811.121456312 215.64194527 828.610014228 209.418945312 846.169921875 c 1
 200.999023438 850.018554688 l 2
 192.86328125 853.73828125 184.897460938 853.436523438 182.83984375 853.436523438 c 0
 144.806988839 853.436523438 141.949729715 811.923058695 141.949729715 783.544173938 c 0
 141.949729715 778.526228352 142.0390625 773.91893807 142.0390625 770.024414062 c 0
 142.0390625 688.509765625 163.040039062 559.900390625 171.147460938 520.536132812 c 2
 174.46484375 504 l 1
 193.62890625 504 l 2
 200.541015625 504 247.590820312 501 266.015625 501 c 0
 350.357421875 501 297.370117188 1012 546.62109375 1012 c 0
 595.83203125 1012 630.036132812 988.126953125 645.477539062 939.15234375 c 0
 651.02734375 921.553710938 653.923828125 903.483398438 653.923828125 887.4296875 c 0
 653.923828125 847.870117188 639.999023438 829 614.581054688 829 c 0
 592.0390625 829 582.094726562 841.755859375 574.377929688 868.059570312 c 0
 569.509765625 881.84765625 570.34765625 903.11328125 562.375 925.6953125 c 0
 553.37109375 951.185546875 526.553710938 954 516.758789062 954 c 2
 508.180664062 954 l 1
 501.7265625 949.051757812 l 2
 423.203125 887.668945312 392.584960938 778.29296875 392.584960938 671.672851562 c 0
 392.584960938 625.30078125 398.393554688 579.200195312 410.38671875 536.34375 c 0
 415.612304688 518.432617188 432.678710938 501 457.65625 501 c 0
 650.911132812 501 558.884765625 741 632.715820312 741 c 0
 646.87109375 741 662.51171875 722.670898438 673.923828125 686.481445312 c 0
 691.297851562 630.595703125 706.619140625 518.478515625 706.619140625 417.723632812 c 0
 706.619140625 308.212890625 684.282226562 231.74609375 659.537109375 219.802734375 c 1
 616.65234375 224.4375 587.44921875 308.606445312 574.604492188 379.477539062 c 1
 571.032226562 395.796875 l 1
 552.686523438 395.796875 l 2
EndSplineSet
EndChar

StartChar: f_f_l
Encoding: 265 64260 88
Width: 1015
Flags: HW
LayerCount: 2
Fore
SplineSet
802.50390625 495 m 1
 864.940066362 554.700193545 899.04296875 647.953865351 899.04296875 751.719726562 c 0
 899.04296875 796.458007812 892.61328125 842.494140625 878.625 886.857421875 c 0
 874.8359375 899.012695312 864.698242188 919 838.225585938 919 c 0
 755.561523438 919 744.708984375 620.498046875 744.708984375 542.387695312 c 0
 744.708984375 529.189453125 745.047851562 519.250976562 746.580078125 511.611328125 c 2
 749.911132812 495 l 1
 802.50390625 495 l 1
574.206054688 334 m 0
 573.600130531 334 572.88401263 334.001175975 572.066495603 334.001175975 c 0
 550.140398498 334.001175975 455.274719919 333.155259939 457.141601562 286.087890625 c 1
 456.99609375 240.817382812 468.068359375 158.427734375 468.068359375 87.3173828125 c 0
 468.068359375 20.3173828125 455.6640625 -21.05078125 441.180664062 -30.9619140625 c 1
 432.279296875 -30.4267578125 431.512695312 -30 425.658203125 -30 c 2
 424.674804688 -30 l 2
 383.788085938 -30 366.720703125 -16.541015625 354.578125 25.0908203125 c 1
 324.5859375 110.088867188 345.849609375 183.397460938 328.013671875 272.180664062 c 0
 324.959960938 292.279296875 307.67578125 309.491210938 283.216796875 311.797851562 c 1
 270.813476562 314.483398438 263.268554688 315.327148438 253.955078125 315.327148438 c 0
 194.26953125 315.327148438 181.016601562 267.013671875 181.016601562 226.352539062 c 0
 181.016601562 165.52734375 203.288085938 84.3974609375 203.288085938 27.2099609375 c 0
 203.288085938 -20.7412109375 192.4921875 -37 161.823242188 -37 c 0
 121.391601562 -37 99.330078125 -13.0595703125 84.876953125 34.60546875 c 0
 63.17578125 106.166015625 45.9794921875 273.576171875 45.9794921875 447.764648438 c 0
 45.9794921875 730.749023438 95.357421875 993 189.52734375 993 c 0
 210.74609375 993 219.110351562 980.055664062 227.9609375 955.694335938 c 0
 235.272460938 935.573242188 242.169921875 887.133789062 242.169921875 842.416992188 c 0
 242.169921875 814.149414062 238.482421875 788.088867188 234.202148438 772.543945312 c 1
 219.673828125 847 l 1
 181.932617188 847 l 2
 158.600646263 847 154.371240417 822.55373262 154.371240417 800.640869913 c 0
 154.371240417 788.17836774 155.739257812 776.535304937 155.739257812 770.674804688 c 0
 155.739257812 683.946289062 162.009765625 533.8828125 173.133789062 501.209960938 c 1
 182.434570312 465.850585938 215.650390625 459.33203125 233.396484375 459.33203125 c 0
 244.418945312 459.33203125 256.025390625 461.258789062 257.696289062 461.538085938 c 0
 274.165039062 461.591796875 316.416015625 462.963867188 322.100585938 507.623046875 c 0
 338.723632812 642.3125 356.377929688 1001 459.610351562 1001 c 0
 485.365234375 1001 494.903320312 994.444335938 503.927734375 969.607421875 c 0
 512.342773438 946.45703125 520.509765625 890.083984375 520.509765625 840.086914062 c 0
 520.509765625 805.538085938 515.27734375 779.256835938 510.282226562 764.15234375 c 1
 487.080078125 879 l 1
 435.734375 879 l 1
 431.49609375 864.98828125 l 2
 427.735351562 852.551757812 427.168945312 805.428710938 427.168945312 740.361328125 c 0
 427.168945312 659.451171875 430.1796875 559.6640625 445.744140625 507.834960938 c 0
 450.145872679 490.713035955 456.819417535 478.126133241 466.329101562 466.043945312 c 1
 552.149414062 466.043945312 l 2
 600.664852287 466.043945312 606.335020506 537.391159531 606.335020506 573.114611522 c 0
 606.335020506 584.012119392 605.807373487 591.594598285 605.807373487 592.825450362 c 0
 606.474482242 709.750511023 759.886024624 1000 848.325195312 1000 c 0
 896.296875 1000 927.553710938 960.1953125 946.34765625 900.583984375 c 0
 961.967773438 851.043945312 968.653320312 805.302734375 968.653320312 762.958984375 c 0
 968.653320312 602.0390625 880.208007812 484.53125 787.647460938 402.456054688 c 0
 779.0546875 395.103515625 766.6015625 384.248046875 766.6015625 366.3828125 c 0
 766.6015625 320.635742188 813.235351562 306 838.692382812 306 c 0
 920.94140625 306 946.54296875 430.979492188 963.87109375 430.979492188 c 0
 971.617370328 430.979492188 972.098862041 431.716792428 973.348632812 427.805664062 c 0
 976.670898438 414.243164062 978.192382812 400.745117188 978.192382812 387.40234375 c 0
 978.192382812 283.969726562 883.90234375 194 805.073242188 194 c 0
 663.501953125 194 643.107421875 334 574.206054688 334 c 0
EndSplineSet
EndChar

StartChar: parenright
Encoding: 41 41 89
Width: 408
Flags: HW
LayerCount: 2
Fore
SplineSet
235.905273438 378.998046875 m 0
 235.905273438 437.806640625 221.932617188 513.1015625 201.741210938 571.922851562 c 1
 184.375 674.814453125 85.373046875 719.384765625 54.791015625 756.857421875 c 1
 54.791015625 756.857421875 54.4716796875 756.900390625 54.4716796875 756.966796875 c 0
 54.4716796875 769.143554688 86.4140625 784.200195312 118.88671875 784.200195312 c 0
 219.877929688 782.19921875 300.735351562 691.432617188 334.513671875 581.592773438 c 0
 353.993164062 519.81640625 362.884765625 460.362304688 362.884765625 404.137695312 c 0
 362.884765625 224.591796875 274.466796875 78.8759765625 146.686523438 -7.2021484375 c 1
 180.58984375 120.263671875 235.905273438 232.133789062 235.905273438 378.998046875 c 0
EndSplineSet
EndChar

StartChar: bracketright
Encoding: 93 93 90
Width: 400
Flags: HW
LayerCount: 2
Fore
SplineSet
148.530273438 688 m 2
 86.0406517087 688 54.4501953125 699.738186951 54.4501953125 749.431640625 c 0
 54.4501953125 788.857421875 107.314453125 795 189.453125 795 c 2
 193.087890625 795 l 2
 255.244140625 795 310.661132812 780.112304688 320.625 758.232421875 c 1
 329.724609375 654.301757812 347.12890625 328.061523438 352.587890625 144.895507812 c 0
 353.103515625 129.272460938 354.4765625 108.021484375 354.4765625 83.251953125 c 0
 354.4765625 33.5185546875 344.0390625 3.73046875 339.838867188 0 c 1
 152.01171875 0 l 2
 115.625976562 0 81.134765625 24.51953125 70.583984375 57.9814453125 c 0
 70.1015625 59.513671875 69.0771484375 66.3046875 69.0771484375 72.8173828125 c 0
 69.0771484375 82.306640625 71.5283203125 93.248046875 72.615234375 97 c 1
 219.619140625 97 l 1
 220.75390625 115.794921875 l 2
 222.42578125 143.48828125 223.000976562 177.720703125 223.000976562 215.850585938 c 0
 223.000976562 310.705078125 219.3984375 429.715820312 219.3984375 526.98046875 c 0
 219.3984375 579.976574071 220.56470938 624.305045837 223.645507812 658.185546875 c 1
 220.172851562 669.201171875 l 1
 198.72265625 688 l 1
 148.530273438 688 l 2
EndSplineSet
EndChar

StartChar: quotedbl
Encoding: 34 34 91
Width: 389
Flags: HW
LayerCount: 2
Fore
SplineSet
139.752929688 771.530273438 m 0
 145.62890625 771.530273438 150.97265625 769.08203125 154.637695312 761.07421875 c 1
 156.001953125 745.897460938 156.486328125 734.290039062 156.486328125 718.360351562 c 0
 156.486328125 627.665039062 130.448242188 528.719726562 79.1630859375 507.092773438 c 1
 71.73828125 508.517578125 66.9404296875 511.499023438 64.6884765625 513.0078125 c 1
 61.837890625 553.211914062 58.080078125 592.743164062 58.080078125 633.358398438 c 0
 58.080078125 714.390625 74.296875 764.774414062 121.54296875 771.080078125 c 0
 128.96875 771.180664062 134.46484375 771.530273438 139.752929688 771.530273438 c 0
329.752929688 771.530273438 m 0
 333.903320312 771.530273438 337.821289062 770.8125 337.994140625 770.7734375 c 0
 338.3984375 759.629882812 338.552734375 751.295898438 338.552734375 739.689453125 c 0
 338.552734375 643.956054688 318.328125 527.64453125 269.341796875 507.051757812 c 1
 262.846679688 508.299804688 257.306640625 511.462890625 254.678710938 513.14453125 c 1
 251.8515625 553.012695312 248.080078125 592.8515625 248.080078125 633.358398438 c 0
 248.080078125 714.390625 264.296875 764.774414062 311.54296875 771.080078125 c 0
 318.96875 771.180664062 324.46484375 771.530273438 329.752929688 771.530273438 c 0
EndSplineSet
EndChar
